<?xml version="1.0" encoding="UTF-8" standalone="no"?>
<svg
   xmlns:dc="http://purl.org/dc/elements/1.1/"
   xmlns:cc="http://creativecommons.org/ns#"
   xmlns:rdf="http://www.w3.org/1999/02/22-rdf-syntax-ns#"
   xmlns:svg="http://www.w3.org/2000/svg"
   xmlns="http://www.w3.org/2000/svg"
   viewBox="0 0 95.999603 95.999603"
   height="95.999603"
   width="95.999603"
   xml:space="preserve"
   id="svg2"
   version="1.1"><metadata
     id="metadata8"><rdf:RDF><cc:Work
         rdf:about=""><dc:format>image/svg+xml</dc:format><dc:type
           rdf:resource="http://purl.org/dc/dcmitype/StillImage" /></cc:Work></rdf:RDF></metadata><defs
     id="defs6"><clipPath
       id="clipPath24"
       clipPathUnits="userSpaceOnUse"><path
         style="clip-rule:evenodd"
         id="path22"
         d="m 11.8358,51.3643 c 0.5165,0.8263 -3.4589,1.704 -2.897,6.1889 0.4915,3.9206 5.7586,6.181 8.9541,3.4234 0.4583,-0.3954 0.907,-0.8183 1.2509,-1.3167 1.5165,-2.1968 0.6457,-4.799 0.856,-5.1355 0.1826,-0.2922 2.0104,0.8972 4.938,0.3294 C 36.987,52.5166 38.2195,35.4138 44.6893,34.3777 64.4715,31.2097 59.7095,23.4556 46.5987,14.4283 46.2266,14.1724 45.733,14.0896 45.4136,13.7701 45.1774,13.5337 45.1225,13.1658 45.0184,12.8483 43.6085,8.5496 40.5544,7.338 36.3277,7.7131 33.2884,7.9829 34.3358,8.9365 31.5601,7.8001 27.9887,6.3383 19.0534,2.5226 9.663,3.3676 c -10.1486,0.913 -0.5757,13.0708 0.8558,18.369 2.0455,7.5691 -9.9652,17.8251 -0.8558,27.5865 0.6781,0.7263 1.6461,1.1985 2.1728,2.0412 z M 38.4347,19.959 c 1.8915,0 3.5906,-0.7886 4.7599,-2.0415 6.7385,3.8957 11.0931,7.2434 10.1628,9.2126 C 52.4268,29.0993 40.3835,29.7386 28.8887,24.4692 17.3942,19.1996 10.6877,10.2566 11.7312,8.0476 c 1.0437,-2.2091 9.953,-0.1676 20.4854,4.3869 -0.11,0.4501 -0.1681,0.9192 -0.1681,1.4014 0,3.3817 2.859,6.1231 6.3862,6.1231 z M 14.6273,59.963 c 1.8933,0 3.428,-1.5509 3.428,-3.464 0,-1.9128 -1.5347,-3.4636 -3.428,-3.4636 -1.8932,0 -3.4279,1.5508 -3.4279,3.4636 0,1.9131 1.5347,3.464 3.4279,3.464" /></clipPath></defs><g
     transform="matrix(1.3333333,0,0,-1.3333333,0,95.9996)"
     id="g10"><g
       id="g12"><path
         id="path14"
         style="fill:#E9EAEC;fill-opacity:1;fill-rule:evenodd;stroke:#E9EAEC;stroke-width:1.19990003;stroke-linecap:butt;stroke-linejoin:miter;stroke-miterlimit:22.92558479;stroke-dasharray:none;stroke-opacity:1"
         d="m 16.6258,52.5356 c 0.5164,0.8263 -3.4589,1.7039 -2.8968,6.1889 0.4913,3.9209 5.7586,6.1809 8.9541,3.4237 0.4581,-0.3954 0.9068,-0.8187 1.2509,-1.317 1.5166,-2.1968 0.6455,-4.799 0.8558,-5.1355 0.1829,-0.292 2.0291,0.9864 4.938,0.3294 C 40.4623,53.6012 42.4077,36.7452 49.4796,35.549 57.079,34.2635 66.397,31.2814 58.9603,22.2497 58.2299,21.363 57.4194,20.5427 56.59,19.7478 c -0.7526,-0.7214 -1.5551,-1.3909 -2.37,-2.0409 -0.9199,-0.7333 -1.8624,-1.44 -2.8313,-2.107 -0.3722,-0.2562 -0.8654,-0.3387 -1.1851,-0.6582 -0.2362,-0.2364 -0.2549,-0.6185 -0.3949,-0.9218 -0.1233,-0.2673 -0.2548,-0.5312 -0.3952,-0.79 C 49.3424,13.0986 49.2718,12.9668 49.1978,12.837 48.2839,10.5267 45.9547,8.8843 43.2247,8.8843 42.9423,8.839 42.6549,8.8186 42.3689,8.8186 41.9513,8.8186 41.5338,8.8475 41.118,8.8843 40.5459,8.9351 39.9643,9.2177 39.4061,9.0819 38.289,8.8101 37.3136,8.1264 36.2458,7.6992 35.5564,7.4237 34.8466,7.2003 34.1391,6.9749 32.9151,6.5857 31.6803,6.2308 30.452,5.8558 29.5954,5.5945 28.7555,5.2733 27.8844,5.0658 26.4481,4.7239 25.0007,4.4169 23.5389,4.2097 22.2092,4.0215 20.865,3.8322 19.5228,3.8806 17.8197,3.9424 16.1144,4.1601 14.4533,4.5391 4.5187,6.8049 13.8773,17.61 15.3091,22.9082 c 0.1664,0.6157 0.2327,1.2793 0.1315,1.9091 -0.1879,1.1727 -0.629,2.2916 -0.9873,3.4237 -2.2575,7.1294 -5.9873,15.8377 0,22.2537 0.6778,0.7262 1.6461,1.1982 2.1725,2.0409 z M 43.2247,21.1303 c 1.8915,0 3.5906,-0.7886 4.7599,-2.0412 6.7388,3.8953 10.944,7.5588 10.1628,9.2126 C 57.0677,30.5867 46.874,28.1676 35.3792,22.898 23.8847,17.6287 15.4417,11.5041 16.5214,9.2191 c 1.0078,-2.1328 9.9528,-0.1678 20.4852,4.3866 -0.11,0.4505 -0.1681,0.9193 -0.1681,1.4018 0,3.3814 2.859,6.1228 6.3862,6.1228 z M 19.4173,61.1342 c 1.8933,0 3.428,-1.5505 3.428,-3.4639 0,-1.9128 -1.5347,-3.4637 -3.428,-3.4637 -1.8932,0 -3.4279,1.5509 -3.4279,3.4637 0,1.9134 1.5347,3.4639 3.4279,3.4639 z" /><path
         id="path16"
         style="fill:#fff;fill-opacity:1;fill-rule:evenodd;stroke:none"
         d="m 11.8358,51.3643 c 0.5165,0.8263 -3.4589,1.704 -2.897,6.1889 0.4915,3.9206 5.7586,6.181 8.9541,3.4234 0.4583,-0.3954 0.907,-0.8183 1.2509,-1.3167 1.5165,-2.1968 0.6457,-4.799 0.856,-5.1355 0.1826,-0.2922 2.0104,0.8972 4.938,0.3294 C 36.987,52.5166 38.2195,35.4138 44.6893,34.3777 64.4715,31.2097 59.7095,23.4556 46.5987,14.4283 46.2266,14.1724 45.733,14.0896 45.4136,13.7701 45.1774,13.5337 45.1225,13.1658 45.0184,12.8483 43.6085,8.5496 40.5544,7.338 36.3277,7.7131 33.2884,7.9829 34.3358,8.9365 31.5601,7.8001 27.9887,6.3383 19.0534,2.5226 9.663,3.3676 c -10.1486,0.913 -0.5757,13.0708 0.8558,18.369 2.0455,7.5691 -9.9652,17.8251 -0.8558,27.5865 0.6781,0.7263 1.6461,1.1985 2.1728,2.0412 z M 38.4347,19.959 c 1.8915,0 3.5906,-0.7886 4.7599,-2.0415 6.7385,3.8957 11.0931,7.2434 10.1628,9.2126 C 52.4268,29.0993 40.3835,29.7386 28.8887,24.4692 17.3942,19.1996 10.6877,10.2566 11.7312,8.0476 c 1.0437,-2.2091 9.953,-0.1676 20.4854,4.3869 -0.11,0.4501 -0.1681,0.9192 -0.1681,1.4014 0,3.3817 2.859,6.1231 6.3862,6.1231 z M 14.6273,59.963 c 1.8933,0 3.428,-1.5509 3.428,-3.464 0,-1.9128 -1.5347,-3.4636 -3.428,-3.4636 -1.8932,0 -3.4279,1.5508 -3.4279,3.4636 0,1.9131 1.5347,3.464 3.4279,3.464" /><g
         id="g18"><g
           clip-path="url(#clipPath24)"
           id="g20"><g
             id="g26"><path
               id="path28"
               style="fill:#B8BBC1;fill-opacity:1;fill-rule:evenodd;stroke:none"
               d="m 8.9016,55.7124 c -0.0773,0.5009 -0.089,1.065 -0.0093,1.7016 0.4912,3.9204 5.7583,6.181 8.9538,3.4232 0.4583,-0.3955 0.9071,-0.8184 1.2509,-1.3164 1.5168,-2.1972 0.646,-4.7991 0.8561,-5.1361 0.1828,-0.2917 2.029,0.9867 4.9382,0.3296 C 35.6253,52.2904 37.571,35.4348 44.6426,34.2386 52.2422,32.9528 61.56,29.9707 54.1236,20.939 53.3934,20.052 52.5824,19.2317 51.753,18.4368 51.0007,17.7154 50.1982,17.0459 49.3829,16.3959 48.4634,15.6628 47.5211,14.9562 46.552,14.2889 46.1798,14.0329 45.6866,13.9501 45.3668,13.631 45.1304,13.3946 45.112,13.0122 44.9717,12.7091 44.8486,12.4415 44.7171,12.1779 44.5771,11.9186 44.5059,11.7879 44.4348,11.6558 44.3614,11.5262 43.4472,9.2157 41.118,7.5736 38.3879,7.5736 38.1056,7.528 37.8184,7.5076 37.5321,7.5076 c -0.4175,0 -0.8351,0.0294 -1.2509,0.066 -0.572,0.0507 -1.1537,0.3328 -1.7116,0.1976 -0.1031,-0.025 -0.2049,-0.0539 -0.3061,-0.0853 0.7311,3.4183 0.9556,7.1895 0.6318,11.1373 1.0038,0.6298 2.2037,0.9961 3.4926,0.9961 1.8916,0 3.5909,-0.7886 4.7599,-2.041 6.7386,3.8954 10.9443,7.5592 10.1625,9.2126 -0.9595,2.0311 -9.1204,0.345 -18.9946,-3.7553 -0.4845,2.6776 -1.2155,5.4034 -2.2065,8.1255 -3.591,9.8714 -9.8181,17.5844 -16.655,21.6485 1.4703,0.3903 2.554,1.7421 2.554,3.3497 0,1.9134 -1.5344,3.4636 -3.4273,3.4636 -1.8936,0 -3.4283,-1.5502 -3.4283,-3.4636 0,-0.5049 0.1075,-0.9851 0.2999,-1.4182 -0.8484,0.3158 -1.6999,0.5735 -2.5509,0.7713" /></g></g></g><path
         id="path30"
         style="fill:none;stroke:#B8BBC1;stroke-width:1.19990003;stroke-linecap:butt;stroke-linejoin:miter;stroke-miterlimit:22.92558479;stroke-dasharray:none;stroke-opacity:1"
         d="m 11.8358,51.3643 c 0.5165,0.8263 -3.4589,1.704 -2.897,6.1889 0.4915,3.9206 5.7586,6.181 8.9541,3.4234 0.4583,-0.3954 0.907,-0.8183 1.2509,-1.3167 1.5165,-2.1968 0.6457,-4.799 0.856,-5.1355 0.1826,-0.2922 2.0104,0.8972 4.938,0.3294 C 36.987,52.5166 38.2195,35.4138 44.6893,34.3777 64.4715,31.2097 59.7095,23.4556 46.5987,14.4283 46.2266,14.1724 45.733,14.0896 45.4136,13.7701 45.1774,13.5337 45.1225,13.1658 45.0184,12.8483 43.6085,8.5496 40.5544,7.338 36.3277,7.7131 33.2884,7.9829 34.3358,8.9365 31.5601,7.8001 27.9887,6.3383 19.0534,2.5226 9.663,3.3676 c -10.1486,0.913 -0.5757,13.0708 0.8558,18.369 2.0455,7.5691 -9.9652,17.8251 -0.8558,27.5865 0.6781,0.7263 1.6461,1.1985 2.1728,2.0412 z M 38.4347,19.959 c 1.8915,0 3.5906,-0.7886 4.7599,-2.0415 6.7385,3.8957 11.0931,7.2434 10.1628,9.2126 C 52.4268,29.0993 40.3835,29.7386 28.8887,24.4692 17.3942,19.1996 10.6877,10.2566 11.7312,8.0476 c 1.0437,-2.2091 9.953,-0.1676 20.4854,4.3869 -0.11,0.4501 -0.1681,0.9192 -0.1681,1.4014 0,3.3817 2.859,6.1231 6.3862,6.1231 z M 14.6273,59.963 c 1.8933,0 3.428,-1.5509 3.428,-3.464 0,-1.9128 -1.5347,-3.4636 -3.428,-3.4636 -1.8932,0 -3.4279,1.5508 -3.4279,3.4636 0,1.9131 1.5347,3.464 3.4279,3.464 z" /><path
         id="path32"
         style="fill:none;stroke:#B8BBC1;stroke-width:1.19990003;stroke-linecap:butt;stroke-linejoin:miter;stroke-miterlimit:22.92558479;stroke-dasharray:none;stroke-opacity:1"
         d="m 16.8174,34.3494 c 1.1942,-2.7148 5.6809,-0.3509 4.3089,2.1288" /><path
         id="path34"
         style="fill:none;stroke:#B8BBC1;stroke-width:1.19990003;stroke-linecap:butt;stroke-linejoin:miter;stroke-miterlimit:22.92558479;stroke-dasharray:none;stroke-opacity:1"
         d="m 25.3633,38.514 c 0.7554,-2.8678 5.5564,-1.2347 4.589,1.4293" /><g
         id="g36"><path
           id="path38"
           style="fill:#E9EAEC;fill-opacity:1;fill-rule:nonzero;stroke:#E9EAEC;stroke-width:1.19990003;stroke-linecap:butt;stroke-linejoin:miter;stroke-miterlimit:22.92558479;stroke-dasharray:none;stroke-opacity:1"
           d="m 45.3881,45.8385 -0.2999,0.434 1.2583,3.6873 c -0.3147,-0.1701 -0.595,-0.3149 -0.8402,-0.4349 l -1.8196,-0.8895 -0.2971,0.43 3.6624,1.7901 0.2418,-0.3501 -1.059,-3.1827 -0.2104,-0.5981 c 0.3283,0.1874 0.6415,0.354 0.9403,0.5 l 2.0795,1.0165 0.3178,-0.46 z" /><path
           id="path40"
           style="fill:#E9EAEC;fill-opacity:1;fill-rule:nonzero;stroke:#E9EAEC;stroke-width:1.19990003;stroke-linecap:butt;stroke-linejoin:miter;stroke-miterlimit:22.92558479;stroke-dasharray:none;stroke-opacity:1"
           d="m 49.9623,51.808 -0.2999,0.4337 1.2586,3.6876 c -0.3149,-0.1701 -0.595,-0.315 -0.8405,-0.4349 l -1.8195,-0.8895 -0.2971,0.4297 3.6624,1.7904 0.2418,-0.3504 -1.0591,-3.1824 -0.21,-0.5981 c 0.328,0.1873 0.6415,0.354 0.94,0.5 l 2.0795,1.0162 0.318,-0.46 z" /><path
           id="path42"
           style="fill:#E9EAEC;fill-opacity:1;fill-rule:nonzero;stroke:#E9EAEC;stroke-width:1.19990003;stroke-linecap:butt;stroke-linejoin:miter;stroke-miterlimit:22.92558479;stroke-dasharray:none;stroke-opacity:1"
           d="m 57.6215,50.6755 -0.2996,0.434 1.2583,3.6876 C 58.2653,54.627 57.9852,54.4819 57.74,54.362 l -1.8198,-0.8892 -0.2971,0.4297 3.6624,1.7901 0.2421,-0.3501 -1.0591,-3.1825 -0.2103,-0.5981 c 0.328,0.1874 0.6415,0.3541 0.9403,0.5001 l 2.0792,1.0162 0.318,-0.4601 z" /><path
           id="path44"
           style="fill:#E9EAEC;fill-opacity:1;fill-rule:nonzero;stroke:#E9EAEC;stroke-width:1.19990003;stroke-linecap:butt;stroke-linejoin:miter;stroke-miterlimit:22.92558479;stroke-dasharray:none;stroke-opacity:1"
           d="m 64.1784,52.6156 -0.4184,0.6054 0.8657,0.4233 0.4186,-0.6055 z m 2.4054,1.1758 -0.4184,0.6055 0.866,0.4232 0.4184,-0.6055 z m 2.4055,1.1758 -0.4184,0.6055 0.866,0.4229 0.4184,-0.6055 z" /></g><g
         id="g46"><path
           id="path48"
           style="fill:#B8BBC1;fill-opacity:1;fill-rule:nonzero;stroke:#B8BBC1;stroke-width:1.19990003;stroke-linecap:butt;stroke-linejoin:miter;stroke-miterlimit:22.92558479;stroke-dasharray:none;stroke-opacity:1"
           d="m 43.2026,46.6316 -0.2968,0.436 1.2843,3.6785 c -0.316,-0.1678 -0.5969,-0.3107 -0.8433,-0.4289 l -1.8258,-0.8764 -0.2939,0.432 3.6748,1.764 0.2395,-0.3518 -1.0817,-3.1751 -0.2143,-0.5967 c 0.3292,0.1851 0.6438,0.3495 0.9437,0.4935 l 2.0863,1.0015 0.3146,-0.4623 z" /><path
           id="path50"
           style="fill:#B8BBC1;fill-opacity:1;fill-rule:nonzero;stroke:#B8BBC1;stroke-width:1.19990003;stroke-linecap:butt;stroke-linejoin:miter;stroke-miterlimit:22.92558479;stroke-dasharray:none;stroke-opacity:1"
           d="m 47.8188,52.5685 -0.2965,0.436 1.2843,3.6785 c -0.316,-0.1678 -0.5972,-0.3107 -0.8433,-0.4289 l -1.8258,-0.8765 -0.2939,0.432 3.6748,1.764 0.2396,-0.3517 -1.0817,-3.1751 -0.2146,-0.5967 c 0.3294,0.1851 0.644,0.3495 0.9436,0.4935 l 2.0866,1.0015 0.3147,-0.4624 z" /><path
           id="path52"
           style="fill:#B8BBC1;fill-opacity:1;fill-rule:nonzero;stroke:#B8BBC1;stroke-width:1.19990003;stroke-linecap:butt;stroke-linejoin:miter;stroke-miterlimit:22.92558479;stroke-dasharray:none;stroke-opacity:1"
           d="m 55.4698,51.3819 -0.2968,0.436 1.2846,3.6788 c -0.316,-0.1681 -0.5972,-0.311 -0.8433,-0.4292 l -1.826,-0.8764 -0.294,0.432 3.6748,1.764 0.2396,-0.3518 -1.0817,-3.1751 -0.2143,-0.5967 c 0.3293,0.1851 0.644,0.3495 0.9436,0.4935 l 2.0866,1.0015 0.3146,-0.4623 z" /><path
           id="path54"
           style="fill:#B8BBC1;fill-opacity:1;fill-rule:nonzero;stroke:#B8BBC1;stroke-width:1.19990003;stroke-linecap:butt;stroke-linejoin:miter;stroke-miterlimit:22.92558479;stroke-dasharray:none;stroke-opacity:1"
           d="m 62.0402,53.2752 -0.4142,0.6086 0.8686,0.417 0.4141,-0.6086 z m 2.4137,1.1588 -0.4142,0.6083 0.8689,0.4173 0.4141,-0.6086 z m 2.4137,1.1585 -0.4142,0.6086 0.8689,0.417 0.4141,-0.6083 z" /></g><path
         id="path56"
         style="fill:#B8BBC1;fill-opacity:1;fill-rule:evenodd;stroke:#B8BBC1;stroke-width:1.19990003;stroke-linecap:butt;stroke-linejoin:miter;stroke-miterlimit:22.92558479;stroke-dasharray:none;stroke-opacity:1"
         d="m 38.3496,18.2109 c 2.4273,0 4.3952,-1.9882 4.3952,-4.441 0,-2.4529 -1.9679,-4.4411 -4.3952,-4.4411 -2.4273,0 -4.3951,1.9882 -4.3951,4.4411 0,2.4528 1.9678,4.441 4.3951,4.441 z" /></g><path
       id="path58"
       style="fill:none;stroke:#B8BBC1;stroke-width:0.56690001;stroke-linecap:butt;stroke-linejoin:miter;stroke-miterlimit:22.92558479;stroke-dasharray:none;stroke-opacity:1"
       d="m 16.7998,19.6795 c 5.76,6.2399 17.4671,12.1598 28.5599,11.2802" /><path
       id="path60"
       style="fill:none;stroke:#B8BBC1;stroke-width:0.56690001;stroke-linecap:butt;stroke-linejoin:miter;stroke-miterlimit:22.92558479;stroke-dasharray:none;stroke-opacity:1"
       d="m 47.9996,30.7196 c 2.539,-0.1136 3.7508,-0.6276 5.434,-1.7433" /></g></svg>