<svg width="22" height="22" viewBox="0 0 22 22" fill="none" xmlns="http://www.w3.org/2000/svg">
<path d="M15.6191 22H10.6777C9.53752 21.9546 9.53837 20.3262 10.6777 20.2812H15.6191C17.5146 20.2812 19.0566 18.7392 19.0566 16.8438V5.15625C19.0566 4.06493 18.5554 3.06243 17.6814 2.40582C17.302 2.12072 17.2255 1.58202 17.5105 1.20257C17.7956 0.823109 18.3343 0.746539 18.7138 1.03168C20.024 2.01596 20.7754 3.51931 20.7754 5.15625V16.8438C20.7754 19.6869 18.4623 22 15.6191 22ZM8.09961 21.1406V0.859375C8.09961 0.384742 7.71487 0 7.24023 0H6.38086C3.5377 0 1.22461 2.31309 1.22461 5.15625V16.8438C1.22461 19.6869 3.5377 22 6.38086 22H7.24023C7.71487 22 8.09961 21.6153 8.09961 21.1406ZM6.38086 20.2812C4.48542 20.2812 2.94336 18.7392 2.94336 16.8438V5.15625C2.94336 3.26081 4.48542 1.71875 6.38086 1.71875V20.2812ZM14.3657 9.96772C14.0007 9.96772 13.6411 9.83151 13.3637 9.57236L12.8262 9.07599L12.2886 9.57236C11.362 10.446 9.81247 9.77251 9.81836 8.49935V0.859375C9.81836 0.384742 10.2031 0 10.6777 0H14.9746C15.4492 0 15.834 0.384742 15.834 0.859375V8.49935C15.834 9.08535 15.4864 9.6143 14.9486 9.84693C14.7607 9.92814 14.5624 9.96772 14.3657 9.96772ZM12.8262 7.04688C13.0354 7.04688 13.2446 7.12289 13.4092 7.27491L14.1152 7.92688V1.71875H11.5371V7.92688L12.2432 7.27487C12.4078 7.12289 12.617 7.04688 12.8262 7.04688Z" fill="#363636"/>
</svg>
