<svg width="76" height="76" viewBox="0 0 76 76" fill="none" xmlns="http://www.w3.org/2000/svg">
<path d="M25.1926 52.3074H31.0111V52.9667H25.1926H23.6926V54.4667V60.2852H23.0333V54.4667V52.9667H21.5333H15.7148V52.3074H21.5333H23.0333V50.8074V44.9889H23.6926V50.8074V52.3074H25.1926ZM32.5111 9.05556H14.2148C11.3738 9.05556 9.05554 11.3738 9.05554 14.2148V32.5111C9.05554 35.3521 11.3738 37.6704 14.2148 37.6704H32.5111C35.3521 37.6704 37.6704 35.3521 37.6704 32.5111V14.2148C37.6704 11.3738 35.3521 9.05556 32.5111 9.05556ZM31.0111 23.6926H15.7148V23.0333H31.0111V23.6926ZM61.7852 9.05556H43.4889C40.6479 9.05556 38.3296 11.3738 38.3296 14.2148V61.7852C38.3296 64.6262 40.6479 66.9444 43.4889 66.9444H61.7852C64.6262 66.9444 66.9444 64.6262 66.9444 61.7852V14.2148C66.9444 11.3738 64.6262 9.05556 61.7852 9.05556ZM60.2852 41.9889H44.9889V41.3296H60.2852V41.9889ZM60.2852 31.0111H44.9889V30.3519H60.2852V31.0111ZM32.5111 38.3296H14.2148C11.3738 38.3296 9.05554 40.6479 9.05554 43.4889V61.7852C9.05554 64.6262 11.3738 66.9444 14.2148 66.9444H32.5111C35.3521 66.9444 37.6704 64.6262 37.6704 61.7852V43.4889C37.6704 40.6479 35.3521 38.3296 32.5111 38.3296Z" stroke="black" stroke-width="3"/>
</svg>
