<svg width="114" height="86" viewBox="0 0 114 86" fill="none" xmlns="http://www.w3.org/2000/svg">
<g clip-path="url(#clip0)">
<mask id="mask0" style="mask-type:alpha" maskUnits="userSpaceOnUse" x="-19" y="-8" width="150" height="102">
<path d="M131 -8H-19V94H131V-8Z" fill="white"/>
</mask>
<g mask="url(#mask0)">
<path fill-rule="evenodd" clip-rule="evenodd" d="M16.125 4.06445H66.0836C68.7986 4.06445 70.9996 6.02862 70.9996 8.45155V54.5161C70.9996 56.939 68.7986 58.9032 66.0836 58.9032H25.5269C22.8119 58.9032 20.6109 56.939 20.6109 54.5161V7.50635" fill="#E9EAEC"/>
<path d="M16.125 4.06445H66.0836C68.7986 4.06445 70.9996 6.02862 70.9996 8.45155V54.5161C70.9996 56.939 68.7986 58.9032 66.0836 58.9032H25.5269C22.8119 58.9032 20.6109 56.939 20.6109 54.5161V7.50635" stroke="#E9EAEC" stroke-width="1.1"/>
<path fill-rule="evenodd" clip-rule="evenodd" d="M16.125 4.06445H66.0836C68.7986 4.06445 70.9996 6.02862 70.9996 8.45155V54.5161C70.9996 56.939 68.7986 58.9032 66.0836 58.9032H25.5269C22.8119 58.9032 20.6109 56.939 20.6109 54.5161V7.50635" fill="#E9EAEC"/>
<path d="M16.125 4.06445H66.0836C68.7986 4.06445 70.9996 6.02862 70.9996 8.45155V54.5161C70.9996 56.939 68.7986 58.9032 66.0836 58.9032H25.5269C22.8119 58.9032 20.6109 56.939 20.6109 54.5161V7.50635" stroke="#E9EAEC" stroke-width="1.1"/>
<path fill-rule="evenodd" clip-rule="evenodd" d="M30.4433 36.6764V50.129V53.0537C30.4433 56.2843 28.2424 58.9032 25.5273 58.9032H40.248V33.9615C39.3039 31.5876 37.8412 30.3456 35.8598 30.2355C33.8784 30.1254 32.0729 31.3674 30.4433 33.9615V36.6764Z" fill="#E9EAEC" stroke="#E9EAEC" stroke-width="1.1" stroke-linecap="round"/>
<path fill-rule="evenodd" clip-rule="evenodd" d="M20.5479 15.4666H10.7796V9.9138C10.7796 6.68323 12.9805 4.06434 15.6955 4.06434C17.8263 4.28789 19.1677 4.86052 19.7198 5.78224C20.2718 6.70395 20.5479 7.38241 20.5479 7.8176L20.5479 15.4666Z" fill="#E9EAEC" stroke="#E9EAEC" stroke-width="1.1" stroke-linecap="round" stroke-linejoin="round"/>
<path fill-rule="evenodd" clip-rule="evenodd" d="M20.5479 15.4666H10.7796V9.9138C10.7796 6.68323 12.9805 4.06434 15.6955 4.06434" fill="#E9EAEC"/>
<path d="M20.5479 15.4666H10.7796V9.9138C10.7796 6.68323 12.9805 4.06434 15.6955 4.06434" stroke="#E9EAEC" stroke-width="1.1" stroke-linecap="round" stroke-linejoin="round"/>
<path fill-rule="evenodd" clip-rule="evenodd" d="M15.6953 4.06445C18.4103 4.06445 20.6113 6.02862 20.6113 8.45155V16.129" fill="#E9EAEC"/>
<path d="M15.6953 4.06445C18.4103 4.06445 20.6113 6.02862 20.6113 8.45155V16.129" stroke="#E9EAEC" stroke-width="1.1"/>
<path fill-rule="evenodd" clip-rule="evenodd" d="M40.5527 58.9031C37.5065 58.9031 32.9372 58.9031 26.8447 58.9031H40.5527Z" fill="#E9EAEC"/>
<path d="M40.5527 58.9031C37.5065 58.9031 32.9372 58.9031 26.8447 58.9031" stroke="#E9EAEC" stroke-width="1.1" stroke-linecap="round" stroke-linejoin="round"/>
<path fill-rule="evenodd" clip-rule="evenodd" d="M30.4433 36.6763V50.1289V53.0536C30.4433 56.2841 28.2424 58.903 25.5273 58.903" fill="#E9EAEC"/>
<path d="M30.4433 36.6763V50.1289V53.0536C30.4433 56.2842 28.2424 58.903 25.5273 58.903" stroke="#E9EAEC" stroke-width="1.1" stroke-linecap="round"/>
<path fill-rule="evenodd" clip-rule="evenodd" d="M35.7891 30.387H85.7477C88.4627 30.387 90.6636 32.3511 90.6636 34.7741V80.8386C90.6636 83.2615 88.4627 85.2257 85.7477 85.2257H45.1909C42.4759 85.2257 40.275 83.2615 40.275 80.8386V33.8289C39.3682 31.8608 38.5794 30.8175 37.9086 30.6989C37.2378 30.5804 36.5313 30.4764 35.7891 30.387Z" fill="#E9EAEC" stroke="#E9EAEC" stroke-width="1.1"/>
<path fill-rule="evenodd" clip-rule="evenodd" d="M35.7891 30.387H85.7477C88.4627 30.387 90.6636 32.3511 90.6636 34.7741V80.8386C90.6636 83.2615 88.4627 85.2257 85.7477 85.2257H45.1909C42.4759 85.2257 40.275 83.2615 40.275 80.8386V33.8289" fill="#E9EAEC"/>
<path d="M35.7891 30.387H85.7477C88.4627 30.387 90.6636 32.3511 90.6636 34.7741V80.8386C90.6636 83.2615 88.4627 85.2257 85.7477 85.2257H45.1909C42.4759 85.2257 40.275 83.2615 40.275 80.8386V33.8289" stroke="#E9EAEC" stroke-width="1.1"/>
<path fill-rule="evenodd" clip-rule="evenodd" d="M35.3594 30.387C38.0744 30.387 40.2753 32.3511 40.2753 34.7741V42.4515" fill="#E9EAEC"/>
<path d="M35.3594 30.387C38.0744 30.387 40.2753 32.3511 40.2753 34.7741V42.4515" stroke="#E9EAEC" stroke-width="1.1"/>
<path fill-rule="evenodd" clip-rule="evenodd" d="M50.1837 76.4514H96.8084V79.3761C96.8084 82.6067 94.6075 85.2256 91.8925 85.2256H46.5088C48.6877 83.9839 49.9126 82.8371 50.1837 81.7854C50.4547 80.7337 50.4547 78.9557 50.1837 76.4514Z" fill="#E9EAEC" stroke="#E9EAEC" stroke-width="1.1" stroke-linecap="round" stroke-linejoin="round"/>
<path fill-rule="evenodd" clip-rule="evenodd" d="M50.1837 80.8386H96.3872L96.0229 81.8866C96.0229 83.5018 94.6075 85.2257 91.8925 85.2257H46.5088" fill="#E9EAEC"/>
<path d="M50.1837 80.8386H96.3872L96.0229 81.8866C96.0229 83.5018 94.6075 85.2257 91.8925 85.2257H46.5088" stroke="#E9EAEC" stroke-width="1.1" stroke-linecap="round" stroke-linejoin="round"/>
<path fill-rule="evenodd" clip-rule="evenodd" d="M50.1837 83.0322H96.3872L96.0229 83.5562C96.0229 84.3638 94.6075 85.2258 91.8925 85.2258H46.5088" fill="#E9EAEC"/>
<path d="M50.1837 83.0322H96.3872L96.0229 83.5562C96.0229 84.3638 94.6075 85.2258 91.8925 85.2258H46.5088" stroke="#E9EAEC" stroke-width="1.1" stroke-linecap="round" stroke-linejoin="round"/>
<path fill-rule="evenodd" clip-rule="evenodd" d="M50.1837 76.4514H96.8084V79.3761C96.8084 82.6067 94.6075 85.2256 91.8925 85.2256H46.5088" fill="#E9EAEC"/>
<path d="M50.1837 76.4514H96.8084V79.3761C96.8084 82.6067 94.6075 85.2256 91.8925 85.2256H46.5088" stroke="#E9EAEC" stroke-width="1.1" stroke-linecap="round" stroke-linejoin="round"/>
<path fill-rule="evenodd" clip-rule="evenodd" d="M50.1074 76.4514V79.3761C50.1074 82.6067 47.9064 85.2256 45.1914 85.2256" fill="#E9EAEC"/>
<path d="M50.1074 76.4514V79.3761C50.1074 82.6067 47.9064 85.2256 45.1914 85.2256" stroke="#E9EAEC" stroke-width="1.1" stroke-linecap="round"/>
<path fill-rule="evenodd" clip-rule="evenodd" d="M30.4434 39.1611V36.2364C30.4434 33.0058 32.6444 30.3869 35.3594 30.3869" fill="#E9EAEC"/>
<path d="M30.4434 39.1611V36.2364C30.4434 33.0058 32.6444 30.3869 35.3594 30.3869" stroke="#E9EAEC" stroke-width="1.1" stroke-linecap="round"/>
<path fill-rule="evenodd" clip-rule="evenodd" d="M6.19824 0.77417H56.1568C58.8718 0.77417 61.0728 2.73834 61.0728 5.16127V51.2258C61.0728 53.6487 58.8718 55.6129 56.1568 55.6129H15.6001C12.8851 55.6129 10.6841 53.6487 10.6841 51.2258V4.21607" fill="#fff"/>
<path fill-rule="evenodd" clip-rule="evenodd" d="M61.0732 5.16138V51.2259C61.0732 53.6488 58.8723 55.613 56.1573 55.613H15.6005C12.8855 55.613 10.6846 53.6488 10.6846 51.2259" fill="#E9EAEC"/>
<path d="M6.19824 0.77417H56.1568C58.8718 0.77417 61.0728 2.73834 61.0728 5.16127V51.2258C61.0728 53.6487 58.8718 55.6129 56.1568 55.6129H15.6001C12.8851 55.6129 10.6841 53.6487 10.6841 51.2258V4.21607" stroke="#B8BBC1" stroke-width="1.1"/>
<path fill-rule="evenodd" clip-rule="evenodd" d="M20.5166 33.3861V46.8387V49.7634C20.5166 52.994 18.3156 55.6129 15.6006 55.6129H30.3213V30.6713C29.3772 28.2973 27.9144 27.0553 25.933 26.9452C23.9516 26.8351 22.1461 28.0771 20.5166 30.6713V33.3861Z" fill="#B8BBC1"/>
<path fill-rule="evenodd" clip-rule="evenodd" d="M10.6211 12.1763H0.852797V6.62352C0.852797 3.39295 3.05375 0.774054 5.76876 0.774054C7.89955 0.997606 9.24097 1.57024 9.79302 2.49195C10.3451 3.41367 10.6211 4.09212 10.6211 4.52732L10.6211 12.1763Z" fill="#B8BBC1"/>
<path d="M10.6211 12.1763H0.852797V6.62352C0.852797 3.39295 3.05375 0.774054 5.76876 0.774054" stroke="#B8BBC1" stroke-width="1.1" stroke-linecap="round" stroke-linejoin="round"/>
<path d="M5.76855 0.77417C8.48357 0.77417 10.6845 2.73834 10.6845 5.16127V12.8387" stroke="#B8BBC1" stroke-width="1.1"/>
<path fill-rule="evenodd" clip-rule="evenodd" d="M30.6259 55.6128C27.5797 55.6128 23.0104 55.6128 16.918 55.6128H30.6259Z" fill="#D8D8D8"/>
<path d="M30.6259 55.6128C27.5797 55.6128 23.0104 55.6128 16.918 55.6128" stroke="#B8BBC1" stroke-width="1.1" stroke-linecap="round" stroke-linejoin="round"/>
<path d="M20.5166 33.386V46.8386V49.7633C20.5166 52.9939 18.3156 55.6128 15.6006 55.6128" stroke="#B8BBC1" stroke-width="1.1" stroke-linecap="round"/>
<path fill-rule="evenodd" clip-rule="evenodd" d="M25.8623 27.0967H75.8209C78.5359 27.0967 80.7369 29.0608 80.7369 31.4838V77.5483C80.7369 79.9712 78.5359 81.9354 75.8209 81.9354H35.2642C32.5492 81.9354 30.3482 79.9712 30.3482 77.5483V30.5386C29.4414 28.5705 28.6526 27.5272 27.9818 27.4087C27.311 27.2902 26.6045 27.1862 25.8623 27.0967Z" fill="#fff"/>
<path fill-rule="evenodd" clip-rule="evenodd" d="M80.7373 31.4839V77.5484C80.7373 79.9713 78.5363 81.9355 75.8213 81.9355H35.2646C32.5496 81.9355 30.3486 79.9713 30.3486 77.5484" fill="#E9EAEC"/>
<path d="M25.8623 27.0967H75.8209C78.5359 27.0967 80.7369 29.0608 80.7369 31.4838V77.5483C80.7369 79.9712 78.5359 81.9354 75.8209 81.9354H35.2642C32.5492 81.9354 30.3482 79.9712 30.3482 77.5483V30.5386" stroke="#B8BBC1" stroke-width="1.1"/>
<path d="M25.4326 27.0967C28.1476 27.0967 30.3486 29.0608 30.3486 31.4838V39.1612" stroke="#B8BBC1" stroke-width="1.1"/>
<path fill-rule="evenodd" clip-rule="evenodd" d="M40.2569 73.1611H86.8817V76.0859C86.8817 79.3164 84.6807 81.9353 81.9657 81.9353H36.582C38.7609 80.6936 39.9859 79.5468 40.2569 78.4951C40.528 77.4434 40.528 75.6654 40.2569 73.1611Z" fill="#B8BBC1"/>
<path fill-rule="evenodd" clip-rule="evenodd" d="M40.2569 77.5483H86.4605L86.0961 78.5963C86.0961 80.2116 84.6807 81.9354 81.9657 81.9354H36.582" fill="#E9EAEC"/>
<path fill-rule="evenodd" clip-rule="evenodd" d="M40.2569 79.7419H86.4605L86.0961 80.2659C86.0961 81.0736 84.6807 81.9355 81.9657 81.9355H36.582" fill="#E9EAEC"/>
<path d="M40.2569 73.1611H86.8817V76.0859C86.8817 79.3164 84.6807 81.9353 81.9657 81.9353H36.582" stroke="#B8BBC1" stroke-width="1.1" stroke-linecap="round" stroke-linejoin="round"/>
<path d="M40.1806 73.1611V76.0859C40.1806 79.3164 37.9797 81.9353 35.2646 81.9353" stroke="#B8BBC1" stroke-width="1.1" stroke-linecap="round"/>
<path d="M20.5167 35.8708V32.9461C20.5167 29.7155 22.7176 27.0967 25.4326 27.0967" stroke="#B8BBC1" stroke-width="1.1" stroke-linecap="round"/>
<path d="M18.6729 11.1936H30.9628" stroke="#E9EAEC" stroke-width="1.1" stroke-linecap="round"/>
<path d="M18.5762 14.4839H37.2338" stroke="#E9EAEC" stroke-width="1.1" stroke-linecap="round"/>
<path d="M18.5762 17.7742H37.2338" stroke="#E9EAEC" stroke-width="1.1" stroke-linecap="round"/>
<path d="M18.5762 21.0645H24.8182" stroke="#E9EAEC" stroke-width="1.1" stroke-linecap="round"/>
<path d="M41.6611 47.9355C41.6611 50.3585 43.6363 52.3226 46.0729 52.3226C48.5094 52.3226 50.4847 50.3585 50.4847 47.9355" stroke="#E9EAEC" stroke-width="2.2" stroke-linecap="round"/>
<path d="M65.9258 47.9355C65.9258 50.3585 67.901 52.3226 70.3375 52.3226C72.7741 52.3226 74.7493 50.3585 74.7493 47.9355" stroke="#B8BBC1" stroke-width="2.2" stroke-linecap="round"/>
<path d="M81.3672 19.697L85.4561 18.3225L82.8565 22.83L86.7951 21.5556" stroke="#E9EAEC" stroke-width="1.1" stroke-linecap="round" stroke-linejoin="round"/>
<path d="M87.9844 15.3101L92.0733 13.9355L89.4737 18.443L93.4123 17.1687" stroke="#E9EAEC" stroke-width="1.1" stroke-linecap="round" stroke-linejoin="round"/>
<path d="M106.635 16.5201C107.161 16.3494 107.448 15.7853 107.278 15.26C107.107 14.7348 106.543 14.4473 106.017 14.618C105.492 14.7887 105.205 15.3528 105.375 15.8781C105.546 16.4033 106.11 16.6908 106.635 16.5201Z" fill="#E9EAEC"/>
<path d="M109.782 15.4976C110.307 15.327 110.595 14.7628 110.424 14.2376C110.253 13.7123 109.689 13.4249 109.164 13.5955C108.639 13.7662 108.351 14.3303 108.522 14.8556C108.693 15.3809 109.257 15.6683 109.782 15.4976Z" fill="#E9EAEC"/>
<path d="M112.929 14.4752C113.455 14.3045 113.742 13.7404 113.571 13.2151C113.401 12.6898 112.837 12.4024 112.311 12.5731C111.786 12.7437 111.499 13.3079 111.669 13.8331C111.84 14.3584 112.404 14.6458 112.929 14.4752Z" fill="#E9EAEC"/>
<path d="M96.8086 15.3101L100.898 13.9355L98.2979 18.443L102.237 17.1687" stroke="#E9EAEC" stroke-width="1.1" stroke-linecap="round" stroke-linejoin="round"/>
<path d="M71.4404 16.4067L75.5294 15.0322L72.9298 19.5397L76.8683 18.2653" stroke="#B8BBC1" stroke-width="1.1" stroke-linecap="round" stroke-linejoin="round"/>
<path d="M78.0576 12.0198L82.1465 10.6453L79.547 15.1527L83.4855 13.8784" stroke="#B8BBC1" stroke-width="1.1" stroke-linecap="round" stroke-linejoin="round"/>
<path d="M96.7087 13.2298C97.234 13.0591 97.5214 12.495 97.3508 11.9697C97.1801 11.4445 96.616 11.157 96.0907 11.3277C95.5655 11.4984 95.278 12.0625 95.4487 12.5878C95.6193 13.113 96.1835 13.4005 96.7087 13.2298Z" fill="#B8BBC1"/>
<path d="M99.8552 12.2074C100.38 12.0367 100.668 11.4725 100.497 10.9473C100.327 10.422 99.7624 10.1346 99.2372 10.3052C98.7119 10.4759 98.4245 11.0401 98.5951 11.5653C98.7658 12.0906 99.33 12.378 99.8552 12.2074Z" fill="#B8BBC1"/>
<path d="M103.003 11.1849C103.528 11.0142 103.815 10.4501 103.645 9.92482C103.474 9.39957 102.91 9.11211 102.385 9.28278C101.859 9.45345 101.572 10.0176 101.743 10.5429C101.913 11.0681 102.477 11.3556 103.003 11.1849Z" fill="#B8BBC1"/>
<path d="M86.8818 12.0198L90.9708 10.6453L88.3712 15.1527L92.3098 13.8784" stroke="#B8BBC1" stroke-width="1.1" stroke-linecap="round" stroke-linejoin="round"/>
</g>
</g>
<defs>
<clipPath id="clip0">
<rect width="114" height="86" fill="white"/>
</clipPath>
</defs>
</svg>
