<svg width="22" height="22" viewBox="0 0 22 22" fill="none" xmlns="http://www.w3.org/2000/svg">
<path d="M11.0006 21.0952C9.78071 21.0953 8.56116 20.7004 7.54249 19.9104C7.54138 19.9095 7.54022 19.9086 7.53905 19.9077C5.31566 18.1799 3.5517 16.3207 2.29605 14.382C0.772541 12.0294 0 9.56013 0 7.04271C0 3.65833 2.66009 0.904915 5.92973 0.904915C7.88586 0.891681 9.84602 1.88981 10.9828 3.49393C14.4262 -1.23632 21.9403 0.892798 22 7.05942C21.8858 12.9252 17.8373 17.284 14.4611 19.9077C13.4425 20.6993 12.2214 21.0951 11.0006 21.0952ZM8.59197 18.5492C8.59206 18.5492 8.59218 18.5494 8.59227 18.5494C10.0099 19.6512 11.9895 19.6517 13.4065 18.5506C16.4854 16.1578 20.1765 12.2181 20.2814 7.03454C20.2772 4.60155 18.3898 2.62368 16.0704 2.62368C13.6603 2.62368 11.8595 4.43852 11.8595 6.06121C11.8595 6.53584 11.4747 6.92059 11.0001 6.92059C10.5254 6.92059 10.1407 6.53584 10.1407 6.06121C10.1151 4.18277 7.79863 2.54496 5.92973 2.62372C3.60781 2.62368 1.71876 4.60606 1.71876 7.04271C1.71876 12.1374 5.456 16.1118 8.59197 18.5492ZM17.0989 9.80042C15.6742 9.80042 14.3814 10.8416 14.0248 12.2762C14.0187 12.3006 13.7249 14.1637 13.7249 14.1637C13.7124 14.1999 13.6859 14.2384 13.6021 14.2348C13.5029 14.231 13.4881 14.1751 13.4809 14.1342L12.7957 9.46427C12.7949 9.45877 12.794 9.45327 12.7931 9.44777C12.6467 8.56927 11.9232 7.9723 11.0323 7.99542C10.1569 8.0184 9.47361 8.632 9.35574 9.49375C9.35574 9.49375 8.70377 12.6553 8.70197 12.6661C8.6951 12.7074 8.6847 12.8033 8.57964 12.8074C8.47479 12.8123 8.45928 12.7167 8.44918 12.676C8.44252 12.6492 8.29643 12.2323 8.29643 12.2323C7.93257 10.8651 6.52503 9.80046 5.07031 9.80046C4.59567 9.80046 4.21093 10.1852 4.21093 10.6598C4.21093 11.1345 4.59567 11.5192 5.07031 11.5192C5.7512 11.5192 6.48459 12.0667 6.63971 12.6909C6.64637 12.7177 6.7932 13.1367 6.7932 13.1367C7.01569 13.9463 7.75678 14.4833 8.59377 14.4832C9.47241 14.4487 10.2415 13.8313 10.3941 12.9673C10.3941 12.9673 11.0596 9.71968 11.0605 9.71564C11.0707 9.71336 11.0841 9.71302 11.0944 9.71474C11.0951 9.71766 11.7834 14.4042 11.7843 14.4097C11.9299 15.2832 12.6759 15.9441 13.5782 15.9441C14.4376 15.9441 15.193 15.3864 15.4005 14.5516C15.4066 14.5272 15.7012 12.6583 15.7012 12.6583C15.8785 12.0066 16.4737 11.5192 17.0988 11.5192C18.2387 11.474 18.2385 9.84549 17.0989 9.80042Z" fill="#363636"/>
</svg>
