<svg width="22" height="22" viewBox="0 0 22 22" fill="none" xmlns="http://www.w3.org/2000/svg">
<path d="M0.859109 21.9989C0.748391 21.9989 0.63677 21.9776 0.530434 21.9335C0.209364 21.8005 0 21.4872 0 21.1396L0.000472605 11.1039C-0.0674536 1.2779 11.89 -3.71796 18.8174 3.24622C25.6711 10.2004 20.7228 22.0076 10.9478 21.9989C9.2163 21.999 7.56335 21.6106 6.0349 20.8447C4.57443 20.1127 2.80624 20.4079 1.63495 21.5792L1.46688 21.7473C1.3025 21.9116 1.08269 21.9989 0.859109 21.9989ZM4.35084 18.7273C5.18529 18.7273 6.02476 18.9173 6.8049 19.3082C8.09451 19.9546 9.4923 20.2818 10.9575 20.2804C19.1715 20.2925 23.3808 10.2588 17.5962 4.45544C11.7286 -1.41646 1.67646 2.78933 1.71899 11.0915C1.71899 11.0942 1.71903 11.097 1.71903 11.0998L1.71865 19.3948C2.5329 18.9545 3.43876 18.7273 4.35084 18.7273ZM8.42095 11.0002C8.42095 11.5934 7.94006 12.0743 7.34685 12.0743C5.92208 12.0177 5.92247 9.98242 7.34685 9.92605C7.94006 9.92605 8.42095 10.4069 8.42095 11.0002ZM11.0418 9.92605C10.4486 9.92605 9.96766 10.4069 9.96766 11.0002C10.0242 12.4249 12.0595 12.4245 12.1159 11.0002C12.1159 10.4069 11.635 9.92605 11.0418 9.92605ZM14.7367 9.92605C14.1435 9.92605 13.6626 10.4069 13.6626 11.0002C13.7192 12.4249 15.7544 12.4245 15.8108 11.0002C15.8108 10.4069 15.3299 9.92605 14.7367 9.92605Z" fill="#363636"/>
</svg>
