<svg width="96" height="86" viewBox="0 0 96 86" fill="none" xmlns="http://www.w3.org/2000/svg">
<g clip-path="url(#clip0)">
<mask id="mask0" style="mask-type:alpha" maskUnits="userSpaceOnUse" x="-14" y="-1" width="129" height="87">
<path d="M114.38 -0.860107H-13.7598V85.9999H114.38V-0.860107Z" fill="white"/>
</mask>
<g mask="url(#mask0)">
<path fill-rule="evenodd" clip-rule="evenodd" d="M48.0498 60.7326L38.774 63.218C39.8306 67.5739 41.0273 70.8653 42.3641 73.0923C44.3692 76.4328 47.9011 82.1665 49.6354 83.6539C51.3698 85.1414 55.1602 86.0779 57.292 83.5545C59.4238 81.0311 47.9368 70.218 47.9015 67.7043C47.8779 66.0285 48.1155 64.4067 48.6143 62.839L48.0498 60.7326Z" fill="#E9EAEC" stroke="#E9EAEC" stroke-width="1.1"/>
<path fill-rule="evenodd" clip-rule="evenodd" d="M23.7944 40.1578L18.7236 42.1005C18.0787 42.3475 17.621 42.9273 17.5318 43.6103C17.1841 46.2716 17.3003 48.6849 17.8805 50.8502C18.4618 53.0197 19.5844 55.2221 21.2484 57.4574L21.2484 57.4574C21.6682 58.0214 22.3696 58.3031 23.065 58.187L28.3873 57.2987L23.7944 40.1578Z" fill="#E9EAEC" stroke="#E9EAEC" stroke-width="1.1"/>
<path fill-rule="evenodd" clip-rule="evenodd" d="M37.4407 59.0398L52.3423 56.408C54.1192 56.0942 55.8141 57.2803 56.1279 59.0572C56.128 59.0578 56.1281 59.0584 56.1282 59.059C56.4413 60.8373 55.254 62.533 53.4758 62.847L38.5742 65.4788C36.7973 65.7926 35.1024 64.6065 34.7886 62.8296C34.7885 62.829 34.7884 62.8284 34.7883 62.8278C34.4752 61.0495 35.6625 59.3538 37.4407 59.0398Z" fill="#E9EAEC"/>
<path fill-rule="evenodd" clip-rule="evenodd" d="M85.064 62.2373L61.9255 58.2774L31.0166 63.1992C30.6446 63.2584 30.2735 63.0905 30.0736 62.7724C27.4092 58.5331 25.4968 53.9772 24.3364 49.1049C23.1736 44.2228 22.7594 39.1724 23.094 33.9538C23.1179 33.5813 23.3612 33.258 23.7135 33.1311L52.4154 22.7851L70.7653 7.72992C71.5513 6.5912 72.5735 5.81492 73.8574 5.47092C80.7443 3.62558 88.4808 16.009 92.7529 31.9529C97.0251 47.8967 95.3477 61.3528 89.2674 62.982C87.9004 63.3483 86.4851 63.07 85.064 62.2373Z" fill="#E9EAEC"/>
<path fill-rule="evenodd" clip-rule="evenodd" d="M42.3887 56.0553L33.1129 58.5408C34.1695 62.8966 35.3662 66.1881 36.703 68.4151C38.7081 71.7556 42.2399 77.4893 43.9743 78.9767C45.7086 80.4641 49.4991 81.4006 51.6309 78.8773C53.7627 76.3539 42.2757 65.5408 42.2404 63.027C42.2168 61.3512 42.4544 59.7295 42.9531 58.1618L42.3887 56.0553Z" fill="#fff" stroke="#B8BBC1" stroke-width="1.1"/>
<path fill-rule="evenodd" clip-rule="evenodd" d="M18.1333 35.4805L13.0625 37.4232C12.4175 37.6703 11.9599 38.25 11.8707 38.9331C11.5229 41.5944 11.6391 44.0077 12.2193 46.1729C12.8006 48.3425 13.9233 50.5449 15.5873 52.7801L15.5873 52.7801C16.0071 53.3441 16.7085 53.6258 17.4039 53.5098L22.7262 52.6215L18.1333 35.4805Z" fill="#E9EAEC"/>
<path fill-rule="evenodd" clip-rule="evenodd" d="M18.1333 35.4805L13.0602 37.421C12.4159 37.6674 11.9582 38.2459 11.8679 38.928C11.5174 41.5756 11.6306 43.9759 12.2076 46.129C12.4781 47.1386 12.7226 47.9625 12.9413 48.6009L12.9413 48.6009C13.2605 49.533 14.2496 50.0581 15.2044 49.8023L20.9386 48.2658L18.1333 35.4805Z" fill="#E9EAEC"/>
<path d="M11.4561 41.1377L15.8245 39.9672" stroke="white" stroke-width="2.2" stroke-linecap="round"/>
<path fill-rule="evenodd" clip-rule="evenodd" d="M18.1333 35.4805L13.0625 37.4232C12.4175 37.6703 11.9599 38.25 11.8707 38.9331C11.5229 41.5944 11.6391 44.0077 12.2193 46.1729C12.8006 48.3425 13.9233 50.5449 15.5873 52.7801L15.5873 52.7801C16.0071 53.3441 16.7085 53.6258 17.4039 53.5098L22.7262 52.6215L18.1333 35.4805Z" stroke="#B8BBC1" stroke-width="1.1"/>
<path d="M46.6818 51.733L31.7788 54.3608C30.0009 54.6743 28.8137 56.3698 29.1272 58.1477C29.4407 59.9257 31.1362 61.1128 32.9141 60.7993L47.8171 58.1716C49.5951 57.8581 50.7822 56.1626 50.4687 54.3846C50.1552 52.6067 48.4598 51.4195 46.6818 51.733Z" fill="#E9EAEC"/>
<path d="M46.7616 52.1945L31.8615 54.8218C30.3383 55.0904 29.3212 56.5429 29.5898 58.0661C29.8584 59.5893 31.3109 60.6064 32.8342 60.3378L47.7342 57.7105C49.2574 57.442 50.2745 55.9894 50.0059 54.4662C49.7373 52.943 48.2848 51.9259 46.7616 52.1945Z" stroke="#B8BBC1" stroke-width="1.1"/>
<path fill-rule="evenodd" clip-rule="evenodd" d="M79.4038 57.56L56.2653 53.6001L25.3564 58.5219C24.9844 58.5812 24.6133 58.4132 24.4134 58.0952C21.7491 53.8558 19.8367 49.3 18.6762 44.4276C17.5134 39.5455 17.0993 34.4952 17.4338 29.2766C17.4577 28.904 17.7011 28.5808 18.0533 28.4538L46.7552 18.1079L65.1051 3.05267C65.8911 1.91395 66.9134 1.13767 68.1972 0.793676C75.0841 -1.05167 82.8206 11.3318 87.0927 27.2756C91.3649 43.2195 89.6875 56.6755 83.6072 58.3047C82.2402 58.671 80.825 58.3927 79.4038 57.56Z" fill="#E9EAEC"/>
<path d="M74.4319 50.2938L51.6997 48.0826L25.4687 58.3369C25.0471 58.5017 24.568 58.3435 24.3291 57.9605L24.3291 57.9605C21.7087 53.7594 19.8244 49.2484 18.6762 44.4276C17.5134 39.5455 17.0993 34.4952 17.4338 29.2766C17.4577 28.904 17.7011 28.5808 18.0533 28.4538L46.7552 18.1079L64.8669 3.24817C65.6285 2.02397 66.7203 1.18942 68.1972 0.793676C75.0841 -1.05167 82.8206 11.3318 87.0927 27.2756C91.3649 43.2195 89.6875 56.6755 83.6072 58.3047C80.4851 59.1413 77.3357 55.8515 74.4319 50.2938ZM73.4198 48.2457C72.6465 47.6947 71.8877 45.8847 71.1433 42.8157C71.8773 44.7549 72.6381 46.5779 73.4198 48.2457Z" fill="#fff"/>
<mask id="mask1" style="mask-type:alpha" maskUnits="userSpaceOnUse" x="17" y="0" width="73" height="59">
<path d="M79.4038 57.56L56.2653 53.6001L25.3564 58.5219C24.9844 58.5812 24.6133 58.4132 24.4134 58.0952C21.7491 53.8558 19.8367 49.3 18.6762 44.4276C17.5134 39.5455 17.0993 34.4952 17.4338 29.2766C17.4577 28.904 17.7011 28.5808 18.0533 28.4538L46.7552 18.1079L65.1051 3.05267C65.8911 1.91395 66.9134 1.13767 68.1972 0.793676C75.0841 -1.05167 82.8206 11.3318 87.0927 27.2756C91.3649 43.2195 89.6875 56.6755 83.6072 58.3047C82.2402 58.671 80.825 58.3927 79.4038 57.56Z" fill="white"/>
</mask>
<g mask="url(#mask1)">
<path fill-rule="evenodd" clip-rule="evenodd" d="M46.5065 14.7788C44.9858 22.3132 45.1604 29.5695 47.0302 36.5479C48.9001 43.5264 52.3839 49.9234 57.4818 55.7392L23.1657 61.6193L13.3346 46.8689L13.5744 25.8239L46.5065 14.7788Z" fill="#E9EAEC"/>
</g>
<mask id="mask2" style="mask-type:alpha" maskUnits="userSpaceOnUse" x="17" y="0" width="73" height="59">
<path d="M79.4038 57.56L56.2653 53.6001L25.3564 58.5219C24.9844 58.5812 24.6133 58.4132 24.4134 58.0952C21.7491 53.8558 19.8367 49.3 18.6762 44.4276C17.5134 39.5455 17.0993 34.4952 17.4338 29.2766C17.4577 28.904 17.7011 28.5808 18.0533 28.4538L46.7552 18.1079L65.1051 3.05267C65.8911 1.91395 66.9134 1.13767 68.1972 0.793676C75.0841 -1.05167 82.8206 11.3318 87.0927 27.2756C91.3649 43.2195 89.6875 56.6755 83.6072 58.3047C82.2402 58.671 80.825 58.3927 79.4038 57.56Z" fill="white"/>
</mask>
<g mask="url(#mask2)">
<path fill-rule="evenodd" clip-rule="evenodd" d="M46.506 14.7789C44.9853 22.3133 45.1599 29.5696 47.0297 36.548C48.8996 43.5265 50.5784 47.333 52.0661 47.9675L19.3978 54.5536L15.1872 46.0094L13.5739 25.824L46.506 14.7789Z" fill="#E9EAEC"/>
</g>
<mask id="mask3" style="mask-type:alpha" maskUnits="userSpaceOnUse" x="17" y="0" width="73" height="59">
<path d="M79.4038 57.56L56.2653 53.6001L25.3564 58.5219C24.9844 58.5812 24.6133 58.4132 24.4134 58.0952C21.7491 53.8558 19.8367 49.3 18.6762 44.4276C17.5134 39.5455 17.0993 34.4952 17.4338 29.2766C17.4577 28.904 17.7011 28.5808 18.0533 28.4538L46.7552 18.1079L65.1051 3.05267C65.8911 1.91395 66.9134 1.13767 68.1972 0.793676C75.0841 -1.05167 82.8206 11.3318 87.0927 27.2756C91.3649 43.2195 89.6875 56.6755 83.6072 58.3047C82.2402 58.671 80.825 58.3927 79.4038 57.56Z" fill="white"/>
</mask>
<g mask="url(#mask3)">
<path fill-rule="evenodd" clip-rule="evenodd" d="M46.5065 14.7788C44.9858 22.3132 45.1604 29.5695 47.0302 36.5479C48.9001 43.5264 52.3839 49.9234 57.4818 55.7392L23.1657 61.6193L13.3346 46.8689L13.5744 25.8239L46.5065 14.7788Z" stroke="#B8BBC1" stroke-width="1.1"/>
</g>
<path fill-rule="evenodd" clip-rule="evenodd" d="M83.4401 57.6257C89.5382 55.9917 91.2683 42.6743 87.0463 26.9176C82.8243 11.161 75.1182 -1.06079 68.211 0.789976C61.3039 2.64074 61.892 16.7698 66.114 32.5264C70.3359 48.2831 77.342 59.2597 83.4401 57.6257Z" fill="#E9EAEC" stroke="#B8BBC1" stroke-width="1.1"/>
<path d="M20.5738 31.4424L39.2419 25.4734" stroke="white" stroke-width="2.2" stroke-linecap="round"/>
<path fill-rule="evenodd" clip-rule="evenodd" d="M79.2489 56.8996L56.1045 53.0606L25.1505 58.0336C24.7794 58.0933 24.4087 57.9267 24.2081 57.6101C21.5572 53.4268 19.6595 48.9282 18.5148 44.1142C17.3678 39.2904 16.9703 34.2976 17.3222 29.136C17.3475 28.7645 17.591 28.4429 17.9424 28.3167L46.706 17.9851L65.122 3.03128C65.9125 1.90225 66.9382 1.13094 68.2243 0.786348C75.1232 -1.06221 82.8244 11.1609 87.0463 26.9175C91.2683 42.6742 89.5442 55.99 83.4533 57.622C82.0839 57.989 80.6685 57.7185 79.2489 56.8996Z" stroke="#B8BBC1" stroke-width="1.1"/>
<path d="M31.4697 42.853C32.0037 44.846 34.0665 46.0249 36.0771 45.4862C38.0876 44.9475 39.2846 42.8951 38.7505 40.9021" stroke="#B8BBC1" stroke-width="2.2" stroke-linecap="round"/>
<path d="M9.10938 22.2843L12.6024 21.1138L10.3817 24.9522L13.7463 23.867" stroke="#E9EAEC" stroke-width="1.1" stroke-linecap="round" stroke-linejoin="round"/>
<path d="M14.7627 18.5484L18.2557 17.3779L16.035 21.2164L19.3996 20.1312" stroke="#E9EAEC" stroke-width="1.1" stroke-linecap="round" stroke-linejoin="round"/>
<path d="M30.6971 19.5898C31.1488 19.443 31.396 18.9578 31.2492 18.5061C31.1025 18.0544 30.6173 17.8072 30.1656 17.954C29.7138 18.1007 29.4666 18.5859 29.6134 19.0376C29.7602 19.4894 30.2454 19.7366 30.6971 19.5898Z" fill="#E9EAEC"/>
<path d="M33.3856 18.7163C33.8373 18.5695 34.0845 18.0843 33.9377 17.6326C33.7909 17.1809 33.3058 16.9337 32.854 17.0804C32.4023 17.2272 32.1551 17.7124 32.3019 18.1641C32.4487 18.6158 32.9338 18.863 33.3856 18.7163Z" fill="#E9EAEC"/>
<path d="M36.074 17.8427C36.5257 17.6959 36.773 17.2108 36.6262 16.7591C36.4794 16.3073 35.9942 16.0601 35.5425 16.2069C35.0908 16.3537 34.8436 16.8388 34.9904 17.2906C35.1371 17.7423 35.6223 17.9895 36.074 17.8427Z" fill="#E9EAEC"/>
<path d="M22.3008 18.5484L25.7938 17.3779L23.5731 21.2164L26.9377 20.1312" stroke="#E9EAEC" stroke-width="1.1" stroke-linecap="round" stroke-linejoin="round"/>
<path d="M0.629883 19.4823L4.12292 18.3118L1.90218 22.1502L5.26677 21.065" stroke="#B8BBC1" stroke-width="1.1" stroke-linecap="round" stroke-linejoin="round"/>
<path d="M6.2832 15.7464L9.77624 14.5759L7.5555 18.4144L10.9201 17.3292" stroke="#B8BBC1" stroke-width="1.1" stroke-linecap="round" stroke-linejoin="round"/>
<path d="M22.2176 16.7878C22.6693 16.641 22.9165 16.1558 22.7697 15.7041C22.623 15.2524 22.1378 15.0052 21.6861 15.152C21.2344 15.2987 20.9871 15.7839 21.1339 16.2356C21.2807 16.6874 21.7659 16.9346 22.2176 16.7878Z" fill="#B8BBC1"/>
<path d="M24.9061 15.9143C25.3578 15.7675 25.605 15.2823 25.4582 14.8306C25.3114 14.3789 24.8263 14.1317 24.3745 14.2784C23.9228 14.4252 23.6756 14.9104 23.8224 15.3621C23.9692 15.8138 24.4543 16.061 24.9061 15.9143Z" fill="#B8BBC1"/>
<path d="M27.5945 15.0407C28.0463 14.8939 28.2935 14.4088 28.1467 13.9571C27.9999 13.5053 27.5147 13.2581 27.063 13.4049C26.6113 13.5517 26.3641 14.0368 26.5109 14.4886C26.6576 14.9403 27.1428 15.1875 27.5945 15.0407Z" fill="#B8BBC1"/>
<path d="M13.8213 15.7464L17.3143 14.5759L15.0936 18.4144L18.4582 17.3292" stroke="#B8BBC1" stroke-width="1.1" stroke-linecap="round" stroke-linejoin="round"/>
<path d="M53.3779 36.5493C53.9119 38.5423 55.9747 39.7212 57.9853 39.1825C59.9958 38.6438 61.1928 36.5914 60.6587 34.5984" stroke="#E9EAEC" stroke-width="2.2" stroke-linecap="round"/>
<path d="M83.0487 53.8629C86.3158 52.9874 86.0964 41.5742 82.5585 28.3707C79.0206 15.1672 73.5041 5.17327 70.2369 6.04869C66.9698 6.92412 67.1893 18.3374 70.7272 31.5409C74.265 44.7444 79.7816 54.7383 83.0487 53.8629Z" fill="white" stroke="#B8BBC1" stroke-width="1.1"/>
<mask id="mask4" style="mask-type:alpha" maskUnits="userSpaceOnUse" x="67" y="5" width="19" height="49">
<path d="M83.0487 53.8629C86.3158 52.9874 86.0964 41.5742 82.5585 28.3707C79.0206 15.1672 73.5041 5.17327 70.2369 6.04869C66.9698 6.92412 67.1893 18.3374 70.7272 31.5409C74.265 44.7444 79.7816 54.7383 83.0487 53.8629Z" fill="white"/>
</mask>
<g mask="url(#mask4)">
<path fill-rule="evenodd" clip-rule="evenodd" d="M74.5277 22.0605L65.4148 22.4822L66.0398 31.2551L70.9401 39.65L77.958 34.8628L74.5277 22.0605Z" fill="#E9EAEC" stroke="#B8BBC1" stroke-width="1.1"/>
</g>
<mask id="mask5" style="mask-type:alpha" maskUnits="userSpaceOnUse" x="67" y="5" width="19" height="49">
<path d="M83.0487 53.8629C86.3158 52.9874 86.0964 41.5742 82.5585 28.3707C79.0206 15.1672 73.5041 5.17327 70.2369 6.04869C66.9698 6.92412 67.1893 18.3374 70.7272 31.5409C74.265 44.7444 79.7816 54.7383 83.0487 53.8629Z" fill="white"/>
</mask>
<g mask="url(#mask5)">
<path fill-rule="evenodd" clip-rule="evenodd" d="M78.7441 35.0272C80.2292 34.6293 80.6121 31.252 79.6472 27.651C78.6824 24.05 76.3977 21.1602 74.9126 21.5582C73.4276 21.9561 73.3091 25.4898 74.274 29.0908C75.2388 32.6917 77.2591 35.4251 78.7441 35.0272Z" fill="#B8BBC1"/>
</g>
<mask id="mask6" style="mask-type:alpha" maskUnits="userSpaceOnUse" x="67" y="5" width="19" height="49">
<path d="M83.0487 53.8629C86.3158 52.9874 86.0964 41.5742 82.5585 28.3707C79.0206 15.1672 73.5041 5.17327 70.2369 6.04869C66.9698 6.92412 67.1893 18.3374 70.7272 31.5409C74.265 44.7444 79.7816 54.7383 83.0487 53.8629Z" fill="white"/>
</mask>
<g mask="url(#mask6)">
<path d="M83.0487 53.8629C86.3158 52.9874 86.0964 41.5742 82.5585 28.3707C79.0206 15.1672 73.5041 5.17327 70.2369 6.04869C66.9698 6.92412 67.1893 18.3374 70.7272 31.5409C74.265 44.7444 79.7816 54.7383 83.0487 53.8629Z" stroke="#B8BBC1" stroke-width="1.1"/>
</g>
</g>
</g>
<defs>
<clipPath id="clip0">
<rect width="95.46" height="86" fill="white"/>
</clipPath>
</defs>
</svg>
