<svg width="116" height="36" viewBox="0 0 116 36" fill="none" xmlns="http://www.w3.org/2000/svg">
<path d="M1.89631 29H6.50923V19.9872H15.3835V16.1839H6.50923V10.9851H16.3423V7.18182H1.89631V29ZM25.5522 29.3196C30.5167 29.3196 33.6062 25.9212 33.6062 20.8821C33.6062 15.8111 30.5167 12.4233 25.5522 12.4233C20.5877 12.4233 17.4982 15.8111 17.4982 20.8821C17.4982 25.9212 20.5877 29.3196 25.5522 29.3196ZM25.5735 25.804C23.283 25.804 22.1112 23.7053 22.1112 20.8501C22.1112 17.995 23.283 15.8857 25.5735 15.8857C27.8214 15.8857 28.9933 17.995 28.9933 20.8501C28.9933 23.7053 27.8214 25.804 25.5735 25.804ZM36.5572 29H41.0955V19.7422C41.0955 17.7287 42.5657 16.3438 44.5685 16.3438C45.1971 16.3438 46.06 16.4503 46.4862 16.5888V12.5618C46.0813 12.4659 45.5167 12.402 45.0586 12.402C43.2262 12.402 41.7241 13.4673 41.1275 15.4915H40.957V12.6364H36.5572V29ZM58.4526 12.6364H55.2033V11.5391C55.2033 10.4311 55.6507 9.78125 56.9824 9.78125C57.5257 9.78125 58.0797 9.89844 58.4419 10.0156L59.2409 6.60653C58.6763 6.43608 57.4299 6.15909 56.0343 6.15909C52.9554 6.15909 50.665 7.8956 50.665 11.4538V12.6364H48.3532V16.0455H50.665V29H55.2033V16.0455H58.4526V12.6364ZM71.7188 22.0327C71.7294 24.2273 70.2273 25.3778 68.5973 25.3778C66.8821 25.3778 65.7741 24.174 65.7635 22.2457V12.6364H61.2251V23.0554C61.2358 26.88 63.473 29.2131 66.7649 29.2131C69.2259 29.2131 70.9943 27.9453 71.7294 26.0277H71.8999V29H76.2571V12.6364H71.7188V22.0327ZM84.4256 19.5398C84.4363 17.4304 85.6934 16.1946 87.5257 16.1946C89.3475 16.1946 90.4448 17.3878 90.4341 19.3906V29H94.9725V18.581C94.9725 14.767 92.7353 12.4233 89.3262 12.4233C86.8972 12.4233 85.1394 13.6165 84.4043 15.5234H84.2125V12.6364H79.8873V29H84.4256V19.5398ZM104.579 29.2663C107.221 29.2663 108.596 27.7429 109.224 26.3793H109.416V29H113.89V7.18182H109.363V15.3849H109.224C108.617 14.0533 107.306 12.4233 104.569 12.4233C100.978 12.4233 97.9421 15.2145 97.9421 20.8395C97.9421 26.3153 100.85 29.2663 104.579 29.2663ZM106.017 25.6548C103.791 25.6548 102.576 23.6733 102.576 20.8182C102.576 17.9844 103.77 16.0348 106.017 16.0348C108.223 16.0348 109.458 17.8991 109.458 20.8182C109.458 23.7372 108.201 25.6548 106.017 25.6548Z" fill="white"/>
<circle cx="69" cy="12" r="5.5" fill="#FCDD2E" stroke="#3B4BD6"/>
</svg>
