<?xml version="1.0" encoding="UTF-8" standalone="no"?>
<!DOCTYPE svg PUBLIC "-//W3C//DTD SVG 1.1//EN" "http://www.w3.org/Graphics/SVG/1.1/DTD/svg11.dtd">
<svg xmlns="http://www.w3.org/2000/svg" xmlns:xlink="http://www.w3.org/1999/xlink" version="1.1" width="71.9997pt" height="71.9997pt" viewBox="0 0 71.9997 71.9997">
<g enable-background="new">
<g id="Layer-1" data-name="Layer 1">
<path transform="matrix(1,0,0,-1,0,71.9997)" d="M 38.1359 54.5159 C 54.6358 80.564 93.9285 40.6817 38.1949 8.0461 C -20.0755 41.2727 23.6171 79.7644 38.1359 54.5159 Z " fill="#E9EAEC" fill-rule="evenodd"/>
<path transform="matrix(1,0,0,-1,0,71.9997)" stroke-width="1.1999" stroke-linecap="butt" stroke-miterlimit="22.925585" stroke-linejoin="miter" fill="none" stroke="#E9EAEC" d="M 38.1359 54.5159 C 54.6358 80.564 93.9285 40.6817 38.1949 8.0461 C -20.0755 41.2727 23.6171 79.7644 38.1359 54.5159 Z "/>
<path transform="matrix(1,0,0,-1,0,71.9997)" d="M 34.9308 54.7285 C 51.4304 80.7766 90.7231 40.8946 34.9897 8.2587 C -23.2809 41.4853 20.4117 79.9773 34.9308 54.7285 " fill="#fff" fill-rule="evenodd"/>
<clipPath id="cp0">
<path transform="matrix(1,0,0,-1,0,71.9997)" d="M 34.9308 54.7285 C 51.4304 80.7766 90.7231 40.8946 34.9897 8.2587 C -23.2809 41.4853 20.4117 79.9773 34.9308 54.7285 " fill-rule="evenodd"/>
</clipPath>
<g clip-path="url(#cp0)">
<path transform="matrix(1,0,0,-1,0,71.9997)" d="M 62.8024 39.2811 C 84.3656 73.3226 135.7163 21.2017 62.8795 -21.4486 C -13.2727 21.9742 43.8279 72.2778 62.8024 39.2811 Z " fill="#E9EAEC" fill-rule="evenodd"/>
<path transform="matrix(1,0,0,-1,0,71.9997)" stroke-width="1.1999" stroke-linecap="butt" stroke-miterlimit="22.925585" stroke-linejoin="miter" fill="none" stroke="#E9EAEC" d="M 62.8024 39.2811 C 84.3656 73.3226 135.7163 21.2017 62.8795 -21.4486 C -13.2727 21.9742 43.8279 72.2778 62.8024 39.2811 Z "/>
</g>
<path transform="matrix(1,0,0,-1,0,71.9997)" stroke-width="1.1999" stroke-linecap="butt" stroke-miterlimit="22.925585" stroke-linejoin="miter" fill="none" stroke="#B8BBC1" d="M 34.9308 54.7285 C 51.4304 80.7766 90.7231 40.8946 34.9897 8.2587 C -23.2809 41.4853 20.4117 79.9773 34.9308 54.7285 Z "/>
<path transform="matrix(1,0,0,-1,0,71.9997)" stroke-width="1.1999" stroke-linecap="butt" stroke-miterlimit="22.925585" stroke-linejoin="miter" fill="none" stroke="#B8BBC1" d="M 21.0617 42.0423 C 21.3619 35.6902 32.161 36.966 31.3245 42.9851 "/>
<path transform="matrix(1,0,0,-1,0,71.9997)" stroke-width="1.1999" stroke-linecap="butt" stroke-miterlimit="22.925585" stroke-linejoin="miter" fill="none" stroke="#B8BBC1" d="M 39.5955 42.3079 C 39.8957 35.9558 50.6948 37.2314 49.8583 43.2507 "/>
<path transform="matrix(1,0,0,-1,0,71.9997)" d="M 39.4923 21.3778 L 39.1717 21.8415 L 40.5173 25.7839 C 40.1805 25.6022 39.8812 25.4472 39.619 25.3191 L 37.6736 24.368 L 37.3558 24.8275 L 41.2713 26.7415 L 41.5298 26.367 L 40.3977 22.9646 L 40.1729 22.3254 C 40.5235 22.5255 40.8589 22.7038 41.178 22.8597 L 43.401 23.9465 L 43.7411 23.4544 Z " fill="#E9EAEC"/>
<path transform="matrix(1,0,0,-1,0,71.9997)" stroke-width="1.1999" stroke-linecap="butt" stroke-miterlimit="22.925585" stroke-linejoin="miter" fill="none" stroke="#E9EAEC" d="M 39.4923 21.3778 L 39.1717 21.8415 L 40.5173 25.7839 C 40.1805 25.6022 39.8812 25.4472 39.619 25.3191 L 37.6736 24.368 L 37.3558 24.8275 L 41.2713 26.7415 L 41.5298 26.367 L 40.3977 22.9646 L 40.1729 22.3254 C 40.5235 22.5255 40.8589 22.7038 41.178 22.8597 L 43.401 23.9465 L 43.7411 23.4544 Z "/>
<path transform="matrix(1,0,0,-1,0,71.9997)" d="M 44.3826 27.7597 L 44.062 28.2234 L 45.4076 32.1656 C 45.0709 31.9839 44.7715 31.8288 44.5093 31.7007 L 42.5639 30.75 L 42.2461 31.2094 L 46.1616 33.1231 L 46.4202 32.7489 L 45.288 29.3465 L 45.0632 28.707 C 45.4139 28.9071 45.7492 29.0854 46.0684 29.2416 L 48.2913 30.3282 L 48.6315 29.8363 Z " fill="#E9EAEC"/>
<path transform="matrix(1,0,0,-1,0,71.9997)" stroke-width="1.1999" stroke-linecap="butt" stroke-miterlimit="22.925585" stroke-linejoin="miter" fill="none" stroke="#E9EAEC" d="M 44.3826 27.7597 L 44.062 28.2234 L 45.4076 32.1656 C 45.0709 31.9839 44.7715 31.8288 44.5093 31.7007 L 42.5639 30.75 L 42.2461 31.2094 L 46.1616 33.1231 L 46.4202 32.7489 L 45.288 29.3465 L 45.0632 28.707 C 45.4139 28.9071 45.7492 29.0854 46.0684 29.2416 L 48.2913 30.3282 L 48.6315 29.8363 Z "/>
<path transform="matrix(1,0,0,-1,0,71.9997)" d="M 52.5713 26.549 L 52.2507 27.013 L 53.5961 30.9552 C 53.2596 30.7735 52.96 30.6184 52.6978 30.4903 L 50.7523 29.5393 L 50.4349 29.9991 L 54.3501 31.9127 L 54.6089 31.5386 L 53.4764 28.1361 L 53.2519 27.4966 C 53.6026 27.6968 53.9376 27.8751 54.2568 28.0312 L 56.48 29.1178 L 56.8199 28.626 Z " fill="#E9EAEC"/>
<path transform="matrix(1,0,0,-1,0,71.9997)" stroke-width="1.1999" stroke-linecap="butt" stroke-miterlimit="22.925585" stroke-linejoin="miter" fill="none" stroke="#E9EAEC" d="M 52.5713 26.549 L 52.2507 27.013 L 53.5961 30.9552 C 53.2596 30.7735 52.96 30.6184 52.6978 30.4903 L 50.7523 29.5393 L 50.4349 29.9991 L 54.3501 31.9127 L 54.6089 31.5386 L 53.4764 28.1361 L 53.2519 27.4966 C 53.6026 27.6968 53.9376 27.8751 54.2568 28.0312 L 56.48 29.1178 L 56.8199 28.626 Z "/>
<path transform="matrix(1,0,0,-1,0,71.9997)" d="M 59.5811 28.6228 L 59.1335 29.2703 L 60.0593 29.7227 L 60.5066 29.0755 Z M 62.1527 29.88 L 61.7054 30.5271 L 62.6309 30.9798 L 63.0782 30.3324 Z M 64.7243 31.1372 L 64.277 31.7843 L 65.2028 32.2367 L 65.6501 31.5896 Z " fill="#E9EAEC"/>
<path transform="matrix(1,0,0,-1,0,71.9997)" stroke-width="1.1999" stroke-linecap="butt" stroke-miterlimit="22.925585" stroke-linejoin="miter" fill="none" stroke="#E9EAEC" d="M 59.5811 28.6228 L 59.1335 29.2703 L 60.0593 29.7227 L 60.5066 29.0755 Z M 62.1527 29.88 L 61.7054 30.5271 L 62.6309 30.9798 L 63.0782 30.3324 Z M 64.7243 31.1372 L 64.277 31.7843 L 65.2028 32.2367 L 65.6501 31.5896 Z "/>
<path transform="matrix(1,0,0,-1,0,71.9997)" d="M 38.4043 20.6107 L 38.0744 21.0951 L 39.5019 25.1833 C 39.1507 24.9968 38.8383 24.8377 38.5648 24.7065 L 36.5357 23.7325 L 36.2089 24.2124 L 40.2928 26.1731 L 40.559 25.782 L 39.3568 22.2537 L 39.1187 21.5906 C 39.4846 21.7962 39.8341 21.979 40.1672 22.1389 L 42.486 23.252 L 42.8357 22.7381 Z " fill="#B8BBC1"/>
<path transform="matrix(1,0,0,-1,0,71.9997)" stroke-width="1.1999" stroke-linecap="butt" stroke-miterlimit="22.925585" stroke-linejoin="miter" fill="none" stroke="#B8BBC1" d="M 38.4043 20.6107 L 38.0744 21.0951 L 39.5019 25.1833 C 39.1507 24.9968 38.8383 24.8377 38.5648 24.7065 L 36.5357 23.7325 L 36.2089 24.2124 L 40.2928 26.1731 L 40.559 25.782 L 39.3568 22.2537 L 39.1187 21.5906 C 39.4846 21.7962 39.8341 21.979 40.1672 22.1389 L 42.486 23.252 L 42.8357 22.7381 Z "/>
<path transform="matrix(1,0,0,-1,0,71.9997)" d="M 43.5345 27.2083 L 43.2045 27.6928 L 44.6321 31.7809 C 44.2809 31.5944 43.9685 31.4354 43.6949 31.3041 L 41.6659 30.3301 L 41.3391 30.81 L 45.4229 32.7705 L 45.6891 32.3796 L 44.4872 28.8513 L 44.2488 28.1883 C 44.6148 28.3938 44.9643 28.5766 45.2976 28.7365 L 47.6161 29.8497 L 47.9659 29.3357 Z " fill="#B8BBC1"/>
<path transform="matrix(1,0,0,-1,0,71.9997)" stroke-width="1.1999" stroke-linecap="butt" stroke-miterlimit="22.925585" stroke-linejoin="miter" fill="none" stroke="#B8BBC1" d="M 43.5345 27.2083 L 43.2045 27.6928 L 44.6321 31.7809 C 44.2809 31.5944 43.9685 31.4354 43.6949 31.3041 L 41.6659 30.3301 L 41.3391 30.81 L 45.4229 32.7705 L 45.6891 32.3796 L 44.4872 28.8513 L 44.2488 28.1883 C 44.6148 28.3938 44.9643 28.5766 45.2976 28.7365 L 47.6161 29.8497 L 47.9659 29.3357 Z "/>
<path transform="matrix(1,0,0,-1,0,71.9997)" d="M 52.037 25.89 L 51.7071 26.3744 L 53.1346 30.4622 C 52.7834 30.2757 52.471 30.117 52.1974 29.9857 L 50.1684 29.0115 L 49.8416 29.4917 L 53.9254 31.4521 L 54.1916 31.0609 L 52.9894 27.5326 L 52.7513 26.8696 C 53.1173 27.0751 53.4668 27.258 53.7999 27.4178 L 56.1186 28.531 L 56.4684 28.0171 Z " fill="#B8BBC1"/>
<path transform="matrix(1,0,0,-1,0,71.9997)" stroke-width="1.1999" stroke-linecap="butt" stroke-miterlimit="22.925585" stroke-linejoin="miter" fill="none" stroke="#B8BBC1" d="M 52.037 25.89 L 51.7071 26.3744 L 53.1346 30.4622 C 52.7834 30.2757 52.471 30.117 52.1974 29.9857 L 50.1684 29.0115 L 49.8416 29.4917 L 53.9254 31.4521 L 54.1916 31.0609 L 52.9894 27.5326 L 52.7513 26.8696 C 53.1173 27.0751 53.4668 27.258 53.7999 27.4178 L 56.1186 28.531 L 56.4684 28.0171 Z "/>
<path transform="matrix(1,0,0,-1,0,71.9997)" d="M 59.3385 27.9938 L 58.8781 28.6699 L 59.8436 29.1334 L 60.304 28.4573 Z M 62.0206 29.2813 L 61.5606 29.9577 L 62.526 30.4211 L 62.9861 29.7451 Z M 64.7031 30.5691 L 64.2427 31.2452 L 65.2082 31.7086 L 65.6685 31.0326 Z " fill="#B8BBC1"/>
<path transform="matrix(1,0,0,-1,0,71.9997)" stroke-width="1.1999" stroke-linecap="butt" stroke-miterlimit="22.925585" stroke-linejoin="miter" fill="none" stroke="#B8BBC1" d="M 59.3385 27.9938 L 58.8781 28.6699 L 59.8436 29.1334 L 60.304 28.4573 Z M 62.0206 29.2813 L 61.5606 29.9577 L 62.526 30.4211 L 62.9861 29.7451 Z M 64.7031 30.5691 L 64.2427 31.2452 L 65.2082 31.7086 L 65.6685 31.0326 Z "/>
</g>
</g>
</svg>
