<?xml version="1.0" encoding="UTF-8"?>
<svg xmlns="http://www.w3.org/2000/svg" xmlns:xlink="http://www.w3.org/1999/xlink" width="71.9997pt" height="71.9997pt" viewBox="0 0 71.9997 71.9997" version="1.1">
<g id="surface1">
<path style="fill-rule:evenodd;fill:rgb(100%,100%,100%);fill-opacity:1;stroke-width:0.5664;stroke-linecap:butt;stroke-linejoin:miter;stroke:rgb(72.157288%,73.33374%,75.686646%);stroke-opacity:1;stroke-miterlimit:22.925586;" d="M 43.949219 62.136419 C 52.910156 62.136419 60.171875 54.605169 60.171875 45.320013 C 60.171875 36.03095 52.910156 28.503606 43.949219 28.503606 C 34.992188 28.503606 27.726563 36.03095 27.726563 45.320013 C 27.726563 54.605169 34.992188 62.136419 43.949219 62.136419 Z M 43.949219 62.136419 " transform="matrix(1,0,0,-1,0,71.9997)"/>
<path style=" stroke:none;fill-rule:evenodd;fill:rgb(90.196228%,90.196228%,90.196228%);fill-opacity:1;" d="M 49.175781 6.699219 C 59.953125 6.699219 68.6875 15.753906 68.6875 26.921875 C 68.6875 38.089844 59.953125 47.144531 49.175781 47.144531 C 44.179688 47.144531 39.621094 45.195313 36.175781 41.988281 C 26.945313 51.132813 17.714844 60.277344 8.480469 69.421875 C 6.78125 69.351563 5.300781 67.851563 5.03125 66.238281 L 33.929688 39.617188 L 34.335938 40.046875 C 31.425781 36.515625 29.667969 31.929688 29.667969 26.921875 C 29.667969 15.753906 38.402344 6.699219 49.175781 6.699219 "/>
<path style="fill-rule:evenodd;fill:rgb(91.372681%,91.764832%,92.549133%);fill-opacity:1;stroke-width:0.5664;stroke-linecap:butt;stroke-linejoin:miter;stroke:rgb(72.157288%,73.33374%,75.686646%);stroke-opacity:1;stroke-miterlimit:22.925586;" d="M 31.269531 34.765325 L 7.242188 12.6247 L 10.109375 9.980169 L 33.136719 32.792669 Z M 31.269531 34.765325 " transform="matrix(1,0,0,-1,0,71.9997)"/>
<path style="fill:none;stroke-width:3.8401;stroke-linecap:butt;stroke-linejoin:miter;stroke:rgb(72.157288%,73.33374%,75.686646%);stroke-opacity:1;stroke-miterlimit:22.925586;" d="M 43.949219 62.136419 C 52.910156 62.136419 60.171875 54.605169 60.171875 45.320013 C 60.171875 36.03095 52.910156 28.503606 43.949219 28.503606 C 39.792969 28.503606 36.003906 30.1247 33.136719 32.792669 L 10.109375 9.980169 C 8.296875 10.339544 7.316406 11.081731 7.242188 12.6247 L 31.269531 34.765325 L 31.605469 34.40595 C 29.1875 37.34345 27.726563 41.15595 27.726563 45.320013 C 27.726563 54.605169 34.992188 62.136419 43.949219 62.136419 Z M 43.949219 62.136419 " transform="matrix(1,0,0,-1,0,71.9997)"/>
<path style="fill-rule:evenodd;fill:rgb(100%,100%,100%);fill-opacity:1;stroke-width:0.5669;stroke-linecap:butt;stroke-linejoin:miter;stroke:rgb(100%,100%,100%);stroke-opacity:1;stroke-miterlimit:22.925586;" d="M 40.292969 57.101263 C 44.667969 57.101263 48.214844 53.370794 48.214844 48.765325 C 48.214844 44.159856 44.667969 40.425481 40.292969 40.425481 C 35.921875 40.425481 32.375 44.159856 32.375 48.765325 C 32.375 53.370794 35.921875 57.101263 40.292969 57.101263 Z M 40.292969 57.101263 " transform="matrix(1,0,0,-1,0,71.9997)"/>
</g>
</svg>
