<?xml version="1.0" encoding="UTF-8"?>
<svg xmlns="http://www.w3.org/2000/svg" xmlns:xlink="http://www.w3.org/1999/xlink" width="71.9997pt" height="71.9997pt" viewBox="0 0 71.9997 71.9997" version="1.1">
<defs>
<clipPath id="clip1">
  <path d="M 32 31 L 57 31 L 57 62 L 32 62 Z M 32 31 "/>
</clipPath>
<clipPath id="clip2">
  <path d="M 24.230469 10.839844 L 56.605469 10.839844 L 56.605469 55.378906 C 56.605469 58.757813 53.84375 61.523438 50.464844 61.523438 L 13.320313 61.523438 L 13.320313 21.75 C 13.320313 15.75 18.230469 10.839844 24.230469 10.839844 "/>
</clipPath>
<clipPath id="clip3">
  <path d="M 13 10 L 57 10 L 57 62 L 13 62 Z M 13 10 "/>
</clipPath>
<clipPath id="clip4">
  <path d="M 24.230469 10.839844 L 56.605469 10.839844 L 56.605469 55.378906 C 56.605469 58.757813 53.84375 61.523438 50.464844 61.523438 L 13.320313 61.523438 L 13.320313 21.75 C 13.320313 15.75 18.230469 10.839844 24.230469 10.839844 "/>
</clipPath>
<clipPath id="clip5">
  <path d="M 22 50 L 45 50 L 45 55 L 22 55 Z M 22 50 "/>
</clipPath>
<clipPath id="clip6">
  <path d="M 24.417969 46.460938 L 42.253906 46.460938 C 43.417969 46.460938 44.367188 47.410156 44.367188 48.574219 L 44.367188 52.460938 C 44.367188 53.625 43.417969 54.574219 42.253906 54.574219 L 24.417969 54.574219 C 23.253906 54.574219 22.304688 53.625 22.304688 52.460938 L 22.304688 48.574219 C 22.304688 47.410156 23.253906 46.460938 24.417969 46.460938 "/>
</clipPath>
<clipPath id="clip7">
  <path d="M 22 46 L 45 46 L 45 55 L 22 55 Z M 22 46 "/>
</clipPath>
<clipPath id="clip8">
  <path d="M 24.417969 46.460938 L 42.253906 46.460938 C 43.417969 46.460938 44.367188 47.410156 44.367188 48.574219 L 44.367188 52.460938 C 44.367188 53.625 43.417969 54.574219 42.253906 54.574219 L 24.417969 54.574219 C 23.253906 54.574219 22.304688 53.625 22.304688 52.460938 L 22.304688 48.574219 C 22.304688 47.410156 23.253906 46.460938 24.417969 46.460938 "/>
</clipPath>
</defs>
<g id="surface1">
<path style="fill-rule:evenodd;fill:rgb(91.372681%,91.764832%,92.549133%);fill-opacity:1;stroke-width:1.1999;stroke-linecap:butt;stroke-linejoin:miter;stroke:rgb(91.372681%,91.764832%,92.549133%);stroke-opacity:1;stroke-miterlimit:22.925586;" d="M 27.132813 64.991888 L 59.09375 64.991888 L 59.09375 13.902044 C 59.09375 10.566106 56.363281 7.835638 53.027344 7.835638 L 16.359375 7.835638 L 16.359375 54.21845 C 16.359375 60.144231 21.207031 64.991888 27.132813 64.991888 Z M 27.132813 64.991888 " transform="matrix(1,0,0,-1,0,71.9997)"/>
<path style=" stroke:none;fill-rule:evenodd;fill:rgb(100%,100%,100%);fill-opacity:1;" d="M 24.230469 10.839844 L 56.605469 10.839844 L 56.605469 55.378906 C 56.605469 58.757813 53.84375 61.523438 50.464844 61.523438 L 13.320313 61.523438 L 13.320313 21.75 C 13.320313 15.75 18.230469 10.839844 24.230469 10.839844 "/>
<g clip-path="url(#clip1)" clip-rule="nonzero">
<g clip-path="url(#clip2)" clip-rule="evenodd">
<path style=" stroke:none;fill-rule:evenodd;fill:rgb(72.157288%,73.33374%,75.686646%);fill-opacity:1;" d="M 43.542969 31.753906 L 75.917969 31.753906 L 75.917969 80.386719 C 75.917969 83.769531 73.152344 86.53125 69.773438 86.53125 L 32.628906 86.53125 L 32.628906 42.664063 C 32.628906 36.664063 37.539063 31.753906 43.542969 31.753906 Z M 43.542969 31.753906 "/>
</g>
</g>
<g clip-path="url(#clip3)" clip-rule="nonzero">
<g clip-path="url(#clip4)" clip-rule="evenodd">
<path style="fill:none;stroke-width:1.1999;stroke-linecap:butt;stroke-linejoin:miter;stroke:rgb(72.157288%,73.33374%,75.686646%);stroke-opacity:1;stroke-miterlimit:22.925586;" d="M 43.542969 40.245794 L 75.917969 40.245794 L 75.917969 -8.387019 C 75.917969 -11.769831 73.152344 -14.53155 69.773438 -14.53155 L 32.628906 -14.53155 L 32.628906 29.335638 C 32.628906 35.335638 37.539063 40.245794 43.542969 40.245794 Z M 43.542969 40.245794 " transform="matrix(1,0,0,-1,0,71.9997)"/>
</g>
</g>
<path style="fill:none;stroke-width:1.1999;stroke-linecap:butt;stroke-linejoin:miter;stroke:rgb(72.157288%,73.33374%,75.686646%);stroke-opacity:1;stroke-miterlimit:22.925586;" d="M 24.230469 61.159856 L 56.605469 61.159856 L 56.605469 16.620794 C 56.605469 13.241888 53.84375 10.476263 50.464844 10.476263 L 13.320313 10.476263 L 13.320313 50.2497 C 13.320313 56.2497 18.230469 61.159856 24.230469 61.159856 Z M 24.230469 61.159856 " transform="matrix(1,0,0,-1,0,71.9997)"/>
<g clip-path="url(#clip5)" clip-rule="nonzero">
<g clip-path="url(#clip6)" clip-rule="evenodd">
<path style=" stroke:none;fill-rule:evenodd;fill:rgb(72.157288%,73.33374%,75.686646%);fill-opacity:1;" d="M 24.417969 50.519531 L 42.253906 50.519531 C 43.417969 50.519531 44.367188 51.46875 44.367188 52.632813 L 44.367188 56.519531 C 44.367188 57.683594 43.417969 58.632813 42.253906 58.632813 L 24.417969 58.632813 C 23.253906 58.632813 22.304688 57.683594 22.304688 56.519531 L 22.304688 52.632813 C 22.304688 51.46875 23.253906 50.519531 24.417969 50.519531 Z M 24.417969 50.519531 "/>
</g>
</g>
<g clip-path="url(#clip7)" clip-rule="nonzero">
<g clip-path="url(#clip8)" clip-rule="evenodd">
<path style="fill:none;stroke-width:0.5664;stroke-linecap:butt;stroke-linejoin:miter;stroke:rgb(91.372681%,91.764832%,92.549133%);stroke-opacity:1;stroke-miterlimit:22.925586;" d="M 24.417969 21.480169 L 42.253906 21.480169 C 43.417969 21.480169 44.367188 20.53095 44.367188 19.366888 L 44.367188 15.480169 C 44.367188 14.316106 43.417969 13.366888 42.253906 13.366888 L 24.417969 13.366888 C 23.253906 13.366888 22.304688 14.316106 22.304688 15.480169 L 22.304688 19.366888 C 22.304688 20.53095 23.253906 21.480169 24.417969 21.480169 Z M 24.417969 21.480169 " transform="matrix(1,0,0,-1,0,71.9997)"/>
</g>
</g>
<path style="fill:none;stroke-width:0.5664;stroke-linecap:butt;stroke-linejoin:miter;stroke:rgb(91.372681%,91.764832%,92.549133%);stroke-opacity:1;stroke-miterlimit:22.925586;" d="M 24.417969 25.538763 L 42.253906 25.538763 C 43.417969 25.538763 44.367188 24.589544 44.367188 23.425481 L 44.367188 19.538763 C 44.367188 18.3747 43.417969 17.425481 42.253906 17.425481 L 24.417969 17.425481 C 23.253906 17.425481 22.304688 18.3747 22.304688 19.538763 L 22.304688 23.425481 C 22.304688 24.589544 23.253906 25.538763 24.417969 25.538763 Z M 24.417969 25.538763 " transform="matrix(1,0,0,-1,0,71.9997)"/>
<path style="fill:none;stroke-width:0.5664;stroke-linecap:butt;stroke-linejoin:miter;stroke:rgb(91.372681%,91.764832%,92.549133%);stroke-opacity:1;stroke-miterlimit:22.925586;" d="M 21.46875 36.152044 C 47.628906 36.152044 47.628906 36.152044 47.628906 36.152044 " transform="matrix(1,0,0,-1,0,71.9997)"/>
<path style="fill:none;stroke-width:0.5664;stroke-linecap:butt;stroke-linejoin:miter;stroke:rgb(91.372681%,91.764832%,92.549133%);stroke-opacity:1;stroke-miterlimit:22.925586;" d="M 20.984375 34.128606 C 40.800781 34.128606 40.800781 34.128606 40.800781 34.128606 " transform="matrix(1,0,0,-1,0,71.9997)"/>
<path style="fill:none;stroke-width:0.5664;stroke-linecap:butt;stroke-linejoin:miter;stroke:rgb(91.372681%,91.764832%,92.549133%);stroke-opacity:1;stroke-miterlimit:22.925586;" d="M 25.210938 31.7497 C 45.125 31.7497 45.125 31.7497 45.125 31.7497 " transform="matrix(1,0,0,-1,0,71.9997)"/>
<path style="fill-rule:nonzero;fill:rgb(91.372681%,91.764832%,92.549133%);fill-opacity:1;stroke-width:1.1999;stroke-linecap:butt;stroke-linejoin:miter;stroke:rgb(91.372681%,91.764832%,92.549133%);stroke-opacity:1;stroke-miterlimit:22.925586;" d="M 22.742188 47.339544 L 22.320313 47.952825 L 24.09375 53.148138 C 23.648438 52.909856 23.253906 52.706731 22.910156 52.534856 L 20.34375 51.28095 L 19.925781 51.886419 L 25.085938 54.409856 L 25.429688 53.917669 L 23.9375 49.433294 L 23.640625 48.589544 C 24.101563 48.851263 24.542969 49.089544 24.964844 49.292669 L 27.894531 50.726263 L 28.34375 50.077825 Z M 22.742188 47.339544 " transform="matrix(1,0,0,-1,0,71.9997)"/>
<path style="fill-rule:nonzero;fill:rgb(91.372681%,91.764832%,92.549133%);fill-opacity:1;stroke-width:1.1999;stroke-linecap:butt;stroke-linejoin:miter;stroke:rgb(91.372681%,91.764832%,92.549133%);stroke-opacity:1;stroke-miterlimit:22.925586;" d="M 29.191406 55.753606 L 28.765625 56.366888 L 30.539063 61.5622 C 30.097656 61.323919 29.703125 61.116888 29.355469 60.948919 L 26.792969 59.695013 L 26.375 60.300481 L 31.535156 62.823919 L 31.875 62.331731 L 30.382813 57.847356 L 30.085938 57.003606 C 30.550781 57.265325 30.992188 57.4997 31.414063 57.706731 L 34.34375 59.140325 L 34.792969 58.491888 Z M 29.191406 55.753606 " transform="matrix(1,0,0,-1,0,71.9997)"/>
<path style="fill-rule:nonzero;fill:rgb(91.372681%,91.764832%,92.549133%);fill-opacity:1;stroke-width:1.1999;stroke-linecap:butt;stroke-linejoin:miter;stroke:rgb(91.372681%,91.764832%,92.549133%);stroke-opacity:1;stroke-miterlimit:22.925586;" d="M 39.984375 54.15595 L 39.5625 54.769231 L 41.335938 59.96845 C 40.894531 59.726263 40.496094 59.523138 40.152344 59.355169 L 37.585938 58.101263 L 37.167969 58.706731 L 42.332031 61.230169 L 42.671875 60.734075 L 41.179688 56.2497 L 40.882813 55.40595 C 41.34375 55.671575 41.785156 55.90595 42.207031 56.112981 L 45.140625 57.542669 L 45.585938 56.894231 Z M 39.984375 54.15595 " transform="matrix(1,0,0,-1,0,71.9997)"/>
<path style="fill-rule:nonzero;fill:rgb(91.372681%,91.764832%,92.549133%);fill-opacity:1;stroke-width:1.1999;stroke-linecap:butt;stroke-linejoin:miter;stroke:rgb(91.372681%,91.764832%,92.549133%);stroke-opacity:1;stroke-miterlimit:22.925586;" d="M 49.226563 56.890325 L 48.636719 57.745794 L 49.859375 58.34345 L 50.449219 57.487981 Z M 52.617188 58.550481 L 52.027344 59.402044 L 53.25 59.9997 L 53.839844 59.144231 Z M 56.007813 60.206731 L 55.417969 61.058294 L 56.640625 61.65595 L 57.230469 60.804388 Z M 56.007813 60.206731 " transform="matrix(1,0,0,-1,0,71.9997)"/>
<path style="fill-rule:nonzero;fill:rgb(72.157288%,73.33374%,75.686646%);fill-opacity:1;stroke-width:1.1999;stroke-linecap:butt;stroke-linejoin:miter;stroke:rgb(72.157288%,73.33374%,75.686646%);stroke-opacity:1;stroke-miterlimit:22.925586;" d="M 21.945313 47.90595 L 21.527344 48.519231 L 23.335938 53.702825 C 22.890625 53.46845 22.496094 53.265325 22.148438 53.101263 L 19.574219 51.862981 L 19.160156 52.472356 L 24.339844 54.960638 L 24.675781 54.464544 L 23.152344 49.987981 L 22.851563 49.148138 C 23.3125 49.409856 23.757813 49.640325 24.179688 49.84345 L 27.121094 51.253606 L 27.5625 50.601263 Z M 21.945313 47.90595 " transform="matrix(1,0,0,-1,0,71.9997)"/>
<path style="fill-rule:nonzero;fill:rgb(72.157288%,73.33374%,75.686646%);fill-opacity:1;stroke-width:1.1999;stroke-linecap:butt;stroke-linejoin:miter;stroke:rgb(72.157288%,73.33374%,75.686646%);stroke-opacity:1;stroke-miterlimit:22.925586;" d="M 28.449219 56.273138 L 28.03125 56.886419 L 29.84375 62.070013 C 29.398438 61.835638 29 61.632513 28.65625 61.46845 L 26.082031 60.230169 L 25.667969 60.839544 L 30.847656 63.327825 L 31.183594 62.831731 L 29.660156 58.355169 L 29.355469 57.515325 C 29.820313 57.777044 30.265625 58.007513 30.6875 58.210638 L 33.628906 59.620794 L 34.070313 58.972356 Z M 28.449219 56.273138 " transform="matrix(1,0,0,-1,0,71.9997)"/>
<path style="fill-rule:nonzero;fill:rgb(72.157288%,73.33374%,75.686646%);fill-opacity:1;stroke-width:1.1999;stroke-linecap:butt;stroke-linejoin:miter;stroke:rgb(72.157288%,73.33374%,75.686646%);stroke-opacity:1;stroke-miterlimit:22.925586;" d="M 39.234375 54.601263 L 38.816406 55.214544 L 40.625 60.398138 C 40.179688 60.163763 39.785156 59.960638 39.4375 59.796575 L 36.863281 58.558294 L 36.449219 59.167669 L 41.628906 61.65595 L 41.96875 61.159856 L 40.441406 56.683294 L 40.140625 55.84345 C 40.605469 56.105169 41.046875 56.335638 41.46875 56.538763 L 44.410156 57.948919 L 44.855469 57.296575 Z M 39.234375 54.601263 " transform="matrix(1,0,0,-1,0,71.9997)"/>
<path style="fill-rule:nonzero;fill:rgb(72.157288%,73.33374%,75.686646%);fill-opacity:1;stroke-width:1.1999;stroke-linecap:butt;stroke-linejoin:miter;stroke:rgb(72.157288%,73.33374%,75.686646%);stroke-opacity:1;stroke-miterlimit:22.925586;" d="M 48.496094 57.269231 L 47.910156 58.1247 L 49.136719 58.714544 L 49.71875 57.855169 Z M 51.898438 58.902044 L 51.3125 59.757513 L 52.539063 60.347356 L 53.121094 59.487981 Z M 55.300781 60.534856 L 54.714844 61.394231 L 55.941406 61.980169 L 56.523438 61.1247 Z M 55.300781 60.534856 " transform="matrix(1,0,0,-1,0,71.9997)"/>
<path style="fill:none;stroke-width:1.1999;stroke-linecap:butt;stroke-linejoin:miter;stroke:rgb(72.157288%,73.33374%,75.686646%);stroke-opacity:1;stroke-miterlimit:22.925586;" d="M 23.757813 45.952825 C 23.6875 41.773138 30.824219 42.15595 30.53125 46.136419 " transform="matrix(1,0,0,-1,0,71.9997)"/>
<path style="fill:none;stroke-width:1.1999;stroke-linecap:butt;stroke-linejoin:miter;stroke:rgb(72.157288%,73.33374%,75.686646%);stroke-opacity:1;stroke-miterlimit:22.925586;" d="M 38.640625 45.898138 C 38.570313 41.71845 45.707031 42.097356 45.414063 46.081731 " transform="matrix(1,0,0,-1,0,71.9997)"/>
</g>
</svg>
