<svg width="22" height="22" viewBox="0 0 22 22" fill="none" xmlns="http://www.w3.org/2000/svg">
<g clip-path="url(#clip0)">
<path d="M14.19 14.6084C13.8132 14.6084 13.4344 14.518 13.0839 14.3351L11.2654 13.3856C11.0723 13.2848 10.8419 13.2848 10.6488 13.3856L8.83022 14.335C8.0205 14.7578 7.05918 14.6861 6.3216 14.148C5.58977 13.614 5.23061 12.7292 5.38439 11.8388L5.73174 9.82778C5.76774 9.6193 5.69775 9.40627 5.54457 9.25798L4.07327 7.83374C3.42085 7.20224 3.18891 6.27435 3.46786 5.41212C3.74814 4.54576 4.4843 3.92647 5.38903 3.79593L7.42226 3.50251C7.6371 3.47149 7.82237 3.33842 7.91772 3.14644L8.82704 1.31674C9.23068 0.504569 10.0469 0 10.957 0C11.8672 0 12.6834 0.504569 13.087 1.31674L13.9964 3.14639C14.0917 3.33837 14.277 3.47149 14.4918 3.50251L16.525 3.79593C17.4298 3.92651 18.1659 4.54581 18.4462 5.41212C18.7252 6.27431 18.4932 7.20224 17.8408 7.83374L16.3695 9.25794C16.2163 9.40627 16.1463 9.6193 16.1823 9.82782L16.5297 11.8388C16.6835 12.7292 16.3243 13.614 15.5925 14.1479C15.1742 14.4532 14.6838 14.6084 14.19 14.6084ZM10.9571 11.5914C11.3362 11.5914 11.7152 11.6816 12.0608 11.862L13.8794 12.8115C14.2103 12.9842 14.4793 12.8327 14.5796 12.7595C14.677 12.6884 14.8972 12.4848 14.8362 12.1313L14.4888 10.1203C14.356 9.35101 14.6123 8.56702 15.1743 8.02301L16.6455 6.5988C16.9055 6.3471 16.8479 6.05505 16.8111 5.94118C16.7736 5.82525 16.6467 5.54996 16.2797 5.49698L14.2465 5.20356C13.4728 5.09193 12.804 4.6088 12.4573 3.91126L11.548 2.08161C11.3852 1.75403 11.0806 1.71866 10.9571 1.71866C10.8337 1.71866 10.529 1.75403 10.3662 2.08161L9.4569 3.9113C9.11028 4.6088 8.44145 5.09193 7.66777 5.20356L5.63454 5.49698C5.26751 5.54996 5.14067 5.82525 5.10316 5.94118C5.06634 6.05505 5.00872 6.3471 5.26872 6.5988L6.73997 8.02301C7.30199 8.56698 7.55825 9.35101 7.42544 10.1202L7.07809 12.1313C7.01703 12.4848 7.2372 12.6884 7.33469 12.7595C7.43498 12.8326 7.70404 12.9842 8.03489 12.8114L9.85345 11.862C10.1989 11.6817 10.578 11.5914 10.9571 11.5914ZM9.59663 1.69924H9.59706H9.59663ZM7.53376 21.9994C7.23677 21.9994 6.93823 21.9282 6.66199 21.784L5.4457 21.1489C5.39904 21.1247 5.34348 21.1247 5.29682 21.1489L4.08053 21.784C3.44233 22.1172 2.68464 22.0606 2.10329 21.6365C1.52576 21.2151 1.24243 20.5166 1.36382 19.8137L1.5961 18.4688C1.60414 18.4222 1.58815 18.3743 1.55343 18.3406L0.569474 17.3882C0.0545494 16.8897 -0.128536 16.1572 0.0917164 15.4765C0.312828 14.793 0.893364 14.3044 1.60676 14.2015L2.96655 14.0053C3.00067 14.0003 3.03259 13.9844 3.05636 13.9604C3.39004 13.6229 3.93406 13.6197 4.27165 13.9533C4.60916 14.287 4.61234 14.8311 4.27866 15.1686C3.99327 15.4573 3.61451 15.6483 3.21207 15.7064L1.85223 15.9026C1.82838 15.906 1.75581 15.9165 1.72698 16.0055C1.69961 16.0901 1.74876 16.1376 1.76488 16.1533L2.74884 17.1057C3.19239 17.5351 3.3946 18.154 3.28976 18.7613L3.05747 20.1062C3.05374 20.1279 3.04231 20.194 3.11634 20.248C3.16962 20.2869 3.22642 20.291 3.28516 20.2604L4.50144 19.6254C5.0461 19.3411 5.69646 19.3411 6.24112 19.6254L7.4574 20.2605C7.5161 20.291 7.5729 20.2869 7.62622 20.2481C7.70026 20.1941 7.68883 20.128 7.68509 20.1063L7.45281 18.7614C7.34797 18.154 7.55017 17.5351 7.99373 17.1058L8.97769 16.1533C9.31863 15.8232 9.86278 15.832 10.1928 16.1731C10.5229 16.5141 10.5141 17.0581 10.173 17.3882L9.18909 18.3407C9.15433 18.3743 9.13839 18.4223 9.14642 18.4689L9.3787 19.8138C9.50009 20.5167 9.21676 21.2151 8.63923 21.6365C8.30945 21.877 7.92292 21.9994 7.53376 21.9994ZM19.8967 21.6364C20.4742 21.215 20.7576 20.5166 20.6362 19.8137L20.4039 18.4688C20.3959 18.4222 20.4119 18.3742 20.4466 18.3406L21.4305 17.3881C21.9455 16.8897 22.1285 16.1572 21.9083 15.4764C21.6872 14.7929 21.1066 14.3044 20.3932 14.2015L19.0335 14.0052C18.9993 14.0003 18.9674 13.9843 18.9436 13.9603C18.61 13.6228 18.0659 13.6196 17.7283 13.9533C17.3908 14.2869 17.3877 14.831 17.7213 15.1686C18.0067 15.4572 18.3855 15.6482 18.788 15.7063L20.1478 15.9025C20.1716 15.906 20.2442 15.9165 20.273 16.0055C20.3004 16.0901 20.2512 16.1376 20.2351 16.1532L19.2512 17.1057C18.8076 17.5351 18.6054 18.1539 18.7102 18.7613L18.9425 20.1062C18.9463 20.1279 18.9577 20.194 18.8837 20.248C18.8304 20.2868 18.7735 20.291 18.7148 20.2604L17.4986 19.6254C16.9539 19.341 16.3035 19.341 15.7589 19.6254L14.5426 20.2603C14.4839 20.291 14.4271 20.2869 14.3738 20.248C14.2997 20.1939 14.3112 20.1279 14.3149 20.1062L14.5472 18.7612C14.652 18.1539 14.4498 17.535 14.0063 17.1056L13.0223 16.1532C12.6813 15.8231 12.1372 15.8319 11.8072 16.1729C11.4771 16.5139 11.4859 17.058 11.827 17.3881L12.8109 18.3405C12.8457 18.3742 12.8616 18.4221 12.8536 18.4687L12.6213 19.8136C12.4999 20.5165 12.7832 21.215 13.3608 21.6364C13.9421 22.0606 14.6998 22.1171 15.338 21.7839L16.5543 21.1489C16.601 21.1246 16.6565 21.1246 16.7032 21.1489L17.9195 21.7839C18.1957 21.9281 18.4942 21.9993 18.7912 21.9993C19.1804 21.9994 19.567 21.877 19.8967 21.6364Z" fill="#363636"/>
</g>
<defs>
<clipPath id="clip0">
<rect width="22" height="22" fill="white"/>
</clipPath>
</defs>
</svg>
