<svg width="22" height="22" viewBox="0 0 22 22" fill="none" xmlns="http://www.w3.org/2000/svg">
<g clip-path="url(#clip0)">
<path d="M10.9981 22C9.57565 22 8.41841 20.8428 8.41841 19.4203V19.3988C8.41841 19.0926 8.23271 18.8219 7.94529 18.709C7.15814 18.4 6.42439 17.9727 5.76425 17.439C5.52107 17.2424 5.19186 17.213 4.9256 17.3642C4.92474 17.3647 4.92143 17.3666 4.92057 17.367C3.68176 18.0652 2.10329 17.6283 1.40209 16.3934C1.06209 15.7946 0.976139 15.0996 1.16011 14.4364C1.34447 13.7718 1.77743 13.2191 2.37927 12.88L2.38998 12.8739C2.6513 12.7255 2.79955 12.4308 2.75896 12.1406C2.64954 11.3599 2.6519 10.5547 2.76623 9.77473C2.80939 9.47966 2.65844 9.17925 2.39058 9.02714L2.37652 9.01914C1.77743 8.68159 1.34447 8.12889 1.16011 7.46436C0.976139 6.80112 1.06209 6.10611 1.40209 5.50733C2.10333 4.27234 3.6818 3.83569 4.92057 4.53367L4.97229 4.56303C5.23662 4.71317 5.56544 4.68419 5.81013 4.48925C6.45754 3.97349 7.17482 3.55906 7.94211 3.25745C8.23142 3.14369 8.41836 2.87243 8.41836 2.56635C8.56016 -0.856246 13.4367 -0.854656 13.5777 2.56635V2.58364C13.5777 2.88804 13.7632 3.15874 14.0503 3.27332C14.8092 3.57613 15.5186 3.98952 16.1587 4.50198C16.4039 4.69829 16.7332 4.72809 16.9976 4.57795L17.073 4.53513C18.3144 3.83569 19.8928 4.27243 20.5941 5.50737C20.9341 6.10611 21.02 6.80112 20.836 7.46436C20.6517 8.12889 20.2187 8.68159 19.6168 9.02069L19.5579 9.05418C19.2953 9.20333 19.1469 9.49797 19.1888 9.78737C19.3002 10.5557 19.3029 11.3487 19.1975 12.1179C19.1576 12.4086 19.3058 12.7033 19.5662 12.8512L19.6182 12.8807C20.2193 13.2199 20.6518 13.7723 20.836 14.4363C21.4537 16.6316 19.0567 18.4899 17.0756 17.367L17.0456 17.3501C16.7785 17.1984 16.4475 17.2292 16.202 17.4284C15.5497 17.9578 14.8248 18.3833 14.0473 18.6931C13.7621 18.8068 13.5778 19.077 13.5778 19.3815V19.4203C13.5778 20.8428 12.4205 22 10.9981 22ZM5.28963 15.5465C5.84177 15.5465 6.39073 15.734 6.8454 16.1015C7.36886 16.5247 7.95036 16.8634 8.57387 17.1082C9.52419 17.4814 10.1382 18.3805 10.1382 19.3988V19.4203C10.1856 20.5614 11.811 20.5605 11.858 19.4203V19.3815C11.858 18.3687 12.4674 17.4714 13.4106 17.0955C14.0265 16.8501 14.6011 16.5128 15.1183 16.0931C15.9176 15.4443 17.0074 15.3506 17.8946 15.8544L17.9221 15.87C18.3354 16.1028 18.8641 15.9573 19.0986 15.5442C19.2112 15.3458 19.2397 15.1156 19.1788 14.8961C19.1176 14.6753 18.9733 14.4914 18.7726 14.3784C18.7717 14.3779 18.7709 14.3774 18.77 14.3769L18.7169 14.3467C17.8373 13.8472 17.3571 12.8807 17.4936 11.8845C17.5772 11.2743 17.5751 10.6433 17.4867 10.0337C17.3443 9.04941 17.8353 8.05481 18.7086 7.55882L18.7701 7.52391C18.9734 7.40937 19.1176 7.22553 19.1789 7.0047C19.2398 6.78517 19.2113 6.55502 19.0986 6.35664C18.8641 5.94355 18.3352 5.7981 17.9198 6.03208L17.847 6.07348C16.9665 6.57342 15.8821 6.48356 15.084 5.84462C14.5764 5.43828 14.0143 5.11061 13.4131 4.8707C12.4684 4.49377 11.858 3.59608 11.858 2.58372V2.5664C11.8108 1.42574 10.1854 1.42579 10.1382 2.5664C10.1382 3.58434 9.5232 4.48388 8.57142 4.85802C7.96361 5.09694 7.39522 5.42546 6.88186 5.83439C6.08465 6.46955 5.00183 6.55756 4.12323 6.0586L4.07404 6.0307C3.66095 5.79797 3.13224 5.94351 2.89766 6.35656C2.78501 6.55498 2.75651 6.78513 2.81739 7.00466C2.87866 7.22544 3.02291 7.40933 3.2236 7.5224L3.24024 7.53182C4.11953 8.03121 4.61307 9.03268 4.468 10.0237C4.37733 10.6424 4.37543 11.283 4.46228 11.9022C4.60185 12.8998 4.12189 13.8682 3.23947 14.3693L3.22623 14.3768C3.02295 14.4914 2.8787 14.6752 2.81743 14.8961C2.75651 15.1156 2.78501 15.3457 2.89766 15.5441C3.13215 15.9571 3.6609 16.1027 4.07645 15.8687C4.45661 15.6528 4.874 15.5465 5.28963 15.5465ZM10.9981 15.5078C8.50882 15.5078 6.48364 13.4826 6.48364 10.9934C6.73163 5.00433 15.2655 5.00609 15.5125 10.9934C15.5125 13.4826 13.4874 15.5078 10.9981 15.5078ZM10.9981 8.19871C9.45712 8.19871 8.20343 9.4524 8.20343 10.9934C8.35697 14.7009 13.6398 14.6998 13.7928 10.9934C13.7928 9.45235 12.5391 8.19871 10.9981 8.19871Z" fill="#363636"/>
</g>
<defs>
<clipPath id="clip0">
<rect width="22" height="22" fill="white"/>
</clipPath>
</defs>
</svg>
