<?xml version="1.0" encoding="UTF-8" standalone="no"?>
<svg
   xmlns:dc="http://purl.org/dc/elements/1.1/"
   xmlns:cc="http://creativecommons.org/ns#"
   xmlns:rdf="http://www.w3.org/1999/02/22-rdf-syntax-ns#"
   xmlns:svg="http://www.w3.org/2000/svg"
   xmlns="http://www.w3.org/2000/svg"
   viewBox="0 0 95.999603 95.999603"
   height="95.999603"
   width="95.999603"
   xml:space="preserve"
   id="svg2"
   version="1.1"><metadata
     id="metadata8"><rdf:RDF><cc:Work
         rdf:about=""><dc:format>image/svg+xml</dc:format><dc:type
           rdf:resource="http://purl.org/dc/dcmitype/StillImage" /></cc:Work></rdf:RDF></metadata><defs
     id="defs6"><clipPath
       id="clipPath22"
       clipPathUnits="userSpaceOnUse"><path
         style="clip-rule:evenodd"
         id="path20"
         d="m 18.0074,51.7836 c -0.3493,-2.9038 1.4592,-6.1262 5.2937,-4.2092 0.5777,-0.1238 1.1557,-0.2477 1.7334,-0.3716 1.4298,-4.0864 3.5183,-2.8037 7.3051,-1.8573 3.2675,-2.2354 4.5272,-2.4794 7.1813,0.743 8.081,-3.2326 11.1234,1.3677 10.2345,4.9581 0.1964,1.0321 1.5792,2.677 1.7756,3.7091 -0.4484,3.869 -6.9718,7.6068 -11.0211,6.6203 -2.8803,2.2255 -6.6708,3.8401 -9.4085,0.1897 -6.6132,-0.4011 -7.0256,-0.3535 -8.5433,-5.0766 -1.6852,-0.8989 -4.4016,-2.4942 -4.5507,-4.7055 z m -0.0193,-1.2317 c -19.965,-16.234 -5.025,-16.4471 0.5196,-10.3495 0,-13.1398 2.9662,-26.4912 17.3673,-30.6057 13.9362,4.1805 16.5971,18.4938 16.0574,31.1675 16.558,-11.0395 11.4996,1.6832 -0.1239,10.4003 l -1.6273,0.9298 c -0.205,-0.3819 -0.3677,-0.7416 -0.4258,-1.0477 0.8889,-3.5904 -2.1535,-8.1907 -10.2345,-4.9581 -2.6541,-3.2224 -3.9138,-2.9784 -7.1813,-0.743 -3.7868,-0.9464 -5.8753,-2.2291 -7.3051,1.8573 -0.5777,0.1239 -1.1557,0.2478 -1.7334,0.3716 -3.2939,-1.6469 -5.0928,0.4992 -5.313,2.9775" /></clipPath></defs><g
     transform="matrix(1.3333333,0,0,-1.3333333,0,95.9996)"
     id="g10"><path
       id="path12"
       style="fill:#E9EAEC;fill-opacity:1;fill-rule:evenodd;stroke:#E9EAEC;stroke-width:0.56639999;stroke-linecap:butt;stroke-linejoin:miter;stroke-miterlimit:22.92558479;stroke-dasharray:none;stroke-opacity:1"
       d="m 20.5872,53.5564 c -0.3742,-3.1116 1.5639,-6.5651 5.673,-4.5108 0.619,-0.1327 1.2384,-0.2656 1.8575,-0.398 1.5324,-4.3792 3.7706,-3.0047 7.8284,-1.9905 3.5017,-2.3955 4.8518,-2.6572 7.6958,0.7963 8.6601,-3.4642 11.9206,1.4655 10.9678,5.3132 0.2104,1.1061 1.6926,2.8687 1.9029,3.9748 -0.8932,3.1887 -8.2377,8.7616 -11.8105,7.0948 -3.087,2.3848 -7.149,4.1151 -10.0826,0.2033 -7.0869,-0.4301 -7.5291,-0.379 -9.1556,-5.4406 -1.8059,-0.9632 -4.7168,-2.6728 -4.8767,-5.0425 z M 20.5668,52.2366 C -0.8289,34.8395 15.1818,34.611 21.1235,41.1454 21.1235,27.0643 24.302,12.7562 39.7349,8.3472 54.6695,12.8271 57.5212,28.1659 56.9426,41.7475 74.687,29.9171 69.2663,43.5515 56.81,52.8928 l -1.7439,0.9964 c -0.2197,-0.4091 -0.3943,-0.7946 -0.4564,-1.1226 0.9528,-3.8477 -2.3077,-8.7774 -10.9678,-5.3132 -2.844,-3.4535 -4.1941,-3.1918 -7.6958,-0.7963 -4.0578,-1.0142 -6.296,-2.3887 -7.8284,1.9905 -0.6191,0.1324 -1.2385,0.2653 -1.8575,0.398 -3.5297,-1.7648 -5.4576,0.5352 -5.6934,3.191 z" /><path
       id="path14"
       style="fill:#B8BBC1;fill-opacity:1;fill-rule:evenodd;stroke:none"
       d="m 18.0074,51.7836 c -0.3493,-2.9038 1.4592,-6.1262 5.2937,-4.2092 0.5777,-0.1238 1.1557,-0.2477 1.7334,-0.3716 1.4298,-4.0864 3.5183,-2.8037 7.3051,-1.8573 3.2675,-2.2354 4.5272,-2.4794 7.1813,0.743 8.081,-3.2326 11.1234,1.3677 10.2345,4.9581 0.1964,1.0321 1.5792,2.677 1.7756,3.7091 -0.4484,3.869 -6.9718,7.6068 -11.0211,6.6203 -2.8803,2.2255 -6.6708,3.8401 -9.4085,0.1897 -6.6132,-0.4011 -7.0256,-0.3535 -8.5433,-5.0766 -1.6852,-0.8989 -4.4016,-2.4942 -4.5507,-4.7055 z m -0.0193,-1.2317 c -19.965,-16.234 -5.025,-16.4471 0.5196,-10.3495 0,-13.1398 2.9662,-26.4912 17.3673,-30.6057 13.9362,4.1805 16.5971,18.4938 16.0574,31.1675 16.558,-11.0395 11.4996,1.6832 -0.1239,10.4003 l -1.6273,0.9298 c -0.205,-0.3819 -0.3677,-0.7416 -0.4258,-1.0477 0.8889,-3.5904 -2.1535,-8.1907 -10.2345,-4.9581 -2.6541,-3.2224 -3.9138,-2.9784 -7.1813,-0.743 -3.7868,-0.9464 -5.8753,-2.2291 -7.3051,1.8573 -0.5777,0.1239 -1.1557,0.2478 -1.7334,0.3716 -3.2939,-1.6469 -5.0928,0.4992 -5.313,2.9775" /><g
       id="g16"><g
         clip-path="url(#clipPath22)"
         id="g18"><g
           id="g24"><path
             id="path26"
             style="fill:#E9EAEC;fill-opacity:1;fill-rule:evenodd;stroke:#E9EAEC;stroke-width:0.56639999;stroke-linecap:butt;stroke-linejoin:miter;stroke-miterlimit:22.92558479;stroke-dasharray:none;stroke-opacity:1"
             d="m 23.3484,19.3564 c -0.3492,-2.9038 1.4593,-6.1263 5.2937,-4.2092 0.5777,-0.1239 1.1557,-0.2477 1.7334,-0.3716 1.4298,-4.0864 3.5184,-2.8038 7.3052,-1.8573 3.2675,-2.2354 4.5272,-2.4794 7.1813,0.743 8.081,-3.2326 11.1234,1.3677 10.2344,4.9581 0.1965,1.0321 1.5792,2.677 1.7757,3.7091 -1.4607,5.2149 -2.2884,1.4769 -6.6861,6.3145 -2.8262,0.6054 -1.7501,1.5117 -4.335,0.3058 -2.8803,2.2255 -6.6708,3.8401 -9.4085,0.1897 C 29.8293,28.7374 29.4168,28.785 27.8991,24.0619 26.214,23.163 23.4975,21.5677 23.3484,19.3564 Z M 23.3291,18.1247 C 3.3642,1.8907 18.3042,1.6775 23.8487,7.7751 23.8487,-5.3646 26.8149,-18.716 41.216,-22.8305 55.1523,-18.65 57.8132,-4.3367 57.2734,8.337 73.8315,-2.7026 68.773,10.0202 57.1496,18.7373 l -1.6274,0.9298 c -0.2049,-0.3819 -0.3676,-0.7416 -0.4258,-1.0477 0.889,-3.5904 -2.1534,-8.1907 -10.2344,-4.9581 -2.6541,-3.2224 -3.9138,-2.9784 -7.1813,-0.743 -3.7868,-0.9465 -5.8754,-2.2291 -7.3052,1.8573 -0.5777,0.1239 -1.1557,0.2477 -1.7334,0.3716 -3.2938,-1.6469 -5.0927,0.4992 -5.313,2.9775 z" /></g></g></g><path
       id="path28"
       style="fill:none;stroke:#fff;stroke-width:1.19990003;stroke-linecap:butt;stroke-linejoin:miter;stroke-miterlimit:22.92558479;stroke-dasharray:none;stroke-opacity:1"
       d="m 18.0074,51.7836 c -0.3493,-2.9038 1.4592,-6.1262 5.2937,-4.2092 0.5777,-0.1238 1.1557,-0.2477 1.7334,-0.3716 1.4298,-4.0864 3.5183,-2.8037 7.3051,-1.8573 3.2675,-2.2354 4.5272,-2.4794 7.1813,0.743 8.081,-3.2326 11.1234,1.3677 10.2345,4.9581 0.1964,1.0321 1.5792,2.677 1.7756,3.7091 -0.4484,3.869 -6.9718,7.6068 -11.0211,6.6203 -2.8803,2.2255 -6.6708,3.8401 -9.4085,0.1897 -6.6132,-0.4011 -7.0256,-0.3535 -8.5433,-5.0766 -1.6852,-0.8989 -4.4016,-2.4942 -4.5507,-4.7055 z m -0.0193,-1.2317 c -19.965,-16.234 -5.025,-16.4471 0.5196,-10.3495 0,-13.1398 2.9662,-26.4912 17.3673,-30.6057 13.9362,4.1805 16.5971,18.4938 16.0574,31.1675 16.558,-11.0395 11.4996,1.6832 -0.1239,10.4003 l -1.6273,0.9298 c -0.205,-0.3819 -0.3677,-0.7416 -0.4258,-1.0477 0.8889,-3.5904 -2.1535,-8.1907 -10.2345,-4.9581 -2.6541,-3.2224 -3.9138,-2.9784 -7.1813,-0.743 -3.7868,-0.9464 -5.8753,-2.2291 -7.3051,1.8573 -0.5777,0.1239 -1.1557,0.2478 -1.7334,0.3716 -3.2939,-1.6469 -5.0928,0.4992 -5.313,2.9775 z" /><path
       id="path30"
       style="fill:none;stroke:#fff;stroke-width:1.19990003;stroke-linecap:butt;stroke-linejoin:miter;stroke-miterlimit:22.92558479;stroke-dasharray:none;stroke-opacity:1"
       d="m 25.2663,32.3065 c -0.0646,3.7958 6.4182,3.4494 6.1504,-0.1687" /><path
       id="path32"
       style="fill:none;stroke:#fff;stroke-width:1.19990003;stroke-linecap:butt;stroke-linejoin:miter;stroke-miterlimit:22.92558479;stroke-dasharray:none;stroke-opacity:1"
       d="m 39.7902,31.926 c -0.0643,3.7959 6.4182,3.4495 6.1503,-0.1686" /><g
       id="g34"><path
         id="path36"
         style="fill:#E9EAEC;fill-opacity:1;fill-rule:nonzero;stroke:#E9EAEC;stroke-width:1.19990003;stroke-linecap:butt;stroke-linejoin:miter;stroke-miterlimit:22.92558479;stroke-dasharray:none;stroke-opacity:1"
         d="m 41.9221,19.3578 -0.2644,0.3824 1.1089,3.2493 c -0.2772,-0.1499 -0.5241,-0.2778 -0.7404,-0.3832 l -1.6033,-0.7838 -0.2619,0.3787 3.2272,1.5775 0.2132,-0.3087 -0.9332,-2.8043 -0.1854,-0.527 c 0.2892,0.165 0.5653,0.3119 0.8286,0.4405 l 1.8323,0.8958 0.2801,-0.4056 z" /><path
         id="path38"
         style="fill:#E9EAEC;fill-opacity:1;fill-rule:nonzero;stroke:#E9EAEC;stroke-width:1.19990003;stroke-linecap:butt;stroke-linejoin:miter;stroke-miterlimit:22.92558479;stroke-dasharray:none;stroke-opacity:1"
         d="m 45.9527,24.6178 -0.2642,0.3824 1.1089,3.2493 C 46.5199,28.0996 46.273,27.972 46.057,27.8663 l -1.6035,-0.7838 -0.2617,0.3787 3.2273,1.5775 0.2132,-0.3087 -0.9335,-2.8043 -0.1851,-0.527 c 0.2891,0.165 0.5652,0.3121 0.8283,0.4405 l 1.8323,0.8958 0.2803,-0.4054 z" /><path
         id="path40"
         style="fill:#E9EAEC;fill-opacity:1;fill-rule:nonzero;stroke:#E9EAEC;stroke-width:1.19990003;stroke-linecap:butt;stroke-linejoin:miter;stroke-miterlimit:22.92558479;stroke-dasharray:none;stroke-opacity:1"
         d="m 52.702,23.6203 -0.2642,0.3823 1.1089,3.2491 C 53.2692,27.102 53.0223,26.9742 52.8063,26.8685 l -1.6035,-0.7838 -0.2619,0.379 3.2272,1.5772 0.2132,-0.3084 -0.9332,-2.8043 -0.1851,-0.527 c 0.2888,0.165 0.5652,0.3118 0.8283,0.4405 l 1.8323,0.8957 0.2803,-0.4056 z" /><path
         id="path42"
         style="fill:#E9EAEC;fill-opacity:1;fill-rule:nonzero;stroke:#E9EAEC;stroke-width:1.19990003;stroke-linecap:butt;stroke-linejoin:miter;stroke-miterlimit:22.92558479;stroke-dasharray:none;stroke-opacity:1"
         d="m 58.4796,25.3295 -0.3688,0.5335 0.7631,0.3728 0.3685,-0.5335 z m 2.1197,1.0361 -0.3687,0.5335 0.7628,0.373 0.3687,-0.5337 z m 2.1195,1.0361 -0.3685,0.5334 0.7628,0.3728 0.3688,-0.5335 z" /></g><g
       id="g44"><path
         id="path46"
         style="fill:#B8BBC1;fill-opacity:1;fill-rule:nonzero;stroke:#B8BBC1;stroke-width:1.19990003;stroke-linecap:butt;stroke-linejoin:miter;stroke-miterlimit:22.92558479;stroke-dasharray:none;stroke-opacity:1"
         d="m 39.9963,20.0565 -0.2617,0.3844 1.1319,3.2414 c -0.2783,-0.1479 -0.5261,-0.2738 -0.7429,-0.3781 l -1.609,-0.7725 -0.2591,0.3807 3.238,1.5546 0.2112,-0.3099 -0.9533,-2.7978 -0.1888,-0.5258 c 0.2903,0.163 0.5675,0.3079 0.8314,0.4348 l 1.8386,0.8825 0.2775,-0.4074 z" /><path
         id="path48"
         style="fill:#B8BBC1;fill-opacity:1;fill-rule:nonzero;stroke:#B8BBC1;stroke-width:1.19990003;stroke-linecap:butt;stroke-linejoin:miter;stroke-miterlimit:22.92558479;stroke-dasharray:none;stroke-opacity:1"
         d="m 44.064,25.2882 -0.2614,0.3841 1.1319,3.2414 c -0.2786,-0.148 -0.5264,-0.2739 -0.7432,-0.3779 l -1.609,-0.7724 -0.2591,0.3807 3.2383,1.5545 0.2109,-0.3101 -0.953,-2.7978 -0.189,-0.5258 c 0.2902,0.1632 0.5675,0.3081 0.8316,0.4348 l 1.8386,0.8827 0.2772,-0.4076 z" /><path
         id="path50"
         style="fill:#B8BBC1;fill-opacity:1;fill-rule:nonzero;stroke:#B8BBC1;stroke-width:1.19990003;stroke-linecap:butt;stroke-linejoin:miter;stroke-miterlimit:22.92558479;stroke-dasharray:none;stroke-opacity:1"
         d="m 50.8059,24.2425 -0.2616,0.3843 1.1319,3.2415 c -0.2784,-0.148 -0.5262,-0.2739 -0.743,-0.3782 l -1.6089,-0.7721 -0.2591,0.3804 3.238,1.5545 0.2112,-0.3101 -0.9533,-2.7975 -0.1888,-0.5259 c 0.2903,0.163 0.5675,0.3079 0.8314,0.4349 l 1.8385,0.8824 0.2775,-0.4073 z" /><path
         id="path52"
         style="fill:#B8BBC1;fill-opacity:1;fill-rule:nonzero;stroke:#B8BBC1;stroke-width:1.19990003;stroke-linecap:butt;stroke-linejoin:miter;stroke-miterlimit:22.92558479;stroke-dasharray:none;stroke-opacity:1"
         d="m 56.5954,25.9109 -0.3651,0.5361 0.7656,0.3673 0.3649,-0.536 z m 2.1268,1.0211 -0.3648,0.536 0.7654,0.3674 0.3651,-0.5361 z m 2.1269,1.0207 -0.3648,0.5363 0.7656,0.3674 0.3648,-0.536 z" /></g><path
       id="path54"
       style="fill:none;stroke:#B8BBC1;stroke-width:0.56639999;stroke-linecap:butt;stroke-linejoin:miter;stroke-miterlimit:22.92558479;stroke-dasharray:none;stroke-opacity:1"
       d="m 35.4787,24.302 0.1874,-5.2501 -5.0624,-3.3749 5.0624,3.3749 5.25,-3.1875" /></g></svg>