<svg width="22" height="22" viewBox="0 0 22 22" fill="none" xmlns="http://www.w3.org/2000/svg">
<g clip-path="url(#clip0)">
<path d="M21.0988 10.953C19.7474 9.9654 18.8246 8.65408 18.5374 8.21593C18.4363 7.75913 17.93 7.45216 17.469 7.59258L17.4689 7.59202L17.4737 7.59069C17.3901 7.61333 15.4125 8.12625 14.1722 6.5545C13.9737 6.30296 13.6519 6.18273 13.3372 6.24254C13.0224 6.30236 12.7671 6.53224 12.6747 6.83899C12.5441 7.27268 11.6833 7.73133 11 7.73133C10.3167 7.73133 9.45592 7.27268 9.32529 6.83899C9.23291 6.53224 8.97759 6.30231 8.66284 6.24254C8.3481 6.18269 8.02626 6.303 7.82779 6.5545C6.5991 8.11169 4.64651 7.62262 4.52912 7.59142C4.26976 7.51532 3.99446 7.56706 3.77777 7.72888C3.61479 7.85061 3.50479 8.02549 3.46006 8.2198C3.16989 8.66181 2.24855 9.96836 0.90127 10.9529C-0.344652 11.8369 -0.278824 13.7932 1.03095 14.5829C1.77482 15.0453 2.58938 15.3269 3.45963 15.4254C3.51755 16.8073 3.71418 18.3207 4.31973 19.5131C5.15672 21.1612 6.63816 21.997 8.7227 21.997C9.57357 21.997 10.4098 21.6175 10.9999 21.0119C10.9963 21.0081 10.9927 21.0043 11 21.0118C11.0073 21.0042 11.0038 21.0081 11.0002 21.0119C11.5903 21.6175 12.4266 21.997 13.2774 21.997C15.362 21.997 16.8434 21.1613 17.6804 19.5131C18.2859 18.3207 18.4825 16.8073 18.5405 15.4254C19.4107 15.3269 20.2253 15.0453 20.9691 14.5829C22.2791 13.7931 22.3444 11.8366 21.0988 10.953ZM3.4375 13.6893C2.90241 13.6019 2.4072 13.4147 1.93815 13.1232C1.75562 13.0097 1.72257 12.8375 1.71909 12.745C1.71626 12.6686 1.72962 12.4764 1.91533 12.3407C2.49721 11.9155 3.0073 11.4454 3.4375 10.9939V13.6893ZM16.8438 14.2626C16.8438 16.4079 16.6291 17.7872 16.1479 18.7348C15.6058 19.8022 14.7205 20.2782 13.2773 20.2782C12.4823 20.2782 11.8594 19.6365 11.8594 18.8173V17.9006C12.6926 17.6254 13.2645 17.0421 13.3441 16.9575C13.6697 16.6121 13.6536 16.0683 13.3082 15.7427C12.9628 15.4171 12.4189 15.4333 12.0934 15.7786C11.9846 15.8941 11.4802 16.3251 11 16.3251C10.5199 16.3251 10.0155 15.8941 9.90666 15.7786C9.58113 15.4333 9.03727 15.4171 8.69189 15.7427C8.34651 16.0683 8.33039 16.6122 8.65597 16.9575C8.73563 17.042 9.3075 17.6254 10.1407 17.9006V18.8173C10.1407 19.6365 9.51784 20.2782 8.72274 20.2782C7.27959 20.2782 6.39431 19.8022 5.85222 18.7348C5.37088 17.7872 5.15625 16.4079 5.15625 14.2626V9.39985C5.37157 9.40797 5.61056 9.40487 5.86528 9.38231C6.82022 9.29762 7.67229 8.96822 8.37788 8.41732C9.86055 9.77947 12.1395 9.77935 13.6221 8.41732C14.3277 8.96827 15.1798 9.29767 16.1347 9.38231C16.3896 9.40487 16.6283 9.40788 16.8438 9.39967V14.2626ZM20.2809 12.745C20.2774 12.8375 20.2443 13.0097 20.0619 13.1232C19.5928 13.4147 19.0976 13.6019 18.5625 13.6892V10.9938C18.9927 11.4454 19.5028 11.9154 20.0847 12.3407C20.2704 12.4764 20.2838 12.6686 20.2809 12.745ZM13.75 10.8681C14.3433 10.8681 14.8242 11.349 14.8242 11.9423C14.7676 13.3672 12.7322 13.3668 12.6758 11.9423C12.6758 11.349 13.1567 10.8681 13.75 10.8681ZM8.25 10.8681C7.65673 10.8681 7.17578 11.349 7.17578 11.9423C7.23237 13.3672 9.26784 13.3668 9.32422 11.9423C9.32422 11.349 8.84327 10.8681 8.25 10.8681ZM22 7.30168C22 6.16701 21.3723 5.15827 20.4078 4.64638C20.3543 2.88449 18.7075 1.51512 16.9556 1.79163C16.7663 1.50197 16.5275 1.24425 16.2506 1.03473C15.348 0.332193 14.0255 0.231947 13.0277 0.775631C11.9291 -0.254029 10.0708 -0.253943 8.97235 0.775631C7.97444 0.231947 6.65216 0.332193 5.74943 1.03473C5.47254 1.24425 5.23377 1.50202 5.04445 1.79163C3.29239 1.51521 1.64587 2.88449 1.59225 4.64643C0.62773 5.15827 0 6.16701 0 7.30168C0 7.77631 0.384742 8.16106 0.859375 8.16106C1.33401 8.16106 1.71875 7.77631 1.71875 7.30168C1.71875 6.70575 2.1224 6.19098 2.70037 6.04983C3.15159 5.93962 3.43359 5.49081 3.33708 5.03641C3.10888 4.00903 4.19139 3.14613 5.14108 3.59756C5.603 3.82203 6.18849 3.55902 6.32754 3.06466C6.60193 2.12872 7.82689 1.82845 8.49488 2.54526C8.68287 2.74222 8.9531 2.8386 9.22333 2.80474C9.49352 2.77093 9.73173 2.61108 9.86537 2.37385C10.3477 1.50167 11.6525 1.50197 12.1346 2.37385C12.2683 2.61108 12.5064 2.77093 12.7766 2.8047C13.0469 2.8386 13.317 2.74227 13.505 2.54526C14.1733 1.82824 15.3982 2.12902 15.6724 3.06466C15.7439 3.30391 15.9159 3.50028 16.1437 3.60259C16.3716 3.7049 16.6326 3.70305 16.859 3.59752C17.809 3.146 18.8911 4.00937 18.6629 5.0365C18.5664 5.49085 18.8484 5.93962 19.2996 6.04979C19.8775 6.19094 20.2812 6.70575 20.2812 7.30164C20.2812 7.77627 20.6659 8.16101 21.1405 8.16101C21.6152 8.16101 22 7.77631 22 7.30168Z" fill="#363636"/>
</g>
<defs>
<clipPath id="clip0">
<rect width="22" height="22" fill="white"/>
</clipPath>
</defs>
</svg>
