<?xml version="1.0" encoding="UTF-8" standalone="no"?>
<svg
   xmlns:dc="http://purl.org/dc/elements/1.1/"
   xmlns:cc="http://creativecommons.org/ns#"
   xmlns:rdf="http://www.w3.org/1999/02/22-rdf-syntax-ns#"
   xmlns:svg="http://www.w3.org/2000/svg"
   xmlns="http://www.w3.org/2000/svg"
   viewBox="0 0 95.999603 95.999603"
   height="95.999603"
   width="95.999603"
   xml:space="preserve"
   id="svg2"
   version="1.1"><metadata
     id="metadata8"><rdf:RDF><cc:Work
         rdf:about=""><dc:format>image/svg+xml</dc:format><dc:type
           rdf:resource="http://purl.org/dc/dcmitype/StillImage" /></cc:Work></rdf:RDF></metadata><defs
     id="defs6"><clipPath
       id="clipPath22"
       clipPathUnits="userSpaceOnUse"><path
         style="clip-rule:evenodd"
         id="path20"
         d="m 11.9426,46.923 h 44.2426 c 2.5348,0 4.6083,-2.0732 4.6083,-4.608 V 17.428 c 0,-2.5348 -2.0735,-4.6083 -4.6083,-4.6083 H 11.9426 c -2.5347,0 -4.6082,2.0735 -4.6082,4.6083 v 24.887 c 0,2.5348 2.0735,4.608 4.6082,4.608" /></clipPath></defs><g
     transform="matrix(1.3333333,0,0,-1.3333333,0,95.9996)"
     id="g10"><path
       id="path12"
       style="fill:#E9EAEC;fill-opacity:1;fill-rule:evenodd;stroke:#E9EAEC;stroke-width:1.19990003;stroke-linecap:butt;stroke-linejoin:miter;stroke-miterlimit:22.92558479;stroke-dasharray:none;stroke-opacity:1"
       d="m 16.2476,50.3031 h 44.2426 c 2.535,0 4.6086,-2.0736 4.6086,-4.6083 V 20.808 c 0,-2.5347 -2.0736,-4.6083 -4.6086,-4.6083 H 16.2476 c -2.5344,0 -4.608,2.0736 -4.608,4.6083 v 24.8868 c 0,2.5347 2.0736,4.6083 4.608,4.6083 z" /><path
       id="path14"
       style="fill:#fff;fill-opacity:1;fill-rule:evenodd;stroke:none"
       d="m 11.9426,46.923 h 44.2426 c 2.5348,0 4.6083,-2.0732 4.6083,-4.608 V 17.428 c 0,-2.5348 -2.0735,-4.6083 -4.6083,-4.6083 H 11.9426 c -2.5347,0 -4.6082,2.0735 -4.6082,4.6083 v 24.887 c 0,2.5348 2.0735,4.608 4.6082,4.608" /><g
       id="g16"><g
         clip-path="url(#clipPath22)"
         id="g18"><g
           id="g24"><path
             id="path26"
             style="fill:#B8BBC1;fill-opacity:1;fill-rule:evenodd;stroke:#B8BBC1;stroke-width:1.19990003;stroke-linecap:butt;stroke-linejoin:miter;stroke-miterlimit:22.92558479;stroke-dasharray:none;stroke-opacity:1"
             d="m 45.6435,46.6469 h 62.617 c 3.5872,0 6.5225,-2.935 6.5225,-6.5225 V 4.9025 c 0,-3.5875 -2.9353,-6.5228 -6.5225,-6.5228 h -62.617 c -3.5876,0 -6.5226,2.9353 -6.5226,6.5228 v 35.2219 c 0,3.5875 2.935,6.5225 6.5226,6.5225 z" /></g></g></g><path
       id="path28"
       style="fill:none;stroke:#B8BBC1;stroke-width:1.19990003;stroke-linecap:butt;stroke-linejoin:miter;stroke-miterlimit:22.92558479;stroke-dasharray:none;stroke-opacity:1"
       d="m 11.9426,46.923 h 44.2426 c 2.5348,0 4.6083,-2.0732 4.6083,-4.608 V 17.428 c 0,-2.5348 -2.0735,-4.6083 -4.6083,-4.6083 H 11.9426 c -2.5347,0 -4.6082,2.0735 -4.6082,4.6083 v 24.887 c 0,2.5348 2.0735,4.608 4.6082,4.608 z" /><g
       id="g30"><path
         id="path32"
         style="fill:#E9EAEC;fill-opacity:1;fill-rule:nonzero;stroke:#E9EAEC;stroke-width:1.19990003;stroke-linecap:butt;stroke-linejoin:miter;stroke-miterlimit:22.92558479;stroke-dasharray:none;stroke-opacity:1"
         d="m 28.3654,45.0777 -0.384,0.5553 1.6112,4.7208 c -0.4031,-0.218 -0.7617,-0.4034 -1.0758,-0.557 l -2.3295,-1.1384 -0.3804,0.5502 4.6885,2.2915 0.3098,-0.4481 -1.3558,-4.0743 -0.2693,-0.7656 c 0.4201,0.2398 0.8212,0.4533 1.2036,0.6401 l 2.662,1.3011 0.4071,-0.5891 z" /><path
         id="path34"
         style="fill:#E9EAEC;fill-opacity:1;fill-rule:nonzero;stroke:#E9EAEC;stroke-width:1.19990003;stroke-linecap:butt;stroke-linejoin:miter;stroke-miterlimit:22.92558479;stroke-dasharray:none;stroke-opacity:1"
         d="m 34.2213,52.7193 -0.3841,0.5556 1.6112,4.7205 C 35.0453,57.7777 34.6867,57.5921 34.3726,57.4387 L 32.0431,56.3 l -0.3804,0.5502 4.6885,2.2916 0.3098,-0.4482 -1.3558,-4.0739 -0.2693,-0.766 c 0.4201,0.2398 0.8212,0.4533 1.2036,0.6401 l 2.662,1.3014 0.4071,-0.5891 z" /><path
         id="path36"
         style="fill:#E9EAEC;fill-opacity:1;fill-rule:nonzero;stroke:#E9EAEC;stroke-width:1.19990003;stroke-linecap:butt;stroke-linejoin:miter;stroke-miterlimit:22.92558479;stroke-dasharray:none;stroke-opacity:1"
         d="m 44.0263,51.27 -0.3838,0.5555 1.6109,4.7206 c -0.4031,-0.2177 -0.7617,-0.4034 -1.0757,-0.557 l -2.3295,-1.1384 -0.3802,0.5502 4.6885,2.2915 0.3096,-0.4481 -1.3558,-4.074 -0.269,-0.7659 c 0.4198,0.2398 0.8212,0.4532 1.2036,0.64 l 2.6617,1.3014 0.407,-0.589 z" /><path
         id="path38"
         style="fill:#E9EAEC;fill-opacity:1;fill-rule:nonzero;stroke:#E9EAEC;stroke-width:1.19990003;stroke-linecap:butt;stroke-linejoin:miter;stroke-miterlimit:22.92558479;stroke-dasharray:none;stroke-opacity:1"
         d="m 52.42,53.7531 -0.5358,0.7753 1.1084,0.5417 0.5357,-0.775 z m 3.0795,1.5052 -0.5357,0.7753 1.1083,0.5417 0.5358,-0.775 z m 3.0793,1.5055 -0.5357,0.775 1.1083,0.5417 0.5357,-0.775 z" /></g><g
       id="g40"><path
         id="path42"
         style="fill:#B8BBC1;fill-opacity:1;fill-rule:nonzero;stroke:#B8BBC1;stroke-width:1.19990003;stroke-linecap:butt;stroke-linejoin:miter;stroke-miterlimit:22.92558479;stroke-dasharray:none;stroke-opacity:1"
         d="m 29.0177,48.4033 -0.3798,0.5581 1.6443,4.7092 c -0.4048,-0.2149 -0.7645,-0.398 -1.0797,-0.5493 l -2.3374,-1.122 -0.3765,0.553 4.7044,2.2584 0.3067,-0.4504 -1.3847,-4.0646 -0.2744,-0.7637 c 0.4215,0.2367 0.8243,0.4473 1.2078,0.6316 l 2.6711,1.2821 0.4028,-0.5919 z" /><path
         id="path44"
         style="fill:#B8BBC1;fill-opacity:1;fill-rule:nonzero;stroke:#B8BBC1;stroke-width:1.19990003;stroke-linecap:butt;stroke-linejoin:miter;stroke-miterlimit:22.92558479;stroke-dasharray:none;stroke-opacity:1"
         d="m 34.9274,56.0032 -0.3799,0.5582 1.6444,4.7092 c -0.4048,-0.2149 -0.7645,-0.398 -1.0797,-0.5491 l -2.3375,-1.1222 -0.3761,0.553 4.7044,2.2584 0.3064,-0.4504 -1.3845,-4.0644 -0.2746,-0.7639 c 0.4215,0.237 0.8243,0.4473 1.2081,0.6316 l 2.6708,1.2821 0.4031,-0.5919 z" /><path
         id="path46"
         style="fill:#B8BBC1;fill-opacity:1;fill-rule:nonzero;stroke:#B8BBC1;stroke-width:1.19990003;stroke-linecap:butt;stroke-linejoin:miter;stroke-miterlimit:22.92558479;stroke-dasharray:none;stroke-opacity:1"
         d="m 44.7216,54.4844 -0.3798,0.5582 1.6444,4.7092 c -0.4045,-0.2149 -0.7645,-0.398 -1.0795,-0.5494 l -2.3374,-1.1219 -0.3764,0.553 4.7043,2.2584 0.3067,-0.4505 -1.3847,-4.0645 -0.2744,-0.7637 c 0.4215,0.2367 0.8241,0.4473 1.2079,0.6316 l 2.671,1.2821 0.4029,-0.5919 z" /><path
         id="path48"
         style="fill:#B8BBC1;fill-opacity:1;fill-rule:nonzero;stroke:#B8BBC1;stroke-width:1.19990003;stroke-linecap:butt;stroke-linejoin:miter;stroke-miterlimit:22.92558479;stroke-dasharray:none;stroke-opacity:1"
         d="m 53.1326,56.9081 -0.5301,0.7789 1.1121,0.5338 0.5303,-0.7787 z m 3.09,1.4833 -0.5303,0.779 1.1123,0.5338 0.5301,-0.779 z m 3.0898,1.4834 -0.5301,0.7787 1.1123,0.534 0.5301,-0.7786 z" /></g><path
       id="path50"
       style="fill:none;stroke:#B8BBC1;stroke-width:1.19990003;stroke-linecap:butt;stroke-linejoin:miter;stroke-miterlimit:22.92558479;stroke-dasharray:none;stroke-opacity:1"
       d="m 24.3306,27.4068 c -0.0646,-3.7959 6.4182,-3.4495 6.1503,0.1686" /><path
       id="path52"
       style="fill:none;stroke:#E9EAEC;stroke-width:1.19990003;stroke-linecap:butt;stroke-linejoin:miter;stroke-miterlimit:22.92558479;stroke-dasharray:none;stroke-opacity:1"
       d="m 37.8488,27.3566 c -0.0644,-3.7959 6.4182,-3.4495 6.1503,0.1687" /><path
       id="path54"
       style="fill:none;stroke:#B8BBC1;stroke-width:0.56690001;stroke-linecap:butt;stroke-linejoin:miter;stroke-miterlimit:22.92558479;stroke-dasharray:none;stroke-opacity:1"
       d="m 12.7148,43.8511 c 0.7634,0 1.3825,-0.6191 1.3825,-1.3827 0,-0.7634 -0.6191,-1.3825 -1.3825,-1.3825 -0.7637,0 -1.3827,0.6191 -1.3827,1.3825 0,0.7636 0.619,1.3827 1.3827,1.3827 z" /></g></svg>