<svg width="22" height="22" viewBox="0 0 22 22" fill="none" xmlns="http://www.w3.org/2000/svg">
<g clip-path="url(#clip0)">
<path d="M11 22C8.0618 22 5.29947 20.8558 3.2218 18.7782C1.14421 16.7005 0 13.9382 0 11C0 8.0618 1.14421 5.29947 3.2218 3.2218C5.29947 1.14421 8.0618 0 11 0C13.9382 0 16.7005 1.14421 18.7782 3.2218C20.8558 5.29947 22 8.0618 22 11C22 13.9382 20.8558 16.7005 18.7782 18.7782C16.7005 20.8558 13.9382 22 11 22ZM11 1.71875C5.88229 1.71875 1.71875 5.88229 1.71875 11C1.71875 16.1177 5.88229 20.2812 11 20.2812C16.1177 20.2812 20.2812 16.1177 20.2812 11C20.2812 5.88229 16.1177 1.71875 11 1.71875ZM10.957 11.8164C8.68248 11.8164 6.83203 9.96596 6.83203 7.69141C6.83203 5.41686 8.68248 3.56641 10.957 3.56641C13.2316 3.56641 15.082 5.41686 15.082 7.69141C15.082 9.96596 13.2316 11.8164 10.957 11.8164ZM10.957 5.28516C9.6302 5.28516 8.55078 6.36462 8.55078 7.69141C8.55078 9.0182 9.6302 10.0977 10.957 10.0977C12.2839 10.0977 13.3633 9.0182 13.3633 7.69141C13.3633 6.36462 12.2839 5.28516 10.957 5.28516ZM16.4017 16.8211C16.7689 16.5203 16.8227 15.9789 16.522 15.6117C15.3068 14.1282 13.5113 13.2773 11.5958 13.2773H10.5761C8.66061 13.2773 6.86507 14.1282 5.64992 15.6117C5.34918 15.9789 5.40302 16.5203 5.77023 16.8211C6.1374 17.1219 6.67885 17.068 6.97963 16.7008C7.86693 15.6174 9.17782 14.9961 10.5761 14.9961H11.5958C12.9941 14.9961 14.3049 15.6174 15.1923 16.7008C15.3622 16.9082 15.6089 17.0156 15.8576 17.0156C16.0492 17.0156 16.242 16.9519 16.4017 16.8211Z" fill="#363636"/>
</g>
<defs>
<clipPath id="clip0">
<rect width="22" height="22" fill="white"/>
</clipPath>
</defs>
</svg>
