<svg width="22" height="22" viewBox="0 0 22 22" fill="none" xmlns="http://www.w3.org/2000/svg">
<path d="M21.1395 6.06096C21.6141 6.06096 21.9987 5.67627 21.9987 5.20171V4.2995C21.9987 1.92875 20.07 0 17.6992 0C17.6992 0 4.23016 0.00201923 4.19695 0.00592881C3.06321 0.0455401 1.97416 0.532046 1.18915 1.3546C0.384509 2.1977 -0.0349761 3.29427 0.00450637 4.44802C0.0028738 4.46989 0.00201455 16.8413 0.00201455 16.8413C0.00201455 19.6858 2.31623 22 5.16076 22H17.6992C20.07 22 21.9987 20.0712 21.9987 17.7005V11.1767C21.9987 8.806 20.07 6.87724 17.6992 6.87724H4.29821C2.91864 6.87724 1.78762 5.79898 1.7233 4.42246C1.69061 3.72252 1.94241 3.05437 2.43227 2.54105C2.92921 2.02035 3.62714 1.72176 4.34701 1.72176C4.37241 1.72176 17.6992 1.7185 17.6992 1.7185C19.1223 1.7185 20.2802 2.87633 20.2802 4.2995V5.20171C20.2803 5.67627 20.6649 6.06096 21.1395 6.06096ZM4.29821 8.59574H17.6992C19.1224 8.59574 20.2802 9.75358 20.2802 11.1767V17.7005C20.2802 19.1237 19.1224 20.2815 17.6992 20.2815H5.16076C3.2638 20.2815 1.72051 18.7382 1.72051 16.8413V7.73997C2.43918 8.27829 3.33216 8.59574 4.29821 8.59574ZM18.5618 14.4386C18.5618 15.0318 18.0809 15.5127 17.4877 15.5127C16.063 15.4561 16.0634 13.4209 17.4877 13.3646C18.0809 13.3646 18.5618 13.8454 18.5618 14.4386ZM18.5618 4.2995C18.5618 3.82494 18.1771 3.44025 17.7025 3.44025H4.29825C3.1582 3.48562 3.15906 5.11377 4.29825 5.15875H17.7025C18.177 5.15875 18.5618 4.77406 18.5618 4.2995Z" fill="#363636"/>
</svg>
