<svg width="100" height="83" viewBox="0 0 100 83" fill="none" xmlns="http://www.w3.org/2000/svg">
<g clip-path="url(#clip0)">
<mask id="mask0" style="mask-type:alpha" maskUnits="userSpaceOnUse" x="-34" y="-10" width="150" height="102">
<path d="M116 -10H-34V91.1379H116V-10Z" fill="white"/>
</mask>
<g mask="url(#mask0)">
<path fill-rule="evenodd" clip-rule="evenodd" d="M37.8761 48.9967L33.9071 39.753L28.5439 31.6487L18.0687 24.1565L17.2054 22.5488L39.4517 7.52953L51.529 17.6525L57.0649 24.6701L60.3753 30.9361L62.0146 39.3693L61.4989 47.481L37.8761 48.9967Z" fill="#E9EAEC" stroke="#E9EAEC" stroke-width="0.55"/>
<path fill-rule="evenodd" clip-rule="evenodd" d="M37.6187 49.3738C34.1199 35.7271 30.7896 30.8802 18.0022 24.1846C17.0962 23.3479 16.9576 22.635 17.5864 22.0459C18.2153 21.4569 24.9088 16.8712 37.6671 8.28886C38.6624 7.57068 39.4175 7.42391 39.9324 7.84853C40.4473 8.27315 41.1004 8.80928 41.8916 9.45692C56.0333 20.6141 62.5552 30.8005 61.4573 40.0159" fill="#E9EAEC"/>
<path d="M37.6187 49.3738C34.1199 35.7271 30.7896 30.8802 18.0022 24.1846C17.0962 23.3479 16.9576 22.635 17.5864 22.0459C18.2153 21.4569 24.9088 16.8712 37.6671 8.28886C38.6624 7.57068 39.4175 7.42391 39.9324 7.84853C40.4473 8.27315 41.1004 8.80928 41.8916 9.45692C56.0333 20.6141 62.5552 30.8005 61.4573 40.0159" stroke="#E9EAEC" stroke-width="1.1" stroke-linecap="round"/>
<mask id="mask1" style="mask-type:alpha" maskUnits="userSpaceOnUse" x="17" y="6" width="42" height="41">
<path d="M32.4208 46.9527C31.6012 33.0649 29.2878 27.739 18.1612 18.8392C17.4411 17.8574 17.4411 17.1402 18.1612 16.6877C18.8812 16.2352 26.2288 13.0512 40.204 7.13587C41.3033 6.62724 42.0625 6.62724 42.4813 7.13587C42.9001 7.64449 43.4318 8.28725 44.0763 9.06412C55.6746 22.5441 60.0744 33.6471 57.2756 42.3733" fill="white"/>
</mask>
<g mask="url(#mask1)">
<path d="M36.7188 47.6438C33.0296 34.2298 29.6594 29.5013 16.9256 23.1093C16.0171 22.2987 15.868 21.5972 16.4783 21.0048C17.0885 20.4125 23.6136 15.7705 36.0535 7.07877C37.0231 6.35268 37.7656 6.19486 38.281 6.60529C38.7964 7.01572 39.4501 7.53389 40.2421 8.15979C54.3896 18.9337 61.0017 28.8794 60.0783 37.9968" fill="#E9EAEC"/>
<path d="M36.7188 47.6438C33.0296 34.2298 29.6594 29.5013 16.9256 23.1093C16.0171 22.2987 15.868 21.5972 16.4783 21.0048C17.0885 20.4125 23.6136 15.7705 36.0535 7.07877C37.0231 6.35268 37.7656 6.19486 38.281 6.60529C38.7964 7.01572 39.4501 7.53389 40.2421 8.15979C54.3896 18.9337 61.0017 28.8794 60.0783 37.9968" stroke="#E9EAEC" stroke-width="1.1" stroke-linecap="round"/>
<path opacity="0.403193" fill-rule="evenodd" clip-rule="evenodd" d="M36.4398 48.3634C39.6567 34.6282 23.6334 21.0199 23.1623 20.526C22.8482 20.1967 22.8482 19.5476 23.1623 18.5787L43.1276 7.4895C45.612 7.86966 47.0636 8.31405 47.4824 8.82268C47.9013 9.33131 48.4329 9.97406 49.0774 10.7509C60.6758 24.2309 65.0755 35.3339 62.2767 44.0601C58.0785 57.1494 37.7183 50.3625 37.8933 50.8595C38.01 51.1908 37.5255 50.3588 36.4398 48.3634Z" fill="#E9EAEC" stroke="#E9EAEC" stroke-width="1.1" stroke-linecap="round"/>
</g>
<path fill-rule="evenodd" clip-rule="evenodd" d="M37.9067 47.8164L35.9979 34.9656L32.2796 25.9868L23.4264 16.6335L22.8857 14.8906L47.5891 4.39209L57.513 16.6335L61.6082 24.5785L63.6622 31.361V39.9521L61.6082 47.8164H37.9067Z" fill="#E9EAEC" stroke="#E9EAEC" stroke-width="0.55"/>
<path fill-rule="evenodd" clip-rule="evenodd" d="M37.6144 47.8689C36.7838 33.8053 34.6298 25.6607 23.3549 16.6481C22.6252 15.6539 22.6252 14.9277 23.3549 14.4694C24.0846 14.0112 31.5301 10.7869 45.6916 4.7967C46.8056 4.28163 47.5749 4.28163 47.9993 4.7967C48.4237 5.31177 48.9625 5.96265 49.6155 6.74936C61.3685 20.3999 65.827 31.6436 62.9908 40.4802" fill="#E9EAEC"/>
<path d="M37.6144 47.8689C36.7838 33.8053 34.6298 25.6607 23.3549 16.6481C22.6252 15.6539 22.6252 14.9277 23.3549 14.4694C24.0846 14.0112 31.5301 10.7869 45.6916 4.7967C46.8056 4.28163 47.5749 4.28163 47.9993 4.7967C48.4237 5.31177 48.9625 5.96265 49.6155 6.74936C61.3685 20.3999 65.827 31.6436 62.9908 40.4802" stroke="#E9EAEC" stroke-width="1.1" stroke-linecap="round"/>
<path fill-rule="evenodd" clip-rule="evenodd" d="M40.4492 26.742L48.1698 23.4517L40.4492 26.742Z" fill="#E9EAEC"/>
<path d="M40.4492 26.742L48.1698 23.4517" stroke="#E9EAEC" stroke-width="1.1" stroke-linecap="round" stroke-linejoin="round"/>
<path fill-rule="evenodd" clip-rule="evenodd" d="M50.375 22.3548L52.5809 21.2581L50.375 22.3548Z" fill="#E9EAEC"/>
<path d="M50.375 22.3548L52.5809 21.2581" stroke="#E9EAEC" stroke-width="1.1" stroke-linecap="round" stroke-linejoin="round"/>
<path fill-rule="evenodd" clip-rule="evenodd" d="M42.6543 31.1289L50.3749 27.8386L42.6543 31.1289Z" fill="#E9EAEC"/>
<path d="M42.6543 31.1289L50.3749 27.8386" stroke="#E9EAEC" stroke-width="1.1" stroke-linecap="round" stroke-linejoin="round"/>
<path fill-rule="evenodd" clip-rule="evenodd" d="M52.5811 26.7418L54.7869 25.645L52.5811 26.7418Z" fill="#E9EAEC"/>
<path d="M52.5811 26.7418L54.7869 25.645" stroke="#E9EAEC" stroke-width="1.1" stroke-linecap="round" stroke-linejoin="round"/>
<path fill-rule="evenodd" clip-rule="evenodd" d="M41.5518 21.258L45.9635 19.0645L41.5518 21.258Z" fill="#E9EAEC"/>
<path d="M41.5518 21.258L45.9635 19.0645" stroke="#E9EAEC" stroke-width="1.1" stroke-linecap="round" stroke-linejoin="round"/>
<path d="M79.065 34.4211H15.068C12.6379 34.4211 10.668 36.3911 10.668 38.8211V77.1792C10.668 79.6093 12.6379 81.5792 15.068 81.5792H79.065C81.4951 81.5792 83.465 79.6093 83.465 77.1792V38.8211C83.465 36.3911 81.4951 34.4211 79.065 34.4211Z" fill="#E9EAEC" stroke="#E9EAEC" stroke-width="1.1"/>
<path d="M74.6533 34.4211H15.068C12.6379 34.4211 10.668 36.3911 10.668 38.8211V77.1792C10.668 79.6093 12.6379 81.5792 15.068 81.5792H74.6533C77.0833 81.5792 79.0533 79.6093 79.0533 77.1792V38.8211C79.0533 36.3911 77.0833 34.4211 74.6533 34.4211Z" fill="#E9EAEC" stroke="#E9EAEC" stroke-width="1.1"/>
<path d="M79.065 34.4211H15.068C12.6379 34.4211 10.668 36.3911 10.668 38.8211V77.1792C10.668 79.6093 12.6379 81.5792 15.068 81.5792H79.065C81.4951 81.5792 83.465 79.6093 83.465 77.1792V38.8211C83.465 36.3911 81.4951 34.4211 79.065 34.4211Z" fill="#E9EAEC" stroke="#E9EAEC" stroke-width="1.1"/>
<path d="M72.4474 30.0339H15.068C12.6379 30.0339 10.668 32.0039 10.668 34.4339V77.1791C10.668 79.6091 12.6379 81.5791 15.068 81.5791H72.4474C74.8774 81.5791 76.8474 79.6091 76.8474 77.1791V34.4339C76.8474 32.0039 74.8774 30.0339 72.4474 30.0339Z" fill="#E9EAEC" stroke="#E9EAEC" stroke-width="1.1"/>
<path fill-rule="evenodd" clip-rule="evenodd" d="M10.668 74.9985H65.2768C67.4031 74.9985 69.1268 73.2748 69.1268 71.1485V30.0339H14.518C12.3917 30.0339 10.668 31.7576 10.668 33.8839V74.9985Z" fill="#E9EAEC" stroke="#E9EAEC" stroke-width="1.1"/>
<path d="M72.4474 30.0339H15.068C12.6379 30.0339 10.668 32.0039 10.668 34.4339V77.1791C10.668 79.6091 12.6379 81.5791 15.068 81.5791H72.4474C74.8774 81.5791 76.8474 79.6091 76.8474 77.1791V34.4339C76.8474 32.0039 74.8774 30.0339 72.4474 30.0339Z" fill="#E9EAEC" stroke="#E9EAEC" stroke-width="1.1"/>
<path fill-rule="evenodd" clip-rule="evenodd" d="M69.64 49.7759C66.3094 49.7759 63.6094 52.4759 63.6094 55.8065C63.6094 59.1372 66.3094 61.8372 69.64 61.8372H85.1241C86.0354 61.8372 86.7741 61.0984 86.7741 60.1872V51.4259C86.7741 50.5146 86.0354 49.7759 85.1241 49.7759H69.64Z" fill="#E9EAEC" stroke="#E9EAEC" stroke-width="1.1"/>
<path d="M69.6766 59.0968C70.8949 59.0968 71.8825 58.1147 71.8825 56.9033C71.8825 55.6918 70.8949 54.7097 69.6766 54.7097C68.4583 54.7097 67.4707 55.6918 67.4707 56.9033C67.4707 58.1147 68.4583 59.0968 69.6766 59.0968Z" fill="#E9EAEC" stroke="#E9EAEC" stroke-width="1.1"/>
<path d="M69.6766 58.0001C70.8949 58.0001 71.8825 57.0181 71.8825 55.8066C71.8825 54.5951 70.8949 53.613 69.6766 53.613C68.4583 53.613 67.4707 54.5951 67.4707 55.8066C67.4707 57.0181 68.4583 58.0001 69.6766 58.0001Z" fill="#E9EAEC" stroke="#E9EAEC" stroke-width="1.1"/>
<path fill-rule="evenodd" clip-rule="evenodd" d="M69.64 49.7759C66.3094 49.7759 63.6094 52.4759 63.6094 55.8065C63.6094 59.1372 66.3094 61.8372 69.64 61.8372H85.1241C86.0354 61.8372 86.7741 61.0984 86.7741 60.1872V51.4259C86.7741 50.5146 86.0354 49.7759 85.1241 49.7759H69.64Z" fill="#E9EAEC" stroke="#E9EAEC" stroke-width="1.1"/>
<path d="M41.5523 18.5161C43.0751 18.5161 44.3096 17.2885 44.3096 15.7742C44.3096 14.2598 43.0751 13.0322 41.5523 13.0322C40.0294 13.0322 38.7949 14.2598 38.7949 15.7742C38.7949 17.2885 40.0294 18.5161 41.5523 18.5161Z" fill="#E9EAEC" stroke="#E9EAEC" stroke-width="1.1"/>
<path fill-rule="evenodd" clip-rule="evenodd" d="M20.0449 49.2258C20.0449 51.6488 22.0201 53.6129 24.4567 53.6129C26.8932 53.6129 28.8685 51.6488 28.8685 49.2258" fill="#E9EAEC"/>
<path d="M20.0449 49.2258C20.0449 51.6488 22.0201 53.6129 24.4567 53.6129C26.8932 53.6129 28.8685 51.6488 28.8685 49.2258" stroke="#E9EAEC" stroke-width="2.2" stroke-linecap="round"/>
<path fill-rule="evenodd" clip-rule="evenodd" d="M47.6182 49.2258C47.6182 51.6488 49.5934 53.6129 52.0299 53.6129C54.4665 53.6129 56.4417 51.6488 56.4417 49.2258" fill="#E9EAEC"/>
<path d="M47.6182 49.2258C47.6182 51.6488 49.5934 53.6129 52.0299 53.6129C54.4665 53.6129 56.4417 51.6488 56.4417 49.2258" stroke="#E9EAEC" stroke-width="2.2" stroke-linecap="round"/>
<path d="M67.4707 20.9873L71.5596 19.6128L68.96 24.1203L72.8986 22.8459" stroke="#E9EAEC" stroke-width="1.1" stroke-linecap="round" stroke-linejoin="round"/>
<path d="M74.0879 16.6003L78.1768 15.2258L75.5772 19.7333L79.5158 18.459" stroke="#E9EAEC" stroke-width="1.1" stroke-linecap="round" stroke-linejoin="round"/>
<path d="M92.739 17.8104C93.2643 17.6397 93.5517 17.0756 93.3811 16.5503C93.2104 16.0251 92.6462 15.7376 92.121 15.9083C91.5957 16.0789 91.3083 16.6431 91.4789 17.1683C91.6496 17.6936 92.2138 17.981 92.739 17.8104Z" fill="#E9EAEC"/>
<path d="M95.8855 16.7879C96.4108 16.6173 96.6982 16.0531 96.5275 15.5278C96.3569 15.0026 95.7927 14.7151 95.2675 14.8858C94.7422 15.0565 94.4548 15.6206 94.6254 16.1459C94.7961 16.6711 95.3602 16.9586 95.8855 16.7879Z" fill="#E9EAEC"/>
<path d="M99.033 15.7655C99.5582 15.5948 99.8457 15.0306 99.675 14.5054C99.5043 13.9801 98.9402 13.6927 98.4149 13.8633C97.8897 14.034 97.6022 14.5982 97.7729 15.1234C97.9436 15.6487 98.5077 15.9361 99.033 15.7655Z" fill="#E9EAEC"/>
<path d="M82.9121 16.6003L87.001 15.2258L84.4015 19.7333L88.34 18.459" stroke="#E9EAEC" stroke-width="1.1" stroke-linecap="round" stroke-linejoin="round"/>
<path fill-rule="evenodd" clip-rule="evenodd" d="M27.9494 45.7064L23.9804 36.4627L18.6171 28.3584L8.14191 20.8662L7.2786 19.2585L29.5249 4.23925L41.6022 14.3622L47.1382 21.3798L50.4486 27.6458L52.0878 36.079L51.5722 44.1907L27.9494 45.7064Z" fill="#E9EAEC"/>
<path d="M27.692 46.0835C24.1932 32.4368 20.8629 27.5899 8.0754 20.8943C7.16942 20.0576 7.03085 19.3447 7.65968 18.7556C8.28851 18.1666 14.9821 13.5809 27.7404 4.99857C28.7357 4.2804 29.4908 4.13363 30.0057 4.55825C30.5206 4.98287 31.1736 5.519 31.9648 6.16664C46.1065 17.3238 52.6284 27.5102 51.5305 36.7256" stroke="#B8BBC1" stroke-width="1.1" stroke-linecap="round"/>
<mask id="mask2" style="mask-type:alpha" maskUnits="userSpaceOnUse" x="7" y="3" width="42" height="41">
<path d="M22.4941 43.6625C21.6744 29.7747 19.361 24.4487 8.23439 15.5489C7.51432 14.5671 7.51432 13.8499 8.23439 13.3974C8.95447 12.9449 16.3021 9.76094 30.2772 3.84558C31.3766 3.33695 32.1357 3.33695 32.5545 3.84558C32.9734 4.35421 33.505 4.99696 34.1495 5.77384C45.7479 19.2538 50.1476 30.3569 47.3488 39.083" fill="white"/>
</mask>
<g mask="url(#mask2)">
<path opacity="0.403193" fill-rule="evenodd" clip-rule="evenodd" d="M26.5131 45.0731C29.7299 31.3379 13.7067 17.7296 13.2356 17.2357C12.9215 16.9064 12.9215 16.2573 13.2356 15.2884L33.2008 4.19922C35.6852 4.57938 37.1369 5.02377 37.5557 5.5324C37.9745 6.04103 38.5062 6.68378 39.1507 7.46065C50.749 20.9406 55.1488 32.0437 52.35 40.7699C48.1518 53.8591 27.7916 47.0723 27.9666 47.5692C28.0832 47.9006 27.5988 47.0685 26.5131 45.0731Z" fill="#B8BBC1"/>
</g>
<path fill-rule="evenodd" clip-rule="evenodd" d="M27.9799 44.5261L26.0712 31.6753L22.3528 22.6965L13.4997 13.3432L12.959 11.6003L37.6624 1.10181L47.5863 13.3432L51.6815 21.2882L53.7354 28.0707V36.6618L51.6815 44.5261H27.9799Z" fill="#fff"/>
<path d="M27.6876 44.5786C26.8571 30.515 24.7031 22.3704 13.4281 13.3579C12.6984 12.3636 12.6984 11.6374 13.4281 11.1792C14.1578 10.7209 21.6034 7.49665 35.7648 1.50642C36.8789 0.991351 37.6481 0.991351 38.0725 1.50642C38.4969 2.02148 39.0357 2.67237 39.6888 3.45908C51.4418 17.1097 55.9002 28.3533 53.0641 37.1899" stroke="#B8BBC1" stroke-width="1.1" stroke-linecap="round"/>
<path d="M30.5225 23.4517L38.2431 20.1614" stroke="#E9EAEC" stroke-width="1.1" stroke-linecap="round" stroke-linejoin="round"/>
<path d="M40.4492 19.0645L42.6551 17.9678" stroke="#E9EAEC" stroke-width="1.1" stroke-linecap="round" stroke-linejoin="round"/>
<path d="M32.7285 27.8387L40.4491 24.5483" stroke="#E9EAEC" stroke-width="1.1" stroke-linecap="round" stroke-linejoin="round"/>
<path d="M42.6543 23.4515L44.8602 22.3547" stroke="#E9EAEC" stroke-width="1.1" stroke-linecap="round" stroke-linejoin="round"/>
<path d="M31.625 17.9677L36.0368 15.7742" stroke="#E9EAEC" stroke-width="1.1" stroke-linecap="round" stroke-linejoin="round"/>
<path d="M69.6885 30.5808H4.59141C2.16135 30.5808 0.191406 32.5508 0.191406 34.9808V74.4389C0.191406 76.8689 2.16135 78.8389 4.59141 78.8389H69.6885C72.1185 78.8389 74.0885 76.8689 74.0885 74.4389V34.9808C74.0885 32.5508 72.1185 30.5808 69.6885 30.5808Z" fill="#E9EAEC"/>
<path d="M65.2767 30.5808H4.59141C2.16135 30.5808 0.191406 32.5508 0.191406 34.9808V74.4389C0.191406 76.8689 2.16135 78.8389 4.59141 78.8389H65.2767C67.7068 78.8389 69.6767 76.8689 69.6767 74.4389V34.9808C69.6767 32.5508 67.7068 30.5808 65.2767 30.5808Z" fill="#fff"/>
<path d="M69.1383 31.1306H5.14121C2.71116 31.1306 0.741211 33.1006 0.741211 35.5306V73.8887C0.741211 76.3187 2.71116 78.2887 5.14121 78.2887H69.1383C71.5683 78.2887 73.5383 76.3187 73.5383 73.8887V35.5306C73.5383 33.1006 71.5683 31.1306 69.1383 31.1306Z" stroke="#B8BBC1" stroke-width="1.1"/>
<path d="M63.0708 26.1936H4.59141C2.16135 26.1936 0.191406 28.1636 0.191406 30.5936V74.4388C0.191406 76.8688 2.16135 78.8388 4.59141 78.8388H63.0708C65.5009 78.8388 67.4708 76.8688 67.4708 74.4388V30.5936C67.4708 28.1636 65.5009 26.1936 63.0708 26.1936Z" fill="#E9EAEC"/>
<path fill-rule="evenodd" clip-rule="evenodd" d="M4.59141 26.1936H59.7502V67.8581C59.7502 70.2882 57.7803 72.2581 55.3502 72.2581H0.191406L0.191406 30.5936C0.191406 28.1636 2.16135 26.1936 4.59141 26.1936V26.1936Z" fill="#fff"/>
<path d="M62.5206 26.7437H5.14121C2.71116 26.7437 0.741211 28.7136 0.741211 31.1437V73.8888C0.741211 76.3189 2.71116 78.2888 5.14121 78.2888H62.5206C64.9507 78.2888 66.9206 76.3189 66.9206 73.8888V31.1437C66.9206 28.7136 64.9507 26.7437 62.5206 26.7437Z" stroke="#B8BBC1" stroke-width="1.1"/>
<path fill-rule="evenodd" clip-rule="evenodd" d="M59.7135 45.9355H75.1975C76.4125 45.9355 77.3975 46.9205 77.3975 48.1355V56.8968C77.3975 58.1119 76.4125 59.0968 75.1975 59.0968H59.7135C56.0791 59.0968 53.1328 56.1506 53.1328 52.5162C53.1328 48.8818 56.0791 45.9355 59.7135 45.9355Z" fill="#E9EAEC"/>
<path d="M59.7498 55.8065C60.9681 55.8065 61.9557 54.8244 61.9557 53.613C61.9557 52.4015 60.9681 51.4194 59.7498 51.4194C58.5316 51.4194 57.5439 52.4015 57.5439 53.613C57.5439 54.8244 58.5316 55.8065 59.7498 55.8065Z" fill="#B8BBC1"/>
<path d="M59.7498 54.7098C60.9681 54.7098 61.9557 53.7278 61.9557 52.5163C61.9557 51.3048 60.9681 50.3228 59.7498 50.3228C58.5316 50.3228 57.5439 51.3048 57.5439 52.5163C57.5439 53.7278 58.5316 54.7098 59.7498 54.7098Z" fill="#B8BBC1"/>
<path fill-rule="evenodd" clip-rule="evenodd" d="M59.7133 46.4856C56.3826 46.4856 53.6826 49.1856 53.6826 52.5162C53.6826 55.8469 56.3826 58.5469 59.7133 58.5469H75.1973C76.1086 58.5469 76.8473 57.8082 76.8473 56.8969V48.1356C76.8473 47.2243 76.1086 46.4856 75.1973 46.4856H59.7133Z" stroke="#B8BBC1" stroke-width="1.1"/>
<path d="M31.6255 15.2258C33.1484 15.2258 34.3829 13.9982 34.3829 12.4839C34.3829 10.9695 33.1484 9.74194 31.6255 9.74194C30.1027 9.74194 28.8682 10.9695 28.8682 12.4839C28.8682 13.9982 30.1027 15.2258 31.6255 15.2258Z" fill="#E9EAEC"/>
<path d="M10.1182 45.9355C10.1182 48.3585 12.0934 50.3226 14.5299 50.3226C16.9665 50.3226 18.9417 48.3585 18.9417 45.9355" stroke="#E9EAEC" stroke-width="2.2" stroke-linecap="round"/>
<path d="M37.6914 45.9355C37.6914 48.3585 39.6666 50.3226 42.1032 50.3226C44.5397 50.3226 46.5149 48.3585 46.5149 45.9355" stroke="#E9EAEC" stroke-width="2.2" stroke-linecap="round"/>
<path d="M57.5439 17.697L61.6329 16.3225L59.0333 20.83L62.9719 19.5556" stroke="#B8BBC1" stroke-width="1.1" stroke-linecap="round" stroke-linejoin="round"/>
<path d="M64.1611 13.3101L68.2501 11.9355L65.6505 16.443L69.5891 15.1687" stroke="#B8BBC1" stroke-width="1.1" stroke-linecap="round" stroke-linejoin="round"/>
<path d="M82.8123 14.5201C83.3375 14.3494 83.625 13.7853 83.4543 13.26C83.2836 12.7348 82.7195 12.4473 82.1942 12.618C81.669 12.7887 81.3815 13.3528 81.5522 13.8781C81.7228 14.4033 82.287 14.6908 82.8123 14.5201Z" fill="#B8BBC1"/>
<path d="M85.9587 13.4976C86.484 13.327 86.7714 12.7628 86.6008 12.2376C86.4301 11.7123 85.866 11.4249 85.3407 11.5955C84.8154 11.7662 84.528 12.3303 84.6987 12.8556C84.8693 13.3809 85.4335 13.6683 85.9587 13.4976Z" fill="#B8BBC1"/>
<path d="M89.1062 12.4752C89.6314 12.3045 89.9189 11.7404 89.7482 11.2151C89.5776 10.6898 89.0134 10.4024 88.4882 10.5731C87.9629 10.7437 87.6755 11.3079 87.8461 11.8331C88.0168 12.3584 88.5809 12.6458 89.1062 12.4752Z" fill="#B8BBC1"/>
<path d="M72.9854 13.3101L77.0743 11.9355L74.4747 16.443L78.4133 15.1687" stroke="#B8BBC1" stroke-width="1.1" stroke-linecap="round" stroke-linejoin="round"/>
</g>
</g>
<defs>
<clipPath id="clip0">
<rect width="100" height="83" fill="white"/>
</clipPath>
</defs>
</svg>
