<svg width="35" height="35" viewBox="0 0 35 35" fill="none" xmlns="http://www.w3.org/2000/svg">
<path d="M32.3271 25.261H26.8356C25.5842 25.261 24.5661 24.2428 24.5661 22.9915C24.5661 21.74 25.5842 20.7219 26.8356 20.7219H30.2764C31.9753 20.7219 33.3525 19.3447 33.3525 17.6458V12.0084C33.3525 11.4421 32.8934 10.983 32.3271 10.983H4.86835C4.22317 10.983 3.69824 10.458 3.69824 9.81177C3.69824 9.24548 3.23914 8.78638 2.67285 8.78638C2.10656 8.78638 1.64746 9.24548 1.64746 9.81177V31.7779C1.64746 33.5764 3.10762 34.9999 4.86944 34.9999H32.3271C32.8934 34.9999 33.3525 34.5408 33.3525 33.9745V26.2864C33.3525 25.7201 32.8934 25.261 32.3271 25.261Z" fill="#FF6B6B"/>
<path d="M32.3271 25.261H26.8356C25.5842 25.261 24.5661 24.2429 24.5661 22.9915H4.86944C3.10762 22.9915 1.64746 21.5679 1.64746 19.7695V31.778C1.64746 33.5764 3.10762 35 4.86944 35H32.3271C32.8934 35 33.3525 34.5409 33.3525 33.9746V26.2864C33.3525 25.7201 32.8934 25.261 32.3271 25.261Z" fill="#FF3D7D"/>
<path d="M6.04071 13.0338H4.86944C3.09285 13.0338 1.64746 11.5884 1.64746 9.81183C1.64746 8.0325 3.0869 6.58984 4.86944 6.58984H6.04065C6.60693 6.58984 7.06604 7.04895 7.06604 7.61523V12.0085C7.0661 12.5747 6.607 13.0338 6.04071 13.0338Z" fill="#C1126B"/>
<path d="M32.3268 13.0339H28.959C28.3927 13.0339 27.9336 12.5748 27.9336 12.0085V7.61524C27.9336 7.04895 28.3927 6.58984 28.959 6.58984H32.3268C32.8931 6.58984 33.3522 7.04895 33.3522 7.61524V12.0085C33.3522 12.5748 32.8931 13.0339 32.3268 13.0339Z" fill="#C1126B"/>
<path d="M28.9593 6.22398C28.9593 2.78893 26.1703 0 22.7354 0V13.0339H28.9593L28.9593 6.22398Z" fill="#00A78E"/>
<path d="M28.9593 6.22398C25.5243 6.22398 22.7354 3.43506 22.7354 0H27.9339C28.5002 0 28.9593 0.459102 28.9593 1.02539V6.22398Z" fill="#00CB75"/>
<path d="M23.7611 6.22398C23.7611 2.78893 20.9721 0 17.5371 0H12.6309C8.99394 0 6.04102 2.95292 6.04102 6.58984V13.0339H23.7611L23.7611 6.22398Z" fill="#8EE26B"/>
<path d="M12.6309 0C12.6309 3.63692 9.67794 6.58984 6.04102 6.58984V1.02539C6.04102 0.459102 6.50012 0 7.06641 0H12.6309Z" fill="#BEE75E"/>
<path d="M32.3275 18.6711H26.8359C24.4537 18.6711 22.5156 20.6093 22.5156 22.9915C22.5156 25.3736 24.4537 27.3118 26.8359 27.3118H32.3275C32.8937 27.3118 33.3528 26.8527 33.3528 26.2864V17.6458C33.3528 18.212 32.8937 18.6711 32.3275 18.6711Z" fill="#FF3D7D"/>
<path d="M32.3275 22.9915H22.5156C22.5156 25.3737 24.4537 27.3118 26.8359 27.3118H32.3275C32.8937 27.3118 33.3528 26.8527 33.3528 26.2864V21.9661C33.3528 22.5324 32.8937 22.9915 32.3275 22.9915Z" fill="#C1126B"/>
<path d="M16.9512 21.9661H12.5579C11.9121 21.9661 11.3867 21.4406 11.3867 20.7949C11.3867 20.1491 11.9121 19.6237 12.5579 19.6237H18.0494C18.6157 19.6237 19.0748 19.1646 19.0748 18.5983C19.0748 18.032 18.6157 17.5729 18.0494 17.5729H15.7799V16.4016C15.7799 15.8353 15.3208 15.3762 14.7545 15.3762C14.1882 15.3762 13.7291 15.8353 13.7291 16.4016V17.5729H12.5579C10.7813 17.5729 9.33594 19.0183 9.33594 20.7949C9.33594 22.5714 10.7813 24.0168 12.5579 24.0168H16.9512C17.597 24.0168 18.1224 24.5422 18.1224 25.188C18.1224 25.8338 17.597 26.3592 16.9512 26.3592H11.4597C10.8934 26.3592 10.4343 26.8183 10.4343 27.3846C10.4343 27.9509 10.8934 28.41 11.4597 28.41H13.7292V29.5812C13.7292 30.1475 14.1883 30.6066 14.7546 30.6066C15.3209 30.6066 15.78 30.1475 15.78 29.5812V28.4101H16.9512C18.7278 28.4101 20.1732 26.9647 20.1732 25.1881C20.1732 23.4115 18.7278 21.9661 16.9512 21.9661Z" fill="#FFF7F4"/>
<path d="M12.5572 24.017H16.9505C17.5963 24.017 18.1217 24.5424 18.1217 25.1882C18.1217 25.834 17.5963 26.3594 16.9505 26.3594H11.459C10.8927 26.3594 10.4336 26.8185 10.4336 27.3848C10.4336 27.9511 10.8927 28.4102 11.459 28.4102H13.7285V29.5814C13.7285 30.1477 14.1876 30.6068 14.7539 30.6068C15.3202 30.6068 15.7793 30.1477 15.7793 29.5814V28.4103H16.9505C18.7271 28.4103 20.1725 26.9649 20.1725 25.1883C20.1725 24.34 19.8423 23.5677 19.3046 22.9917H10.2031C10.7916 23.6219 11.629 24.017 12.5572 24.017Z" fill="#F0E6E6"/>
<path d="M17.5365 0H14.9004V13.0339H23.7604V6.22398C23.7604 2.78893 20.9714 0 17.5365 0Z" fill="#00CB75"/>
<path d="M23.7611 6.22398C20.3261 6.22398 17.5371 3.43506 17.5371 0H22.7357C23.302 0 23.7611 0.459102 23.7611 1.02539V6.22398Z" fill="#8EE26B"/>
</svg>
