<svg version="1.2" baseProfile="tiny-ps" xmlns="http://www.w3.org/2000/svg" viewBox="0 0 1800 1200" width="1800" height="1200">
	<title>vector illustration CS4_zakat charity-ai</title>
	<defs>
		<linearGradient id="grd1" gradientUnits="userSpaceOnUse"  x1="484.9" y1="189" x2="173.1" y2="178.8">
			<stop offset="0" stop-color="#afcb22"  />
			<stop offset="1" stop-color="#077734"  />
		</linearGradient>
		<linearGradient id="grd2" gradientUnits="userSpaceOnUse"  x1="875.3" y1="488.5" x2="727.8" y2="234.2">
			<stop offset="0" stop-color="#afcb22"  />
			<stop offset="1" stop-color="#077734"  />
		</linearGradient>
		<linearGradient id="grd3" gradientUnits="userSpaceOnUse"  x1="1317.7" y1="216.2" x2="1630.4" y2="233.8">
			<stop offset="0" stop-color="#afcb22"  />
			<stop offset="1" stop-color="#077734"  />
		</linearGradient>
		<linearGradient id="grd4" gradientUnits="userSpaceOnUse"  x1="964.9" y1="475.2" x2="1125.6" y2="233.7">
			<stop offset="0" stop-color="#afcb22"  />
			<stop offset="1" stop-color="#077734"  />
		</linearGradient>
		<linearGradient id="grd5" gradientUnits="userSpaceOnUse"  x1="-618.7" y1="493.4" x2="-618.7" y2="979">
			<stop offset="0" stop-color="#afcb22"  />
			<stop offset="1" stop-color="#50a942"  />
		</linearGradient>
		<linearGradient id="grd6" gradientUnits="userSpaceOnUse"  x1="128.5" y1="586.6" x2="122.3" y2="792.7">
			<stop offset="0" stop-color="#afcb22"  />
			<stop offset="1" stop-color="#077734"  />
		</linearGradient>
		<linearGradient id="grd7" gradientUnits="userSpaceOnUse"  x1="-231.4" y1="1293.8" x2="-26.1" y2="1544.4">
			<stop offset="0" stop-color="#afcb22"  />
			<stop offset="1" stop-color="#077734"  />
		</linearGradient>
		<linearGradient id="grd8" gradientUnits="userSpaceOnUse"  x1="1722.8" y1="586.6" x2="1729" y2="792.7">
			<stop offset="0" stop-color="#afcb22"  />
			<stop offset="1" stop-color="#077734"  />
		</linearGradient>
		<linearGradient id="grd9" gradientUnits="userSpaceOnUse"  x1="2082.7" y1="1293.8" x2="1877.5" y2="1544.4">
			<stop offset="0" stop-color="#afcb22"  />
			<stop offset="1" stop-color="#077734"  />
		</linearGradient>
		<linearGradient id="grd10" gradientUnits="userSpaceOnUse"  x1="616.3" y1="978.2" x2="616.3" y2="1048.9">
			<stop offset="0" stop-color="#afcb22"  />
			<stop offset="1" stop-color="#077734"  />
		</linearGradient>
		<linearGradient id="grd11" gradientUnits="userSpaceOnUse"  x1="662.6" y1="1017" x2="662.6" y2="1067.3">
			<stop offset="0" stop-color="#afcb22"  />
			<stop offset="1" stop-color="#077734"  />
		</linearGradient>
		<linearGradient id="grd12" gradientUnits="userSpaceOnUse"  x1="542.3" y1="661.3" x2="474.1" y2="713.1">
			<stop offset="0" stop-color="#afcb22"  />
			<stop offset="1" stop-color="#077734"  />
		</linearGradient>
		<linearGradient id="grd13" gradientUnits="userSpaceOnUse"  x1="445.5" y1="581.8" x2="326.8" y2="685.4">
			<stop offset="0" stop-color="#afcb22"  />
			<stop offset="1" stop-color="#077734"  />
		</linearGradient>
		<linearGradient id="grd14" gradientUnits="userSpaceOnUse"  x1="789.5" y1="1229.5" x2="885" y2="1323.6">
			<stop offset="0" stop-color="#afcb22"  />
			<stop offset="1" stop-color="#077734"  />
		</linearGradient>
		<linearGradient id="grd15" gradientUnits="userSpaceOnUse"  x1="829" y1="1242.9" x2="932.7" y2="1342.4">
			<stop offset="0" stop-color="#afcb22"  />
			<stop offset="1" stop-color="#077734"  />
		</linearGradient>
		<linearGradient id="grd16" gradientUnits="userSpaceOnUse"  x1="1526.6" y1="588.3" x2="1475.6" y2="491.1">
			<stop offset="0" stop-color="#71c5eb"  />
			<stop offset="1" stop-color="#71c5eb" stop-opacity="0" />
		</linearGradient>
		<linearGradient id="grd17" gradientUnits="userSpaceOnUse"  x1="1280.9" y1="677.9" x2="1352" y2="663">
			<stop offset="0" stop-color="#0c0c0c"  />
			<stop offset="1" stop-color="#831e1c"  />
		</linearGradient>
		<linearGradient id="grd18" gradientUnits="userSpaceOnUse"  x1="1093.5" y1="930.5" x2="1104" y2="993.8">
			<stop offset="0" stop-color="#671f20"  />
			<stop offset="1" stop-color="#671f20" stop-opacity="0" />
		</linearGradient>
		<linearGradient id="grd19" gradientUnits="userSpaceOnUse"  x1="1339.4" y1="1345.7" x2="1551" y2="1295.2">
			<stop offset="0" stop-color="#71c5eb"  />
			<stop offset="1" stop-color="#71c5eb" stop-opacity="0" />
		</linearGradient>
		<linearGradient id="grd20" gradientUnits="userSpaceOnUse"  x1="898" y1="787.2" x2="932.4" y2="937.3">
			<stop offset="0" stop-color="#71c5eb"  />
			<stop offset="1" stop-color="#71c5eb" stop-opacity="0" />
		</linearGradient>
		<linearGradient id="grd21" gradientUnits="userSpaceOnUse"  x1="567.8" y1="653.7" x2="575.6" y2="817.4">
			<stop offset="0" stop-color="#d77d52"  />
			<stop offset=".5" stop-color="#992c26"  />
			<stop offset="1" stop-color="#5b1315"  />
		</linearGradient>
		<linearGradient id="grd22" gradientUnits="userSpaceOnUse"  x1="1284.3" y1="692.2" x2="1230.7" y2="554.5">
			<stop offset="0" stop-color="#551617"  />
			<stop offset="1" stop-color="#551617" stop-opacity="0" />
		</linearGradient>
		<linearGradient id="grd23" gradientUnits="userSpaceOnUse"  x1="973.9" y1="391.5" x2="860" y2="388.8">
			<stop offset="0" stop-color="#551617"  />
			<stop offset="1" stop-color="#551617" stop-opacity="0" />
		</linearGradient>
		<linearGradient id="grd24" gradientUnits="userSpaceOnUse"  x1="676.2" y1="907.7" x2="736.9" y2="975">
			<stop offset="0" stop-color="#f36943"  />
			<stop offset="1" stop-color="#ffbc88"  />
		</linearGradient>
		<linearGradient id="grd25" gradientUnits="userSpaceOnUse"  x1="772.1" y1="806.3" x2="814.4" y2="923.2">
			<stop offset="0" stop-color="#71c5eb"  />
			<stop offset="1" stop-color="#71c5eb" stop-opacity="0" />
		</linearGradient>
		<linearGradient id="grd26" gradientUnits="userSpaceOnUse"  x1="1424.4" y1="599.7" x2="1410.4" y2="531.3">
			<stop offset="0" stop-color="#71c5eb"  />
			<stop offset="1" stop-color="#71c5eb" stop-opacity="0" />
		</linearGradient>
		<linearGradient id="grd27" gradientUnits="userSpaceOnUse"  x1="1288.2" y1="733.1" x2="1432" y2="677.6">
			<stop offset="0" stop-color="#71c5eb"  />
			<stop offset="1" stop-color="#71c5eb" stop-opacity="0" />
		</linearGradient>
		<linearGradient id="grd28" gradientUnits="userSpaceOnUse"  x1="784.9" y1="551.2" x2="778.4" y2="603.3">
			<stop offset="0" stop-color="#d77d52"  />
			<stop offset=".5" stop-color="#992c26"  />
			<stop offset="1" stop-color="#5b1315"  />
		</linearGradient>
		<linearGradient id="grd29" gradientUnits="userSpaceOnUse"  x1="840.3" y1="564.9" x2="822.7" y2="600">
			<stop offset="0" stop-color="#d77d52"  />
			<stop offset=".5" stop-color="#992c26"  />
			<stop offset="1" stop-color="#5b1315"  />
		</linearGradient>
		<linearGradient id="grd30" gradientUnits="userSpaceOnUse"  x1="643.3" y1="833.8" x2="778.7" y2="817.4">
			<stop offset="0" stop-color="#0c0c0c"  />
			<stop offset="1" stop-color="#831e1c"  />
		</linearGradient>
		<linearGradient id="grd31" gradientUnits="userSpaceOnUse"  x1="286.7" y1="909.7" x2="303.7" y2="985">
			<stop offset="0" stop-color="#2c2f2f"  />
			<stop offset="1" stop-color="#2c2f2f" stop-opacity="0" />
		</linearGradient>
		<linearGradient id="grd32" gradientUnits="userSpaceOnUse"  x1="1687.7" y1="664.6" x2="1646.5" y2="1122.7">
			<stop offset="0" stop-color="#ade4f8"  />
			<stop offset="1" stop-color="#3f93d0"  />
		</linearGradient>
		<linearGradient id="grd33" gradientUnits="userSpaceOnUse"  x1="802.5" y1="905.5" x2="759.6" y2="975">
			<stop offset="0" stop-color="#276ab9"  />
			<stop offset="1" stop-color="#276ab9" stop-opacity="0" />
		</linearGradient>
		<linearGradient id="grd34" gradientUnits="userSpaceOnUse"  x1="322.9" y1="999.6" x2="458.2" y2="1157.8">
			<stop offset="0" stop-color="#f36943"  />
			<stop offset="1" stop-color="#ffbc88"  />
		</linearGradient>
		<linearGradient id="grd35" gradientUnits="userSpaceOnUse"  x1="485.1" y1="654.2" x2="457.5" y2="753.3">
			<stop offset="0" stop-color="#db542d"  />
			<stop offset="1" stop-color="#db542d" stop-opacity="0" />
		</linearGradient>
		<linearGradient id="grd36" gradientUnits="userSpaceOnUse"  x1="817.4" y1="225.8" x2="566" y2="224">
			<stop offset="0" stop-color="#ade4f8"  />
			<stop offset="1" stop-color="#3f93d0"  />
		</linearGradient>
		<linearGradient id="grd37" gradientUnits="userSpaceOnUse"  x1="926.1" y1="828.3" x2="880.6" y2="904">
			<stop offset="0" stop-color="#276ab9"  />
			<stop offset="1" stop-color="#276ab9" stop-opacity="0" />
		</linearGradient>
		<linearGradient id="grd38" gradientUnits="userSpaceOnUse"  x1="632.3" y1="720.3" x2="766.3" y2="704">
			<stop offset="0" stop-color="#0c0c0c"  />
			<stop offset="1" stop-color="#831e1c"  />
		</linearGradient>
	</defs>
	<style>
		tspan { white-space:pre }
		.s0 { fill: url(#grd1) } 
		.s1 { fill: #f2f0f0 } 
		.s2 { fill: url(#grd2) } 
		.s3 { fill: #ffffff } 
		.s4 { fill: url(#grd3) } 
		.s5 { fill: #f9f7f6 } 
		.s6 { fill: url(#grd4) } 
		.s7 { fill: #fbfbfb } 
		.s8 { fill: #077734 } 
		.s9 { fill: url(#grd5) } 
		.s10 { opacity: .1;fill: #fce240 } 
		.s11 { fill: #fce240 } 
		.s12 { fill: #feb548 } 
		.s13 { fill: #afcb22 } 
		.s14 { fill: url(#grd6) } 
		.s15 { fill: #fffdfd } 
		.s16 { fill: url(#grd7) } 
		.s17 { fill: url(#grd8) } 
		.s18 { fill: url(#grd9) } 
		.s19 { fill: url(#grd10) } 
		.s20 { fill: url(#grd11) } 
		.s21 { fill: url(#grd12) } 
		.s22 { fill: url(#grd13) } 
		.s23 { fill: url(#grd14) } 
		.s24 { fill: url(#grd15) } 
		.s25 { fill: #e2e9f9 } 
		.s26 { fill: url(#grd16) } 
		.s27 { fill: url(#grd17) } 
		.s28 { fill: #66201e } 
		.s29 { fill: #952f2c } 
		.s30 { fill: url(#grd18) } 
		.s31 { fill: url(#grd19) } 
		.s32 { fill: #f4b79b } 
		.s33 { fill: url(#grd20) } 
		.s34 { fill: url(#grd21) } 
		.s35 { fill: url(#grd22) } 
		.s36 { fill: url(#grd23) } 
		.s37 { fill: url(#grd24) } 
		.s38 { fill: url(#grd25) } 
		.s39 { fill: url(#grd26) } 
		.s40 { fill: #ef9970 } 
		.s41 { fill: url(#grd27) } 
		.s42 { fill: url(#grd28) } 
		.s43 { fill: url(#grd29) } 
		.s44 { fill: url(#grd30) } 
		.s45 { fill: #323232 } 
		.s46 { fill: #616161 } 
		.s47 { fill: url(#grd31) } 
		.s48 { fill: url(#grd32) } 
		.s49 { fill: url(#grd33) } 
		.s50 { fill: url(#grd34) } 
		.s51 { fill: url(#grd35) } 
		.s52 { fill: url(#grd36) } 
		.s53 { fill: url(#grd37) } 
		.s54 { fill: #6bc1ff } 
		.s55 { fill: url(#grd38) } 
	</style>
	<g id="Layer 1">
		<g id="Layer5 1 ">
			<g id="&lt;Group&gt;">
				<g id="&lt;Group&gt;">
					<g id="&lt;Group&gt;">
						<path id="&lt;Path&gt;" class="s0" d="m368.81 914.21c-17.99 25.5-41.65 31.29-70.99 17.36c-43.99-20.91-23.37-38.09-48.1-39.4c-24.73-1.32-68.21 23.45-70.29-3.34c-2.08-26.79-21.43-31.91-42.36-27.83c-20.92 4.08-36.63 16.47-46.84-17.15c-10.21-33.63-59.54-45.97-46.67-64.23c12.87-18.26 55.78 25.69 73.58 7.66c17.81-18.03 5.45-36.16 25.23-27.64c19.78 8.53 40.1 48.12 53.31 40.54c13.2-7.58 3.94-39.26 29.44-23.85c25.51 15.4 34.34 43.67 49.91 40.98c15.57-2.7-4.49-26.75 18.77-23.52c23.25 3.24 59.98 14.43 81.78 52.1c14.53 25.12 22.95 46.46 25.27 64.04" />
					</g>
					<g id="&lt;Group&gt;">
						<path id="&lt;Path&gt;" class="s1" d="m132.16 818.41c-27.17-8.99-51.99-19.22-74.46-30.68c43.66 16.11 79.26 27.29 106.77 33.53c-6.23-10.48-19.98-36.78-23.67-43.42c-0.5-0.71-0.81-1.2-0.89-1.42c-0.14-0.38 0.2 0.17 0.89 1.42c4.87 6.93 27.94 35.22 36.76 45.99c1.56 0.25 3.05 0.45 4.47 0.62c13.37 1.55 34.62 5.31 59.04 10.79l-20.11-41l36.59 44.86c20.37 4.94 42.1 10.91 62.83 17.67c-5.22-8.68-13.83-23.62-25.84-44.81c18.03 22.69 30.88 39.05 38.56 49.1c7.48 2.62 14.76 5.34 21.7 8.15c-3.63-10.09-8.53-24.93-14.7-44.53l22.47 47.76c2.82 1.21 5.57 2.44 8.25 3.68l1.96 12.22c-7.37-2.85-16.75-6.35-28.15-10.5l-53.56 27.44l44.51-30.71c-10.57-3.79-22.77-8.05-35.73-12.39l-30.91 14.36l23.88-16.69c-19.66-6.48-40.65-12.96-60.12-18.1c-4.44 3.57-14.62 11.31-37.76 27.73c9.36-7.95 22.31-23.82 27.5-30.35l-0.08-0.01c-4.49-1.1-8.99-2.14-13.51-3.11c-3.72-0.79-7.44-1.52-11.18-2.18c-1.93-0.34-3.85-0.65-5.78-0.94c-0.96-0.14-1.92-0.27-2.87-0.4c-0.83-0.12-1.67-0.24-2.49-0.37c-3.26-0.5-6.49-1.07-9.72-1.7c-4.5-0.88-8.98-1.87-13.44-2.96c-6.73-1.64-13.42-3.49-20.05-5.5l-0.08-0.02l-42.74 16.63c14.53-9.6 25.08-16.32 31.65-20.16z" />
					</g>
				</g>
				<g id="&lt;Group&gt;">
					<g id="&lt;Group&gt;">
						<path id="&lt;Path&gt;" class="s2" d="m299.42 795.57c-29.74 9.48-52.1-0.18-67.09-28.98c-22.47-43.21 4.34-44.48-14.59-60.44c-18.93-15.97-68.54-22.45-54.04-45.07c14.5-22.62 2.17-38.38-16.99-47.75c-19.15-9.37-39.15-8.96-27-41.94c12.15-32.98-19.75-72.58 1.53-79.38c21.28-6.8 28.99 54.14 54.06 50.5c25.08-3.64 26.16-25.56 36.79-6.82c10.63 18.73 2.95 62.57 18.06 64.49c15.1 1.92 26.83-28.93 37.87-1.26c11.05 27.67 1.04 55.55 15.08 62.79c14.04 7.24 12.56-24.04 29.16-7.43c16.59 16.61 39.13 47.69 33.79 90.89c-3.57 28.8-9.73 50.9-18.49 66.32" />
					</g>
					<g id="&lt;Group&gt;">
						<path id="&lt;Path&gt;" class="s3" d="m168.49 576.39c-16.24-23.56-29.87-46.69-40.87-69.39c25.1 39.19 46.75 69.58 64.93 91.16c1.35-12.12 6.25-41.39 7.32-48.9c0.03-0.87 0.08-1.45 0.15-1.67c0.12-0.39 0.05 0.25-0.15 1.67c-0.3 8.47 1.03 44.95 1.57 58.85c1.1 1.14 2.16 2.2 3.19 3.19c9.73 9.31 24.41 25.12 40.58 44.23l8.7-44.83l2.12 57.85c13.26 16.23 26.99 34.11 39.44 52c1.08-10.07 3.22-27.18 6.43-51.33c0.69 28.97 1.07 49.78 1.13 62.42c4.38 6.6 8.55 13.16 12.39 19.59c3.2-10.23 8.24-25.03 15.14-44.38l-10.89 51.65c1.51 2.67 2.97 5.31 4.36 7.92l-5.81 10.92c-4.15-6.72-9.53-15.17-16.12-25.35l-59.27-10.43l54.02 2.36c-6.14-9.4-13.3-20.16-21.02-31.43l-33.31-7.2l29.12 1.1c-11.77-17.03-24.59-34.86-37.03-50.71c-5.69 0.17-18.48 0.2-46.84-0.67c12.26-0.69 32.16-5.54 40.24-7.61l-0.05-0.06c-2.92-3.59-5.88-7.13-8.9-10.63c-2.49-2.87-5.01-5.7-7.6-8.48c-1.33-1.43-2.68-2.84-4.04-4.24c-0.68-0.69-1.37-1.37-2.05-2.05c-0.59-0.6-1.18-1.2-1.76-1.8c-2.3-2.36-4.53-4.77-6.73-7.22c-3.06-3.42-6.04-6.91-8.93-10.47c-4.38-5.37-8.6-10.88-12.67-16.48l-0.05-0.06l-44.12-12.52c17.38 1.11 29.85 2.12 37.4 3.02z" />
					</g>
				</g>
				<g id="&lt;Group&gt;">
					<g id="&lt;Group&gt;">
						<path id="&lt;Path&gt;" class="s4" d="m1333.36 943.4c3.87-17.3 14.15-37.81 30.85-61.54c25.06-35.59 62.64-43.47 86.09-44.63c23.45-1.15 1.34 21.03 16.6 25.09c15.27 4.07 26.58-23.31 53.35-36.38c26.77-13.08 14.73 17.65 27.21 26.37c12.48 8.73 36.24-28.91 56.7-35.64c20.46-6.74 6.54 10.23 22.67 29.77c16.13 19.54 62.77-20.42 73.97-1.09c11.2 19.33-39.03 27.24-52.19 59.83c-13.16 32.59-27.7 18.85-48.17 12.93c-20.49-5.92-40.21-2.54-44.67 23.96c-4.46 26.5-45.55-2.03-70.31-2.91c-24.75-0.89-5.74 18.06-51.41 34.97c-30.45 11.27-53.51 3.4-69.16-23.6" />
					</g>
					<g id="&lt;Group&gt;">
						<path id="&lt;Path&gt;" class="s5" d="m1638.85 899.02l-41.1-20.36l-0.08 0.01c-6.78 1.41-13.6 2.66-20.46 3.69c-4.53 0.69-9.09 1.28-13.65 1.75c-3.27 0.34-6.55 0.62-9.83 0.83c-0.83 0.06-1.67 0.11-2.51 0.15c-0.96 0.05-1.93 0.09-2.89 0.15c-1.94 0.12-3.89 0.26-5.84 0.42c-3.78 0.32-7.56 0.72-11.33 1.17c-4.59 0.56-9.16 1.2-13.73 1.89l-0.08 0.01c4.59 6.96 16.08 23.92 24.7 32.67c-21.59-18.41-31.05-27.03-35.15-30.97c-19.86 3.39-41.34 7.98-61.49 12.69l22.31 18.75l-29.51-17.05c-13.29 3.17-25.82 6.33-36.68 9.17l41.6 34.54l-50.92-32.09c-11.73 3.11-21.38 5.77-28.97 7.95l3.04-11.99c2.78-1 5.64-1.98 8.55-2.94l26.63-45.58c-7.89 18.97-14.09 33.32-18.6 43.05c7.17-2.18 14.66-4.24 22.34-6.19c8.53-9.32 22.79-24.48 42.77-45.48c-13.85 20.04-23.75 34.15-29.72 42.34c21.24-4.89 43.42-8.91 64.15-12.02l40.43-41.43l-23.67 39.05c24.81-3.29 46.31-5.14 59.77-5.5c1.42-0.04 2.92-0.11 4.5-0.22c9.74-9.94 35.23-36.07 40.7-42.54c0.8-1.18 1.19-1.7 1.01-1.34c-0.1 0.21-0.45 0.67-1.01 1.34c-4.26 6.29-20.29 31.25-27.43 41.14c27.96-3.77 64.41-11.74 109.33-23.91c-23.4 9.42-49.03 17.4-76.89 23.95c6.2 4.4 16.11 12.03 29.73 22.89z" />
					</g>
				</g>
				<g id="&lt;Group&gt;">
					<g id="&lt;Group&gt;">
						<path id="&lt;Path&gt;" class="s6" d="m1498.55 831.2c-7.79-15.92-12.58-38.36-14.37-67.33c-2.67-43.45 21.74-73.08 39.32-88.64c17.59-15.56 14.18 15.58 28.64 9.22c14.46-6.36 6.19-34.8 18.92-61.74c12.73-26.94 22.53 4.58 37.72 3.59c15.2-0.99 10.23-45.21 21.99-63.26c11.76-18.04 11.49 3.9 36.3 9.08c24.8 5.18 36.25-55.17 57.07-47.07c20.82 8.1-13.45 45.66-3.36 79.32c10.09 33.67-9.85 32.02-29.53 40.2c-19.7 8.18-32.98 23.14-19.9 46.62c13.08 23.47-36.83 26.88-56.71 41.66c-19.88 14.77 6.8 17.68-18.29 59.43c-16.73 27.83-39.65 36.09-68.74 24.79" />
					</g>
					<g id="&lt;Group&gt;">
						<path id="&lt;Path&gt;" class="s7" d="m1709.33 605.65l-44.81 9.78l-0.05 0.06c-4.41 5.34-8.96 10.58-13.66 15.67c-3.11 3.37-6.3 6.67-9.56 9.9c-2.34 2.31-4.72 4.58-7.16 6.79c-0.62 0.57-1.24 1.13-1.87 1.69c-0.72 0.64-1.45 1.28-2.17 1.92c-1.45 1.31-2.88 2.63-4.3 3.98c-2.76 2.61-5.45 5.29-8.11 8c-3.23 3.3-6.4 6.66-9.54 10.06l-0.05 0.05c7.94 2.56 27.51 8.63 39.7 10.07c-28.36-0.88-41.13-1.7-46.8-2.22c-13.38 15.05-27.29 32.06-40.08 48.33l29.13 0.7l-33.69 5.13c-8.39 10.78-16.2 21.08-22.91 30.08l54.06 0.97l-59.8 6.76c-7.21 9.76-13.09 17.86-17.65 24.31l-5.12-11.26c1.55-2.52 3.16-5.07 4.84-7.63l-7.69-52.22c5.7 19.74 9.82 34.82 12.38 45.23c4.23-6.18 8.79-12.47 13.58-18.79c0.84-12.61 2.49-33.36 4.97-62.23c1.71 24.3 2.8 41.51 3.25 51.63c13.53-17.1 28.33-34.09 42.57-49.47l5.68-57.61l5.92 45.28c17.32-18.07 32.94-32.95 43.22-41.64c1.08-0.92 2.21-1.92 3.38-2.99c1.39-13.85 4.97-50.17 5.19-58.65c-0.11-1.43-0.14-2.07-0.04-1.68c0.05 0.23 0.07 0.8 0.04 1.68c0.6 7.57 3.69 37.08 4.29 49.26c19.47-20.42 42.95-49.41 70.42-86.98c-12.38 21.98-27.41 44.23-45.07 66.74c7.59-0.44 20.1-0.67 37.52-0.71z" />
					</g>
				</g>
				<g id="&lt;Group&gt;">
					<g id="&lt;Group&gt;">
						<path id="&lt;Compound Path&gt;" fill-rule="evenodd" class="s8" d="m1465.91 757.26v-10.21h2.29l2.13-65.72h-12.38l0.46-9.56h12.23l2.47-76.43h-11.11l0.39-7.97h10.97l1.83-56.62h-13.18v-19.85h13.18v-107.95h-13.18v-19.85h23.84c-16.24-24.35-13.6-57.54 7.88-79.03l10.83-10.84l10.85 10.84c21.48 21.48 24.1 54.68 7.88 79.03h23.82v19.85h-13.17v107.95h13.17v19.85h-13.17l1.83 56.62h10.98l0.38 7.97h-11.11l2.47 76.43h12.25l0.44 9.56h-12.38l2.56 79.19c-8.99 1.02-18.13 1.54-27.4 1.54c-16.45 0-32.52-1.65-48.06-4.8zm58.92-246.37v-31.96c0-11.2-9.07-20.26-20.26-20.26c-11.19 0-20.26 9.07-20.26 20.26v31.96h40.52zm0.77-80.19c0-1.47-0.59-2.8-1.56-3.76c-0.95-0.96-2.29-1.56-3.75-1.56c-2.94 0-5.31 2.38-5.31 5.32v13.17h10.63v-13.17zm-15.71 0c0-1.47-0.59-2.8-1.56-3.76c-0.95-0.96-2.27-1.56-3.75-1.56c-2.94 0-5.31 2.38-5.31 5.32v13.17h10.63v-13.17zm-15.69 0c0-1.47-0.61-2.8-1.56-3.76c-0.97-0.96-2.29-1.56-3.76-1.56c-2.95 0-5.32 2.38-5.32 5.32v13.17h10.65v-13.17z" />
					</g>
					<g id="&lt;Group&gt;">
						<path id="&lt;Compound Path&gt;" fill-rule="evenodd" class="s8" d="m315.05 757.26v-10.21h2.29l2.13-65.72h-12.38l0.46-9.56h12.23l2.47-76.43h-11.11l0.39-7.97h10.97l1.83-56.62h-13.18v-19.85h13.18v-107.95h-13.18v-19.85h23.84c-16.24-24.35-13.6-57.54 7.88-79.03l10.83-10.84l10.85 10.84c21.48 21.48 24.1 54.68 7.88 79.03h23.82v19.85h-13.17v107.95h13.17v19.85h-13.17l1.83 56.62h10.98l0.38 7.97h-11.11l2.47 76.43h12.25l0.44 9.56h-12.38l2.56 79.19c-8.99 1.02-18.13 1.54-27.4 1.54c-16.45 0-32.52-1.65-48.06-4.8zm58.92-246.37v-31.96c0-11.2-9.07-20.26-20.26-20.26c-11.19 0-20.26 9.07-20.26 20.26v31.96h40.52zm0.77-80.19c0-1.47-0.59-2.8-1.56-3.76c-0.95-0.96-2.29-1.56-3.75-1.56c-2.94 0-5.31 2.38-5.31 5.32v13.17h10.63v-13.17zm-15.71 0c0-1.47-0.59-2.8-1.57-3.76c-0.95-0.96-2.27-1.56-3.75-1.56c-2.94 0-5.31 2.38-5.31 5.32v13.17h10.63v-13.17zm-15.69 0c0-1.47-0.61-2.8-1.56-3.76c-0.97-0.96-2.29-1.56-3.76-1.56c-2.95 0-5.32 2.38-5.32 5.32v13.17h10.65v-13.17z" />
					</g>
					<g id="&lt;Group&gt;">
						<path id="&lt;Path&gt;" class="s9" d="m494.73 557.65c112.54-92.96 110.31-159.84 183.86-236.93c73.55-77.09 195.01-177.98 421.22-137.17c226.2 40.81 393.36 406.98 377.76 554.36c-15.61 147.37-152.67 310.62-529.32 323.09c-251.09 8.31-441.15-46.56-570.17-164.62c-117.75-109.07 4.09-245.77 116.64-338.73z" />
					</g>
					<g id="&lt;Group&gt;">
						<g id="&lt;Group&gt;">
							<path id="&lt;Path&gt;" class="s10" d="m933.23 235.26c144.51 0 261.65 117.15 261.65 261.65c0 144.51-117.15 261.65-261.65 261.65c-144.51 0-261.65-117.15-261.65-261.65c0-144.51 117.15-261.65 261.65-261.65z" />
						</g>
					</g>
					<g id="&lt;Group&gt;">
						<g id="&lt;Group&gt;">
							<path id="&lt;Path&gt;" class="s10" d="m933.26 183.81c172.92 0 313.1 140.18 313.1 313.1c0 172.92-140.18 313.1-313.1 313.1c-172.92 0-313.1-140.18-313.1-313.1c0-172.92 140.18-313.1 313.1-313.1z" />
						</g>
					</g>
					<g id="&lt;Group&gt;">
						<path id="&lt;Path&gt;" class="s10" d="m563.22 488.98c48.13-60.22 61.18-111.48 115.37-168.27c73.54-77.09 195-177.98 421.22-137.17c18.34 3.31 36.3 8.76 53.8 16.06c90.85 67.47 149.76 175.57 149.76 297.31c0 204.27-165.84 370.11-370.12 370.11c-204.27 0-370.12-165.84-370.12-370.11c0-2.66 0.03-5.3 0.08-7.93z" />
					</g>
					<g id="&lt;Group&gt;">
						<path id="&lt;Path&gt;" class="s10" d="m501.73 551.76c105.48-89.92 104.87-155.6 176.86-231.05c73.54-77.09 195-177.98 421.22-137.17c98.44 17.76 185.71 97.14 251.6 193.32c10.95 38.16 16.81 78.43 16.81 120.05c0 240.06-194.91 434.96-434.96 434.96c-221.48 0-404.51-165.9-431.53-380.11z" />
					</g>
					<g id="&lt;Group&gt;">
						<g id="&lt;Group&gt;">
							<path id="&lt;Path&gt;" class="s10" d="m933.27 270.02c125.31 0 226.89 101.58 226.89 226.89c0 125.31-101.58 226.89-226.89 226.89c-125.31 0-226.89-101.58-226.89-226.89c0-125.31 101.58-226.89 226.89-226.89z" />
						</g>
					</g>
					<g id="&lt;Group&gt;">
						<g id="&lt;Group&gt;">
							<path id="&lt;Path&gt;" class="s10" d="m933.25 307.1c104.83 0 189.81 84.98 189.81 189.81c0 104.83-84.98 189.81-189.81 189.81c-104.83 0-189.81-84.98-189.81-189.81c0-104.83 84.98-189.81 189.81-189.81z" />
						</g>
					</g>
					<g id="&lt;Group&gt;">
						<g id="&lt;Group&gt;">
							<path id="&lt;Path&gt;" class="s10" d="m933.25 333.52c90.24 0 163.39 73.15 163.39 163.39c0 90.24-73.15 163.39-163.39 163.39c-90.24 0-163.39-73.15-163.39-163.39c0-90.24 73.15-163.39 163.39-163.39z" />
						</g>
					</g>
					<g id="&lt;Group&gt;">
						<g id="&lt;Group&gt;">
							<path id="&lt;Path&gt;" class="s11" d="m933.26 350.86c80.66 0 146.06 65.39 146.06 146.06c0 80.66-65.39 146.06-146.06 146.06c-80.66 0-146.06-65.39-146.06-146.06c0-80.66 65.39-146.06 146.06-146.06z" />
						</g>
						<g id="&lt;Group&gt;">
							<path id="&lt;Compound Path&gt;" class="s12" d="m832.73 602.84c6.94 0.96 16.95-0.35 21.52 0.16c3.36 0.37 6.6 1 9.97 1.3c6.71 0.61 13.2 2.86 19.97 3.47c6.24 0.57 12.49-0.39 18.66-0.87c2.02-0.16 4.06-0.14 6.1-0.08c-4.5 0.52-9 0.98-13.47 1.39c-4.59 0.42-9.32-0.51-13.89 0c-9.57 1.06-22.36 2.72-31.71-0.4c-5.08-1.69-10.47-2.4-15.6-3.94c-0.24-0.07-0.46-0.14-0.7-0.22l-0.44-0.42l-0.41-0.39zm76.22 3.98c9.19-1.05 18.37-2.33 27.32-3.82c9.81-1.64 19.91 0.53 29.88 1.1c-0.99 0.08-1.98 0.15-2.97 0.2c-8.67 0.48-17.38-0.11-26.04 0.43c-6.03 0.38-11.79 1.74-17.79 2.17c-3.45 0.25-6.91 0.02-10.39-0.08zm90.83-6.71c2.93-1.26 5.77-2.55 8.97-3.62c2.43-0.81 5.87-0.21 8.8 0.34c-5.89 1.18-11.84 2.33-17.77 3.27c-0.9 0.39-1.81 0.78-2.75 1.16c-6.2 2.52-13.88 1.79-20.4 2.6c-3.46 0.43-6.96 0.43-10.48 0.23c7.12-0.58 14.24-1.72 21.34-2.4c4.06-0.39 8.17-0.94 12.29-1.59zm38.04-1.25c-5.84-0.24-11.65-0.68-17.35-1.5c-0.85-0.12-1.85-0.32-2.92-0.52c3.46-0.69 6.9-1.4 10.3-2.08c4.37-0.87 8.81-2.07 13.02-3.47c1.21-0.4 3.48-1.76 3.48 0l0.18 0.21c-2.15 2.53-4.39 4.99-6.71 7.37zm-244.04-58.49c25.21 15.04 59.64 28.93 99.02 42.67c-33.55-2.78-65.2-12.36-91.26-22.96c-3.05-6.33-5.64-12.91-7.77-19.71zm273.04 15.7c-1.69 3.82-3.55 7.56-5.56 11.2c-0.81 0.08-1.63 0.15-2.43 0.21c-9.74 0.68-19.91-0.45-29.46 1.92c-11.16 2.78-21.87 6.16-33.31 7.91c-3.14 0.48-8.19 1.87-11.3 1.09c-0.99-0.25 1.98-0.48 2.97-0.73c2.18-0.54 4.36-1.05 6.55-1.57c6.69-1.59 13.31-3.43 20.01-5.01c17.75-4.18 35-10.02 52.53-15.02zm-278.55-76.86c2.12 1.15 4.16 3.3 5.65 4.44c4.71 3.6 9.92 7.35 15.2 9.98c8.17 4.09 17.78 5.16 26.47 7.81c9.64 2.94 18.64 7.23 28.21 10.42c3.91 1.3 7.74 2.78 11.7 3.83c1.81 0.06 3.68 0.08 5.66 0.08h10.42c0.43 0 1.6-0.31 1.3 0c-1.82 1.81-5.46 1.3-7.81 1.3c-3.32 0-6.47-0.56-9.57-1.38c-6.58-0.21-12.29-0.93-19.07-2.96c-13.1-3.93-24.56-11.25-37.76-13.45c-10.55-1.76-21.21-0.44-31.46-1.47v-0.88c0-6 0.37-11.91 1.07-17.72zm289.05-6.43c0.6 3.59 1.07 7.21 1.4 10.88c-2.32 2.43-5.44 4.48-7.46 4.77c-10.08 1.44-20.9 1.27-30.81 3.47c-5.41 1.2-9.75 4.57-14.75 6.51c-5.63 2.18-12.42 2.75-18.23 4.34c-6.51 1.77-12.97 3.57-19.53 5.21c-2.35 0.59-4.14 1.04-6.51 1.3c-1.3 0.14-5.14 0.9-3.91 0.43c7.1-2.69 14.82-5.81 22.13-8.25c13.9-4.64 28.66-6.24 42.53-11.44c5.07-1.9 9.64-5.07 14.32-7.66c2.15-1.19 4.71-1.57 6.95-2.6c4.76-2.2 9.28-4.67 13.87-6.97zm-272.39-45.62c4.23 4.99 14.4 9.32 18.5 10.92c15.07 5.86 31.62 9.1 47.31 12.59c4.7 1.04 9.4 2.04 13.88 3.47c1.42 0.45 4.07 0.16 5.21 1.3c0.72 0.72-2.01 0.43-3.04 0.43h-25.17c-7.52 0-14.69-2.33-22.14-3.47c-6.83-1.05-13.96-1.05-20.83-1.74c-5.64-0.56-12.31-3.54-17.79-5.21c-0.19-0.06-1.67-0.53-3.86-1.22c2.27-5.89 4.92-11.59 7.92-17.08zm33.24-13.86l10.45-4.3c33.62 6 37.79 4.81 76.3 3.75c21.06-0.58 37.18-0.53 56.51-3.75c5.92-0.99 11.66-2.28 17.35-3.91c5.03-1.43 9.54-2.72 9.55-2.6c0.02 0.16-0.78 0.84-0.87 0.87c-5.32 1.76-33.32 10.6-38.62 12.15c-10.21 3-20.31 1.44-30.81 2.6c-23.26 2.58-47.71 2.6-71.18 2.6c-8.21 0-16.9-4.85-24.74-6.51c-0.85-0.18-2.4-0.65-3.93-0.9zm0 0l-4.31 1.77c0-2.03 2.12-2.13 4.31-1.77zm48.21-40.33c11.23 0 22.48 2.17 33.85 2.17c6.42 0 13.12 0.53 19.53 0c7.8-0.65 14.88-4.51 22.56-5.21c1.13-0.1 12.46-1.04 12.59-0.87c0.81 1.04-5.86 3.39-6.07 3.47c-8.09 3.03-14.71 6.79-23.44 8.25c-16.35 2.72-34.96 5.56-51.65 3.47c-3.27-0.41-6.27-2.2-9.54-2.6c-8.96-1.12-17.35-3.04-26.47-3.04l28.65-5.64z" />
						</g>
					</g>
					<g id="&lt;Group&gt;">
						<path id="&lt;Path&gt;" class="s13" d="m277.94 500.94l-4.97-8.24c-3.28-5.43-4.26-11.95-2.73-18.11c1.53-6.16 5.44-11.46 10.87-14.74c3.16-1.9 5.96-3.59 8.42-5.07c1.48 2.45 3.17 5.26 5.08 8.42c3.28 5.43 4.26 11.95 2.73 18.11c-1.53 6.16-5.44 11.46-10.87 14.74l-8.36 5.04c9.46 8.22 18.36 17.61 26.73 27.82l-2.09-3.47c-3.28-5.43-4.26-11.95-2.73-18.11c1.53-6.16 5.44-11.46 10.87-14.74c3.16-1.9 5.96-3.59 8.42-5.07c1.48 2.45 3.17 5.26 5.07 8.42c3.28 5.43 4.26 11.95 2.73 18.11c-1.53 6.16-5.44 11.46-10.87 14.74l-7.75 4.67c6.97 8.87 13.55 18.3 19.76 28.1c-0.19-2.51 0.02-5.05 0.64-7.53c1.53-6.16 5.44-11.46 10.87-14.74c3.16-1.9 5.96-3.6 8.42-5.08c1.48 2.45 3.17 5.26 5.08 8.42c3.28 5.43 4.26 11.95 2.73 18.11c-1.53 6.16-5.44 11.46-10.87 14.74l-6.26 3.77c7.72 13.58 14.77 27.61 21.17 41.61l-0.57-6.16c-0.59-6.32 1.36-12.61 5.42-17.49c4.05-4.88 9.88-7.96 16.2-8.54c3.67-0.34 6.93-0.64 9.79-0.91c0.27 2.85 0.57 6.12 0.91 9.79c0.59 6.32-1.36 12.61-5.42 17.49c-4.05 4.88-9.88 7.95-16.2 8.54l-8.53 0.79c7.06 15.7 13.32 31.33 18.8 46.23l-0.28-2.97c-0.59-6.32 1.36-12.61 5.42-17.49c4.05-4.88 9.88-7.96 16.2-8.54c3.67-0.34 6.93-0.64 9.79-0.91c0.27 2.85 0.57 6.12 0.91 9.79c0.59 6.32-1.36 12.61-5.42 17.49c-4.05 4.88-9.88 7.95-16.2 8.54l-8.01 0.74c12.72 35.55 22.02 67.47 27.92 95.74l-18.42 3.34c-5.54-36.19-15.32-75.41-29.34-117.65l-2.68 2.32c-4.79 4.16-11.04 6.24-17.37 5.79c-6.33-0.45-12.22-3.4-16.38-8.19c-2.42-2.79-4.56-5.26-6.44-7.43c2.17-1.88 4.64-4.03 7.43-6.44c4.79-4.16 11.04-6.24 17.37-5.79c4.77 0.34 9.29 2.09 13 4.99c-4.25-11.91-8.94-24.02-14.11-36.02l-4.87 4.22c-4.79 4.16-11.04 6.24-17.37 5.79c-6.33-0.45-12.22-3.4-16.38-8.19c-2.42-2.79-4.56-5.26-6.44-7.43c2.17-1.88 4.64-4.03 7.43-6.44c4.79-4.16 11.04-6.24 17.37-5.79c5.95 0.42 11.52 3.06 15.62 7.36c-2.4-5.27-4.9-10.49-7.49-15.66c-5.47-10.9-11.35-21.53-17.69-31.67l-5.42 8c-3.56 5.25-9.06 8.88-15.29 10.08c-6.23 1.2-12.68-0.13-17.94-3.69c-3.05-2.07-5.77-3.91-8.14-5.51c1.61-2.37 3.45-5.09 5.52-8.14c3.56-5.25 9.06-8.88 15.29-10.08c6.23-1.2 12.69 0.13 17.94 3.69l7.83 5.3c-7.96-12.71-16.63-24.64-26.04-35.34l-4.02 8.5c-2.72 5.74-7.6 10.16-13.57 12.3c-5.98 2.14-12.56 1.81-18.29-0.9c-3.33-1.58-6.29-2.98-8.89-4.21c1.23-2.59 2.63-5.55 4.21-8.89c2.71-5.74 7.6-10.16 13.57-12.29c5.98-2.14 12.56-1.81 18.29 0.9l7.98 3.78c-12.66-14.26-26.67-26.29-42.13-35.02c11.69 5.79 22.7 13.39 33.05 22.37z" />
					</g>
					<g id="&lt;Group&gt;">
						<path id="&lt;Path&gt;" class="s14" d="m405.63 809.86c7.49-56.91 8.24-97.34 2.25-121.31c-8.99-35.94-83.12-171.85 14.6-239.24c-6.74 26.96-10.11 48.86 26.96 102.21c37.06 53.35 77.5 118.29-8.43 262.83" />
						<path id="&lt;Path&gt;" class="s15" d="m442.37 803.08c-3.9-0.82-6.38-4.65-5.55-8.54c7.74-33.8 10.8-66.9 9.19-99.3c-1.16-23.32-5.44-46.18-16.13-62.4c-19.06-28.88-31.6-72.71-32.34-111.15c-0.61-31.18 6.56-58.75 23.93-72c0.66-0.52 1.61-0.41 2.14 0.25c0.52 0.66 0.4 1.61-0.25 2.13c-16.16 13.16-21.88 39.73-20.37 69.43c1.88 37.03 15.15 78.96 34.39 106.22c12.11 17.16 17.79 41.63 19.83 66.79c2.72 33.46 0.62 67.8-6.29 103.02c-0.82 3.89-4.65 6.38-8.54 5.56z" />
						<path id="&lt;Path&gt;" class="s16" d="m457.81 931.05c-54.63 2.57-106.69-20.24-156.18-68.45c-74.23-72.3-19.29-241.01-29.89-270.9c23.14 20.25 4.82 54.95 60.73 102.19c55.91 47.24 131.11 85.8 134 193.77" />
						<path id="&lt;Path&gt;" class="s3" d="m465.9 902.9c-1.26 3.77-5.34 5.82-9.11 4.56c-45.07-15.71-84.1-40.13-117.12-73.27c-21.38-21.47-39.42-47.77-47.29-79.11c-6.21-24.76-10.02-45.94-12.37-64.07c-7.27-56.06-0.33-82.64-8.85-95.84c-0.47-0.7-0.28-1.64 0.42-2.11c0.7-0.47 1.64-0.28 2.11 0.42c9.01 13.1 3.13 40.17 12.15 96.68c2.84 17.84 7.21 38.64 14.06 62.91c8.33 29.49 26.2 53.88 47.06 73.64c32.6 30.87 70.73 53.22 114.39 67.06c3.78 1.26 5.82 5.34 4.56 9.12z" />
					</g>
					<g id="&lt;Group&gt;">
						<path id="&lt;Path&gt;" class="s13" d="m1606.44 478.57c-15.46 8.73-29.47 20.77-42.13 35.02l7.98-3.78c5.74-2.72 12.32-3.04 18.29-0.9c5.98 2.14 10.86 6.56 13.57 12.29c1.58 3.33 2.98 6.29 4.21 8.89c-2.59 1.23-5.55 2.63-8.89 4.21c-5.74 2.71-12.32 3.04-18.29 0.9c-5.98-2.14-10.86-6.56-13.57-12.3l-4.02-8.5c-9.41 10.7-18.08 22.63-26.04 35.34l7.83-5.3c5.25-3.56 11.71-4.89 17.94-3.69c6.23 1.2 11.73 4.82 15.29 10.08c2.07 3.05 3.91 5.77 5.52 8.14c-2.37 1.61-5.09 3.45-8.14 5.51c-5.25 3.56-11.71 4.89-17.94 3.69c-6.23-1.2-11.73-4.82-15.29-10.08l-5.42-8c-6.33 10.14-12.22 20.77-17.69 31.67c-2.59 5.17-5.08 10.39-7.49 15.66c4.1-4.3 9.67-6.93 15.62-7.36c6.33-0.45 12.58 1.63 17.37 5.79c2.79 2.42 5.26 4.56 7.43 6.44c-1.88 2.17-4.02 4.64-6.44 7.43c-4.16 4.79-10.05 7.74-16.38 8.19c-6.33 0.45-12.58-1.63-17.37-5.79l-4.87-4.22c-5.17 12.01-9.86 24.11-14.11 36.02c3.72-2.89 8.23-4.65 13-4.99c6.33-0.45 12.58 1.63 17.37 5.79c2.79 2.42 5.26 4.56 7.43 6.44c-1.88 2.17-4.03 4.64-6.44 7.43c-4.16 4.79-10.05 7.74-16.38 8.19c-6.33 0.45-12.58-1.63-17.37-5.79l-2.68-2.32c-14.02 42.24-23.79 81.46-29.34 117.65l-18.42-3.34c5.9-28.28 15.21-60.19 27.92-95.74l-8.01-0.74c-6.32-0.59-12.15-3.66-16.2-8.54c-4.05-4.88-6-11.18-5.42-17.49c0.34-3.67 0.64-6.93 0.91-9.79c2.85 0.26 6.12 0.57 9.79 0.91c6.32 0.59 12.15 3.66 16.2 8.54c4.05 4.88 6 11.18 5.42 17.49l-0.28 2.97c5.48-14.9 11.74-30.53 18.8-46.23l-8.53-0.79c-6.32-0.59-12.15-3.66-16.2-8.54c-4.05-4.88-6-11.18-5.42-17.49c0.34-3.67 0.64-6.93 0.91-9.79c2.85 0.26 6.12 0.57 9.79 0.91c6.32 0.59 12.15 3.66 16.2 8.54c4.05 4.88 6 11.18 5.42 17.49l-0.57 6.16c6.41-14.01 13.46-28.03 21.17-41.61l-6.26-3.77c-5.43-3.28-9.35-8.58-10.87-14.74c-1.53-6.16-0.54-12.67 2.73-18.11c1.9-3.16 3.6-5.96 5.08-8.42c2.45 1.48 5.26 3.17 8.42 5.08c5.44 3.28 9.35 8.58 10.87 14.74c0.62 2.49 0.82 5.03 0.64 7.53c6.21-9.8 12.8-19.23 19.76-28.1l-7.75-4.67c-5.44-3.28-9.35-8.58-10.87-14.74c-1.53-6.16-0.54-12.67 2.73-18.11c1.9-3.16 3.59-5.96 5.07-8.42c2.46 1.48 5.26 3.17 8.42 5.07c5.44 3.28 9.35 8.58 10.87 14.74c1.53 6.16 0.54 12.67-2.73 18.11l-2.09 3.47c8.37-10.21 17.27-19.59 26.73-27.82l-8.36-5.04c-5.44-3.28-9.35-8.58-10.87-14.74c-1.53-6.16-0.54-12.67 2.73-18.11c1.9-3.16 3.6-5.96 5.08-8.42c2.46 1.48 5.26 3.17 8.42 5.07c5.44 3.28 9.35 8.58 10.87 14.74c1.53 6.16 0.54 12.67-2.73 18.11l-4.97 8.24c10.35-8.98 21.36-16.58 33.05-22.37z" />
					</g>
					<g id="&lt;Group&gt;">
						<path id="&lt;Path&gt;" class="s17" d="m1410.3 814.36c-85.93-144.54-45.49-209.48-8.43-262.83c37.07-53.35 33.7-75.25 26.96-102.21c97.72 67.39 23.59 203.3 14.6 239.24c-5.99 23.96-5.24 64.4 2.25 121.31" />
						<path id="&lt;Path&gt;" class="s3" d="m1400.41 797.52c-6.91-35.22-9.01-69.56-6.29-103.02c2.04-25.16 7.72-49.63 19.83-66.79c19.24-27.26 32.5-69.19 34.39-106.22c1.5-29.7-4.21-56.27-20.37-69.43c-0.65-0.52-0.77-1.47-0.25-2.13c0.53-0.66 1.48-0.77 2.14-0.25c17.37 13.26 24.54 40.83 23.93 72c-0.74 38.43-13.28 82.27-32.34 111.15c-10.7 16.22-14.97 39.08-16.13 62.4c-1.61 32.4 1.46 65.5 9.19 99.3c0.82 3.89-1.66 7.72-5.55 8.54c-3.9 0.82-7.72-1.67-8.54-5.56z" />
						<path id="&lt;Path&gt;" class="s18" d="m1384.84 887.67c2.89-107.97 78.09-146.54 134-193.77c55.91-47.24 37.6-81.94 60.73-102.19c-10.6 29.89 44.34 198.6-29.89 270.9c-49.49 48.2-101.55 71.02-156.18 68.45" />
						<path id="&lt;Path&gt;" class="s3" d="m1389.97 893.78c43.66-13.84 81.79-36.19 114.39-67.06c20.86-19.76 38.74-44.15 47.06-73.64c6.85-24.27 11.22-45.07 14.06-62.91c9.01-56.51 3.13-83.58 12.15-96.68c0.47-0.7 1.41-0.89 2.11-0.42c0.7 0.46 0.89 1.41 0.42 2.11c-8.52 13.2-1.59 39.78-8.85 95.84c-2.36 18.14-6.16 39.31-12.37 64.07c-7.86 31.34-25.91 57.64-47.29 79.11c-33.01 33.14-72.05 57.56-117.12 73.27c-3.77 1.26-7.85-0.78-9.11-4.56c-1.26-3.77 0.78-7.86 4.56-9.12z" />
					</g>
					<g id="&lt;Group&gt;">
						<path id="&lt;Path&gt;" class="s19" d="m769.86 1052.41l11.9-77.97c7.55-16.68 25.62-22.83 54.22-18.47c42.89 6.55 45.88-28.6 84.59-10.13c38.73 18.47 54.82-7.15 76.26 14.89c21.45 22.04 52.43-4.77 78.05 28c19.26 24.64 4.49 48.95-8.32 62.53c-36.54 4.99-75.91 8.31-118.32 9.71c-64.93 2.15-124.43-1.33-178.39-8.57z" />
					</g>
					<g id="&lt;Group&gt;">
						<path id="&lt;Path&gt;" class="s20" d="m784.15 1054.23l4.18-27.35c7.54-16.68 25.61-22.84 54.21-18.47c42.89 6.55 45.88-28.6 84.6-10.13c38.73 18.47 54.81-7.15 76.26 14.89c21.44 22.04 52.42-4.77 78.04 28c1.88 2.41 3.44 4.82 4.71 7.22c-41.88 6.6-87.76 10.93-137.9 12.59c-59.25 1.97-113.96-0.77-164.1-6.76z" />
					</g>
					<g id="&lt;Group&gt;">
						<path id="&lt;Path&gt;" class="s21" d="m579.28 1006.45c-1.41-15.93-0.44-28.03-3.83-42.75l47.28-148.45c38.86 9.53 63.78 25.66 74.77 48.38c16.5 34.09 49.49 30.79 56.08 63.78c6.6 32.99 47.28 29.69 52.78 62.68c5.5 32.98 36.29 28.59 46.18 57.17c1.68 4.86 3.93 9.18 6.46 13.15c-112.9-5.29-206.27-27.51-279.72-53.96z" />
					</g>
					<g id="&lt;Group&gt;">
						<path id="&lt;Path&gt;" class="s22" d="m609.5 856.81c18.3 7.44 42.78 20.69 52.56 40.91c16.5 34.09 49.48 30.79 56.08 63.78c6.6 32.98 47.29 29.69 52.79 62.68c2.87 17.25 12.66 24.28 22.77 31.14c-84.09-9.25-155.62-27.7-214.4-48.87c-1.41-15.93-0.44-28.03-3.83-42.75l34.04-106.88z" />
					</g>
					<g id="&lt;Group&gt;">
						<path id="&lt;Path&gt;" class="s23" d="m997.79 1058.39c4.06-5.52 7.82-11.54 10.32-18.76c9.89-28.59 40.68-24.2 46.18-57.18c5.5-32.99 46.18-29.69 52.78-62.68c6.6-32.99 39.59-29.69 56.08-63.78c11-22.72 35.92-38.85 74.77-48.38l47.28 148.45c-2.73 11.82-2.64 21.95-3.22 33.72c-71.1 34.92-164.3 59.93-284.2 68.61z" />
					</g>
					<g id="&lt;Group&gt;">
						<path id="&lt;Path&gt;" class="s24" d="m1248.78 841.67l36.43 114.38c-2.73 11.82-2.64 21.95-3.22 33.72c-61.06 29.99-138.42 52.66-234.98 63.97c13.09-15.11 34.19-17.28 38.65-44.03c5.5-32.98 46.18-29.69 52.78-62.68c6.6-32.99 39.59-29.69 56.08-63.78c10.09-20.85 35.8-34.29 54.26-41.59z" />
					</g>
					<g id="&lt;Group&gt;">
						<path id="&lt;Compound Path&gt;" fill-rule="evenodd" class="s8" d="m535.35 634.52v-8.58h1.92l1.79-55.22h-10.41l0.39-8.03h10.28l2.08-64.22h-9.33l0.33-6.7h9.22l1.54-47.58h-11.08v-16.68h11.08v-90.7h-11.08v-16.68h20.03c-13.65-20.46-11.43-48.35 6.63-66.4l9.1-9.11l9.12 9.11c18.05 18.05 20.25 45.95 6.63 66.4h20.01v16.68h-11.07v90.7h11.07v16.68h-11.07l1.54 47.58h9.23l0.32 6.7h-9.33l2.08 64.22h10.29l0.37 8.03h-10.41l2.15 66.54c-7.55 0.86-15.24 1.3-23.02 1.3c-13.83 0-27.33-1.39-40.39-4.03zm49.5-207.01v-26.86c0-9.41-7.62-17.03-17.02-17.03c-9.4 0-17.02 7.62-17.02 17.03v26.86h34.05zm0.64-67.38c0-1.23-0.5-2.35-1.31-3.16c-0.8-0.81-1.92-1.31-3.15-1.31c-2.47 0-4.46 2-4.46 4.47v11.07h8.93v-11.07zm-13.2 0c0-1.23-0.5-2.35-1.32-3.16c-0.8-0.81-1.91-1.31-3.15-1.31c-2.47 0-4.46 2-4.46 4.47v11.07h8.93v-11.07zm-13.18 0c0-1.23-0.52-2.35-1.31-3.16c-0.82-0.81-1.92-1.31-3.16-1.31c-2.47 0-4.47 2-4.47 4.47v11.07h8.95v-11.07z" />
					</g>
					<g id="&lt;Group&gt;">
						<path id="&lt;Compound Path&gt;" fill-rule="evenodd" class="s8" d="m1275.91 636.13v-8.58h1.92l1.79-55.22h-10.41l0.39-8.03h10.28l2.08-64.22h-9.33l0.33-6.7h9.22l1.54-47.58h-11.08v-16.68h11.08v-90.7h-11.08v-16.68h20.03c-13.65-20.46-11.43-48.35 6.63-66.4l9.1-9.11l9.12 9.11c18.05 18.05 20.25 45.95 6.63 66.4h20.01v16.68h-11.07v90.7h11.07v16.68h-11.07l1.54 47.58h9.23l0.32 6.7h-9.33l2.08 64.22h10.29l0.37 8.03h-10.41l2.15 66.54c-7.55 0.86-15.24 1.3-23.02 1.3c-13.83 0-27.33-1.39-40.39-4.03zm49.5-207.01v-26.86c0-9.41-7.62-17.03-17.02-17.03c-9.4 0-17.02 7.62-17.02 17.03v26.86h34.05zm0.64-67.38c0-1.23-0.5-2.35-1.31-3.16c-0.8-0.81-1.93-1.31-3.15-1.31c-2.47 0-4.46 2-4.46 4.47v11.07h8.93v-11.07zm-13.2 0c0-1.23-0.5-2.35-1.31-3.16c-0.8-0.81-1.91-1.31-3.15-1.31c-2.47 0-4.46 2-4.46 4.47v11.07h8.93v-11.07zm-13.18 0c0-1.23-0.52-2.35-1.31-3.16c-0.82-0.81-1.92-1.31-3.16-1.31c-2.47 0-4.47 2-4.47 4.47v11.07h8.95v-11.07z" />
					</g>
					<g id="&lt;Group&gt;">
						<path id="&lt;Path&gt;" class="s25" d="m1017.25 720.92c68.63-28.4 115.07-53.54 139.33-75.43c36.38-32.84 93.18-74.54 121.57-50.58c28.4 23.96 16.87 84.31-107.38 154.41c-82.82 46.74-129.56 67.15-140.22 61.23l-13.31-89.63z" />
					</g>
					<g id="&lt;Group&gt;">
						<path id="&lt;Path&gt;" class="s26" d="m1017.25 720.92c68.63-28.4 115.07-53.54 139.33-75.43c36.38-32.84 93.18-74.54 121.57-50.58c28.4 23.96 16.87 84.31-107.38 154.41c-82.82 46.74-129.56 67.15-140.22 61.23l-13.31-89.63z" />
					</g>
					<g id="&lt;Group&gt;">
						<path id="&lt;Path&gt;" class="s27" d="m1290.44 388.88c13.04 21.9 17.86 46.67 14.48 74.3c-3.39 27.64-20.47 49.8-51.24 66.48c-30.5-8.08-47.96-20.07-52.4-35.98c-6.65-23.85-11.34-24.64-10.16-57.49c0.78-21.9 5.86-40.41 15.25-55.53" />
					</g>
					<g id="&lt;Group&gt;">
						<path id="&lt;Path&gt;" class="s28" d="m1366.79 953.4c-42.08 26.99-94.18 49.97-157.77 66.85l-6.99-124.5l184.42-14.94l-19.66 72.59z" />
					</g>
					<g id="&lt;Group&gt;">
						<path id="&lt;Path&gt;" class="s29" d="m1392.18 935.74c-38.8 29.26-87.75 54.79-148.45 74.34l-24.76-107.32l179.89-43.27l-6.68 76.25z" />
					</g>
					<g id="&lt;Group&gt;">
						<path id="&lt;Path&gt;" class="s30" d="m1330.21 876.01l67.54-2.13l-1.96 25.46c-22.64 19.63-69.35 45.99-164.32 63.01l-12.5-59.58l111.24-26.76z" />
					</g>
					<g id="&lt;Group&gt;">
						<path id="&lt;Path&gt;" class="s3" d="m1303.08 553.86c35.13 30.51 75.81 118.32 121.1 308.75c-61.01 78.57-217.24 59.16-244.05 50.84c4.63-17.56 6.48-243.12 9.25-280.1c1.85-24.65 6.78-43.76 14.79-57.31c31.43-28.66 63.78-52.69 98.91-22.19z" />
					</g>
					<g id="&lt;Group&gt;">
						<path id="&lt;Path&gt;" class="s31" d="m1262.22 540.23c13.25-2.03 26.84 1.45 40.87 13.63c35.13 30.51 75.81 118.32 121.1 308.75c-6.96 8.96-15.16 16.64-24.24 23.21l-3.34-14.51c-36.34 17.58-79.13 26.38-128.37 26.38c65.65-12.31 108.44-29.01 128.37-50.11c-33.41-114.88-61.84-199.28-85.28-253.21c-13.86-31.89-32.1-47.24-49.1-54.14z" />
					</g>
					<g id="&lt;Group&gt;">
						<path id="&lt;Path&gt;" class="s32" d="m1264.73 485.28c0 3.5 0.93 55.94 7.23 67.13c-23.78 32.01-42.97 47.71-57.57 47.08l-17.48-47.32" />
					</g>
					<g id="&lt;Group&gt;">
						<path id="&lt;Path&gt;" class="s33" d="m1186.59 727.17c0.71-2.22 1.4-4.18 2.07-5.96c5.69-15.19 25.95-39.25 30.38-45.58l81.66-41.78c21.52 68.79 10.76 128.93-32.29 180.41c1.69-8.86 4.22-28.7 7.59-59.5c-25.42 43.02-56.21 75.55-92.37 97.59c1.12-36.56 2.06-83.63 2.94-125.18z" />
					</g>
					<g id="&lt;Group&gt;">
						<path id="&lt;Path&gt;" class="s34" d="m886.52 794.51c-23.51-6.25-36.16-21.43-37.95-45.54c-2.67-36.16 56.26-86.61 61.61-121.43c21.43-2.38 32.14-3.72 32.14-4.02c27.97 32.74 46.43 54.46 55.36 65.18c13.39 16.07 48.66 79.46-23.66 107.59" />
					</g>
					<g id="&lt;Group&gt;">
						<path id="&lt;Path&gt;" class="s35" d="m991.63 801.82c-34.03 7.99-61.4 8.58-82.11 1.77c-31.07-10.21-47.5-33.29-50.16-58.59c10.36 16.87 29.3 29 56.82 36.39c-24.27-12.72-31.96-32.84-23.08-60.36c8.29 25.74 38.62 45.86 90.99 60.36" />
					</g>
					<g id="&lt;Group&gt;">
						<path id="&lt;Path&gt;" class="s36" d="m916.98 626.78c-3.57 13.56-11.96 35.93-31.21 57.49c-23.51 26.33-30.82 83.38 4.76 110.32l-4-0.08c-23.51-6.25-36.16-21.43-37.95-45.54c-2.67-36.16 56.26-86.61 61.61-121.43c2.45-0.27 4.71-0.53 6.79-0.76z" />
					</g>
					<g id="&lt;Group&gt;">
						<path id="&lt;Path&gt;" class="s37" d="m1075.71 791.37l-60.17 17.26c-80.57 29.3-129.39 21.27-146.48-24.07c33.13 9.77 66.96 12.03 101.49 6.8c-10.12-0.7-19.71-2.27-28.77-4.71c-13.61-3.66-12.04-23.54-2.62-27.73c9.41-4.19 24.06 8.37 36.1 14.65c12.03 6.28 69.57-15.17 91.03-25.11" />
					</g>
					<g id="&lt;Group&gt;">
						<path id="&lt;Path&gt;" class="s3" d="m1036.71 754.82c68.63-28.4 115.07-53.54 139.33-75.43c36.38-32.84 93.18-74.54 121.57-50.58c28.4 23.96 16.87 84.31-107.38 154.41c-82.82 46.74-129.56 67.15-140.22 61.23l-13.31-89.63z" />
					</g>
					<g id="&lt;Group&gt;">
						<path id="&lt;Path&gt;" class="s38" d="m1308.42 644.43c10.19 29.58-15.51 80.85-118.18 138.78c-82.82 46.74-129.56 67.15-140.22 61.23l-6.98-47.05c35.38-15.49 117.47-53.21 151.45-83.88c32.45-29.28 78.34-64.41 113.94-69.1z" />
					</g>
					<g id="&lt;Group&gt;">
						<path id="&lt;Path&gt;" class="s3" d="m1274.33 551.48c-24.7 36.15-46.4 58.05-65.11 65.69c-0.42-1.97-0.79-3.73-1.11-5.31c-1.48-8.49 1.56-17.14 8.03-22.84c12.2-10.8 30.26-26.75 54.19-47.85l4 10.31z" />
					</g>
					<g id="&lt;Group&gt;">
						<path id="&lt;Path&gt;" class="s39" d="m1274.33 551.48c-24.7 36.15-46.4 58.05-65.11 65.69c-0.42-1.97-0.79-3.73-1.11-5.31c-1.48-8.49 1.56-17.14 8.03-22.84c12.2-10.8 30.26-26.75 54.19-47.85l4 10.31z" />
					</g>
					<g id="&lt;Group&gt;">
						<path id="&lt;Path&gt;" class="s32" d="m1262.94 498.11c2.55 5.63 0.63 13.57-5.77 23.82c-9.6 15.37-44.17 43.41-61.46 52.24c-17.28 8.83-31.88-3.07-44.94-24.2c-8.71-14.08-14.85-25.35-18.44-33.8l-20.36-1.92c-5.12-53.78-4.35-91.29 2.31-112.55l111.01-2.69l6.91 83.74l25.74-1.15l1.92-31.11c1.79-11.78 7.69-16.13 17.67-13.06c14.97 4.61 18.05 71.45-14.59 60.69z" />
					</g>
					<g id="&lt;Group&gt;">
						<path id="&lt;Path&gt;" class="s40" d="m1216.98 399.21l8.32-0.2l6.91 83.74l25.74-1.15l1.92-31.11c1.79-11.78 7.69-16.13 17.67-13.06c14.97 4.61 18.05 71.45-14.59 60.69c2.55 5.63 0.63 13.57-5.77 23.82c-9.6 15.37-44.17 43.41-61.46 52.24c-2.52 1.29-4.97 2.13-7.38 2.58c13.09-12.15 17.96-29.18 24.76-53.86c8.81-31.9 5.68-96.81 3.89-123.68z" />
					</g>
					<g id="&lt;Group&gt;">
						<path id="&lt;Path&gt;" class="s3" d="m1206.32 335.96c53.36 3.26 83.3 24.54 89.82 63.85l-184.53 2.75c9.23-47.69 40.8-69.89 94.71-66.6z" />
					</g>
					<g id="&lt;Group&gt;">
						<path id="&lt;Path&gt;" class="s41" d="m1194.44 335.78c3.79-0.13 7.75-0.07 11.88 0.18c53.36 3.26 83.3 24.54 89.82 63.85l-29.03 0.43c-20.03-38.63-48.69-56.39-72.66-64.46z" />
					</g>
					<g id="&lt;Group&gt;">
						<path id="&lt;Path&gt;" class="s42" d="m885.25 593.25c7.35-17.16 14.7-3.43 24.51-14.71c9.8-11.28 18.63 11.28 29.41-2.94c7.19-9.48 14.22-12.91 21.08-10.3c4.25 5.23 2.29 13.24-5.88 24.02c-8.17 10.79-13.08 19.29-14.71 25.5l-31.38 5.39l-23.04-26.97z" />
					</g>
					<g id="&lt;Group&gt;">
						<path id="&lt;Path&gt;" class="s43" d="m902.33 616.52l42.68-6.28l2.01 16.82l-43.43 4.27l-1.26-14.81z" />
					</g>
					<g id="&lt;Group&gt;">
						<path id="&lt;Path&gt;" class="s44" d="m655 412.48c8.54 15.62 12.59 34.38 12.16 56.29c-0.64 32.86-5.36 33.39-13.32 56.84c-5.3 15.63-23.4 26.65-54.3 33.03c-25.65-14.62-39.4-35.82-41.26-63.6c-1.86-27.78-1.08-48.51 2.35-62.18" />
					</g>
					<g id="&lt;Group&gt;">
						<path id="&lt;Path&gt;" class="s45" d="m450.34 869.08l183.32 25.09l-11.49 128.63c-62.57-20.37-124.86-48.67-165.38-77.93l-6.46-75.79z" />
					</g>
					<g id="&lt;Group&gt;">
						<path id="&lt;Path&gt;" class="s46" d="m439.13 847.1l177.22 53.13l-28.27 110.49c-59.53-22.87-117.04-42.21-154.16-73.56l5.2-90.06z" />
					</g>
					<g id="&lt;Group&gt;">
						<path id="&lt;Path&gt;" class="s10" d="m501.73 551.76c105.48-89.92 104.87-155.6 176.86-231.05c73.54-77.09 195-177.98 421.22-137.17c98.44 17.76 185.71 97.14 251.6 193.32c10.95 38.16 16.81 78.43 16.81 120.05c0 240.06-194.91 434.96-434.96 434.96c-221.48 0-404.51-165.9-431.53-380.11z" />
					</g>
					<g id="&lt;Group&gt;">
						<path id="&lt;Path&gt;" class="s47" d="m616.35 900.23l-15.77 58.8c-93.89-22.24-139.07-51.13-160.6-71.98l0.67-45.58l66.11 25.9l109.59 32.85z" />
					</g>
					<g id="&lt;Group&gt;">
						<path id="&lt;Path&gt;" class="s48" d="m646.41 607.68c7.25 13.98 11.12 33.33 11.61 58.04c0.73 37.07 2.03 212.98 5.68 230.77c-27.22 6.83-184.29 17.59-240.87-64.23c55.73-187.64 89.28-223.67 126.04-252.19c36.75-28.52 67.74-2.74 97.53 27.61z" />
					</g>
					<g id="&lt;Group&gt;">
						<path id="&lt;Path&gt;" class="s32" d="m654.99 584.26l-20.07 46.28c-14.62-0.18-32.91-16.91-54.89-50.19c6.9-10.82 10.73-63.14 10.92-66.63" />
					</g>
					<g id="&lt;Group&gt;">
						<g id="&lt;Group&gt;">
							<path id="&lt;Path&gt;" class="s49" d="m658.93 850.22c-27.27-22.23-50.4-54.92-69.39-98.07c2.34 30.82 4.13 50.67 5.35 59.54c-32.3-51.71-40.04-111.9-23.24-180.58l61.65 42.21c3.32 6.35 18.52 30.51 22.73 45.74c0.5 1.79 1.01 3.75 1.53 5.97c0.39 41.55 0.77 88.62 1.37 125.19z" />
						</g>
						<g id="&lt;Group&gt;">
							<path id="&lt;Path&gt;" class="s50" d="m710.87 716.37c19.69 13.08 151.17 92.56 164.01 88.18c12.85-4.38 29.24-14.57 37.91-9c8.68 5.57 7.21 25.45-6.8 27.01c-9.33 1.04-19.05 1.13-29.15 0.29c17.93 5.6 38.42 8.99 61.48 10.16c6.43 0.36 11.61 5.41 12.11 11.83c0.5 6.42-3.82 12.22-10.11 13.58c-31.2 6.4-68.05-2.04-110.57-25.33l-148.85-69.3" />
						</g>
						<path id="&lt;Path&gt;" class="s51" d="m699.54 734.28c32.44 23.75 123.81 88.83 167.39 101.13c40.43 11.4 67.55 13.41 90.23 10.46c-0.37 4.48-3.33 8.45-7.73 10c-31.42 11.3-71.31 3.71-119.69-22.79l-130.47-60.74l-6.65-27.11l6.91-10.94z" />
						<g id="&lt;Group&gt;">
							<path id="&lt;Path&gt;" class="s52" d="m709.39 802.49c8.45 6.48-5.37-0.63-41.46-21.33c-123.76-70.97-134.87-131.39-106.31-155.15c28.56-23.76 85.07 18.34 121.22 51.42c24.1 22.06 37.59 33.9 40.48 35.52l-13.93 89.54z" />
						</g>
						<g id="&lt;Group&gt;">
							<path id="&lt;Path&gt;" class="s53" d="m664.16 711.44c33.77 30.9 17.26 28.32 52.54 44.05l-7.31 47c54.86 33.09 41.04 25.98-41.46-21.33c-102.27-58.65-127.62-110.09-117.22-139.6c35.56 4.93 81.21 40.38 113.45 69.88z" />
						</g>
					</g>
					<g id="&lt;Group&gt;">
						<path id="&lt;Path&gt;" class="s54" d="m582.28 569.2c22.73 22.39 39.88 39.31 51.47 50.77c6.14 6.05 8.7 14.85 6.75 23.24c-0.41 1.56-0.88 3.3-1.41 5.24c-18.26-8.66-38.72-31.72-61.39-69.18l4.57-10.07z" />
					</g>
					<g id="&lt;Group&gt;">
						<path id="&lt;Path&gt;" class="s32" d="m580.8 465.22c10.14-2.52 15.79 2.15 16.93 14.02l0.2 31.17l25.63 2.57l11.52-83.23l99.96 11.56c3.81 14.99-4.04 41.88-3.26 64.01c0.6 17.12 3.97 32.37 10.09 45.75l-20.44 0.79c-4.04 8.24-10.8 19.15-20.27 32.73c-14.21 20.37-29.44 31.46-46.21 21.68c-16.77-9.78-49.74-39.68-58.48-55.55c-5.83-10.58-7.31-18.61-4.45-24.1c-33.19 8.94-26.43-57.63-11.22-61.4z" />
					</g>
					<g id="&lt;Group&gt;">
						<path id="&lt;Path&gt;" class="s40" d="m640.44 554.11c5.43 25.01 9.35 42.28 21.75 55.14c-2.38-0.58-4.79-1.56-7.23-2.98c-16.77-9.78-49.74-39.68-58.48-55.55c-5.83-10.58-7.31-18.61-4.45-24.1c-33.19 8.94-26.43-57.63-11.22-61.4c10.14-2.52 15.79 2.15 16.93 14.02l0.2 31.17l25.63 2.57l11.52-83.23l8.29 0.66c-3.27 26.73-9.97 91.36-2.94 123.7z" />
					</g>
					<g id="&lt;Group&gt;">
						<path id="&lt;Path&gt;" class="s55" d="m559.31 441.34c5.61-92.2 118.37-112.14 163.22-74.13c29.91 25.33 42.37 55.45 37.38 90.33l-13.08-8.72c1.66 9.97 0.42 16.2-3.73 18.69l-21.81-17.44c-0.42 0.83-1.25 3.95-2.49 9.34c-7.89-2.08-15.16-5.81-21.81-11.21l-3.74 9.97c-12.88-3.32-23.47-8.31-31.77-14.95c0 0.83-0.62 5.81-1.87 14.95c-17.45-4.57-27.62-14.54-30.53-29.9" />
					</g>
				</g>
			</g>
		</g>
	</g>
</svg>