<svg width="28" height="28" viewBox="0 0 28 28" fill="none" xmlns="http://www.w3.org/2000/svg">
<g clip-path="url(#clip0_238_4523)">
<path d="M26.098 25.75C25.8346 20.7458 21.337 18.6756 21.337 18.6756C20.2624 18.1731 18.3142 17.1896 17.0368 16.5394C18.6734 14.7489 19.1567 11.8298 19.232 11.4144C19.5735 9.53491 19.4016 7.20862 19.4016 7.20862C19.0893 2.68492 14.5221 2.61387 14.0438 2.61863C14.0174 2.61863 14.0002 2.6189 14.0002 2.6189C14.0002 2.6189 13.9856 2.61863 13.964 2.6189C13.5304 2.61328 8.91283 2.65907 8.59883 7.20862C8.59883 7.20862 8.42694 9.53463 8.76848 11.4144C8.79067 11.5354 8.84855 11.8727 8.95835 12.3288C9.81862 13.4582 11.1467 14.012 12.2368 14.283C12.3739 14.1499 12.5606 14.067 12.7676 14.067H14.7544C15.1748 14.067 15.5152 14.4077 15.5152 14.8281C15.5152 15.2489 15.1748 15.5898 14.7544 15.5898H12.7676C12.4539 15.5898 12.1857 15.4005 12.0686 15.1306C11.2555 14.9329 10.3146 14.5885 9.47484 13.9962C9.80988 14.866 10.2873 15.799 10.9642 16.5397C9.68685 17.1898 7.73943 18.1731 6.66404 18.6756C6.66404 18.6756 2.16701 20.7458 1.90298 25.75C1.90298 25.75 1.82488 26.5822 3.4019 26.8973C3.4019 26.8973 8.23314 27.9999 14.0008 27.9999C19.769 27.9999 24.6002 26.8973 24.6002 26.8973C26.177 26.5822 26.098 25.75 26.098 25.75Z" fill="#333333"/>
<path d="M7.0525 13.0367H7.53248V7.39906C7.53362 7.38501 7.53696 7.37151 7.53696 7.35719V6.52474C7.53696 5.04069 7.99503 3.83778 8.89853 2.94919C10.7674 1.11043 13.9595 1.13545 14.0134 1.143C14.0514 1.14021 17.2169 1.09469 19.0941 2.93203C20.0038 3.82236 20.4652 5.03085 20.4652 6.52474V7.40496C20.4652 7.41365 20.4674 7.42152 20.4674 7.42994V13.0366H20.9474C22.1287 13.0366 23.0861 12.0792 23.0861 10.8982V8.84289C23.0861 7.89276 22.4657 7.0884 21.608 6.81005V6.52497C21.608 4.71233 21.0308 3.22887 19.8937 2.11555C17.6767 -0.0542747 14.1354 0.00190831 14.0115 0.000215495C13.8627 -0.00120281 10.318 -0.0447128 8.10204 2.12909C6.96882 3.24127 6.3939 4.72024 6.3939 6.52474V6.80867C5.53505 7.08698 4.91406 7.89194 4.91406 8.84262V10.8979C4.91411 12.0792 5.87178 13.0367 7.0525 13.0367Z" fill="#333333"/>
</g>
<defs>
<clipPath id="clip0_238_4523">
<rect width="28" height="28" fill="white"/>
</clipPath>
</defs>
</svg>
