<svg width="22" height="22" viewBox="0 0 22 22" fill="none" xmlns="http://www.w3.org/2000/svg">
<g clip-path="url(#clip0_238_5369)">
<path d="M0.859109 21.9991C0.748391 21.9991 0.63677 21.9777 0.530434 21.9336C0.209364 21.8006 0 21.4873 0 21.1397L0.000472605 11.104C-0.0674536 1.27802 11.89 -3.71783 18.8174 3.24634C25.6711 10.2005 20.7228 22.0077 10.9478 21.9991C9.2163 21.9991 7.56335 21.6108 6.0349 20.8448C4.57443 20.1129 2.80624 20.408 1.63495 21.5793L1.46688 21.7474C1.3025 21.9118 1.08269 21.9991 0.859109 21.9991ZM4.35084 18.7274C5.18529 18.7274 6.02476 18.9174 6.8049 19.3084C8.09451 19.9548 9.4923 20.2819 10.9575 20.2805C19.1715 20.2926 23.3808 10.2589 17.5962 4.45556C11.7286 -1.41634 1.67646 2.78946 1.71899 11.0916C1.71899 11.0944 1.71903 11.0972 1.71903 11.0999L1.71865 19.3949C2.5329 18.9546 3.43876 18.7274 4.35084 18.7274ZM8.42095 11.0003C8.42095 11.5935 7.94006 12.0744 7.34685 12.0744C5.92208 12.0178 5.92247 9.98254 7.34685 9.92617C7.94006 9.92617 8.42095 10.4071 8.42095 11.0003ZM11.0418 9.92617C10.4486 9.92617 9.96766 10.4071 9.96766 11.0003C10.0242 12.425 12.0595 12.4247 12.1159 11.0003C12.1159 10.4071 11.635 9.92617 11.0418 9.92617ZM14.7367 9.92617C14.1435 9.92617 13.6626 10.4071 13.6626 11.0003C13.7192 12.425 15.7544 12.4247 15.8108 11.0003C15.8108 10.4071 15.3299 9.92617 14.7367 9.92617Z" fill="#363636"/>
</g>
<defs>
<clipPath id="clip0_238_5369">
<rect width="22" height="22" fill="white"/>
</clipPath>
</defs>
</svg>
