<svg width="20" height="20" viewBox="0 0 20 20" fill="none" xmlns="http://www.w3.org/2000/svg">
<path d="M17.5003 8.33332H15.8337V3.33332H16.667V1.66666H3.33366V3.33332H4.16699V8.33332H2.50033C2.27931 8.33332 2.06735 8.42112 1.91107 8.5774C1.75479 8.73368 1.66699 8.94564 1.66699 9.16666V16.6667H18.3337V9.16666C18.3337 8.94564 18.2459 8.73368 18.0896 8.5774C17.9333 8.42112 17.7213 8.33332 17.5003 8.33332ZM11.667 15V11.6667H8.33366V15H5.83366V3.33332H14.167V15H11.667Z" fill="#363636"/>
<path d="M7.5 5H9.16667V6.66667H7.5V5ZM10.8333 5H12.5V6.66667H10.8333V5ZM7.5 8.33333H9.16667V10H7.5V8.33333ZM10.8333 8.33333H12.5V10H10.8333V8.33333Z" fill="#363636"/>
</svg>
