<svg width="22" height="22" viewBox="0 0 22 22" fill="none" xmlns="http://www.w3.org/2000/svg">
<g clip-path="url(#clip0_238_5373)">
<path d="M11.0001 21.9893C1.23595 21.9795 -3.67537 10.1215 3.22196 3.2111C7.3164 -1.05573 14.6838 -1.05642 18.7782 3.21127C25.6755 10.1224 20.7636 21.98 11.0001 21.9893ZM11.0001 1.70806C5.88237 1.70806 1.71883 5.87159 1.71883 10.9893C2.22866 23.3021 19.7733 23.2985 20.2813 10.9892C20.2813 5.87163 16.1177 1.70806 11.0001 1.70806ZM12.7188 14.4268C9.87566 14.4268 7.56257 12.1137 7.56257 9.27054C7.84582 2.4301 17.5929 2.43208 17.8751 9.27058C17.8751 12.1137 15.562 14.4268 12.7188 14.4268ZM12.7188 5.83305C10.8234 5.83305 9.28132 7.37511 9.28132 9.27054C9.47012 13.8308 15.9682 13.8295 16.1563 9.2705C16.1563 7.37511 14.6142 5.83305 12.7188 5.83305ZM6.10172 16.6182C5.87781 16.6182 5.65416 16.5313 5.48572 16.3581C5.15474 16.0179 5.16221 15.4738 5.50235 15.1428L7.09219 13.596C7.43242 13.2651 7.97644 13.2726 8.30743 13.6126C8.63842 13.9528 8.63094 14.4969 8.2908 14.8279L6.70096 16.3748C6.5339 16.5373 6.31764 16.6182 6.10172 16.6182ZM14.4805 9.27054C14.4805 8.29915 13.6902 7.50883 12.7188 7.50883C11.5788 7.55416 11.5792 9.1825 12.7188 9.22757C12.7425 9.22757 12.7618 9.24682 12.7618 9.27054C12.7618 9.74517 13.1465 10.1299 13.6212 10.1299C14.0958 10.1299 14.4805 9.74517 14.4805 9.27054Z" fill="#363636"/>
</g>
<defs>
<clipPath id="clip0_238_5373">
<rect width="22" height="22" fill="white"/>
</clipPath>
</defs>
</svg>
