<svg width="28" height="28" viewBox="0 0 28 28" fill="none" xmlns="http://www.w3.org/2000/svg">
<path fill-rule="evenodd" clip-rule="evenodd" d="M8.55232 2.33383H19.4478C23.4157 2.33383 25.6557 4.58433 25.6673 8.55217V19.4488C25.6673 23.4155 23.4157 25.6672 19.4478 25.6672H8.55232C4.58448 25.6672 2.33398 23.4155 2.33398 19.4488V8.55217C2.33398 4.58433 4.58448 2.33383 8.55232 2.33383ZM14.0578 20.8372C14.5607 20.8372 14.9795 20.4638 15.0262 19.9622V8.07384C15.0728 7.71218 14.899 7.34934 14.584 7.15218C14.2562 6.95384 13.8595 6.95384 13.5457 7.15218C13.2295 7.34934 13.0557 7.71218 13.0895 8.07384V19.9622C13.149 20.4638 13.5678 20.8372 14.0578 20.8372ZM19.4256 20.8372C19.9156 20.8372 20.3344 20.4639 20.3939 19.9622V16.1355C20.4278 15.761 20.2539 15.4122 19.9378 15.2139C19.6239 15.0155 19.2273 15.0155 18.9006 15.2139C18.5844 15.4122 18.4106 15.761 18.4573 16.1355V19.9622C18.5039 20.4639 18.9228 20.8372 19.4256 20.8372ZM9.58946 19.9622C9.5428 20.4639 9.12396 20.8372 8.62113 20.8372C8.11946 20.8372 7.69946 20.4639 7.65396 19.9622V11.9006C7.61896 11.5377 7.7928 11.1772 8.10896 10.9789C8.4228 10.7806 8.82063 10.7806 9.13563 10.9789C9.44946 11.1772 9.62563 11.5377 9.58946 11.9006V19.9622Z" fill="#253648"/>
</svg>
