<svg width="22" height="22" viewBox="0 0 22 22" fill="none" xmlns="http://www.w3.org/2000/svg">
<path d="M16.8438 22H5.15625C2.31309 22 0 19.6869 0 16.8438V5.15625C0 2.31309 2.31309 0 5.15625 0H16.8438C19.6869 0 22 2.31309 22 5.15625V16.8438C22 19.6869 19.6869 22 16.8438 22ZM5.15625 1.71875C3.26081 1.71875 1.71875 3.26081 1.71875 5.15625V16.8438C1.71875 18.7392 3.26081 20.2812 5.15625 20.2812H16.8438C18.7392 20.2812 20.2812 18.7392 20.2812 16.8438V5.15625C20.2812 3.26081 18.7392 1.71875 16.8438 1.71875H5.15625ZM5.88672 15.125C5.66105 15.125 5.44182 15.0361 5.27901 14.8733C5.07586 14.6701 4.98768 14.3789 5.04397 14.0972L5.53064 11.6624C5.77195 10.4551 6.35972 9.35666 7.23039 8.48594L11.3601 4.35626C12.5277 3.13943 14.6285 3.13943 15.7961 4.3563C17.013 5.52385 17.0129 7.62476 15.796 8.79226L11.6664 12.9219C10.7957 13.7926 9.69727 14.3804 8.48989 14.6217L6.05511 15.1084C5.99913 15.1195 5.94271 15.125 5.88672 15.125ZM13.5781 5.15625C13.1994 5.15625 12.8433 5.30376 12.5755 5.57154L8.44581 9.70127C7.81589 10.3311 7.39067 11.1258 7.21613 11.9992L6.98208 13.1703L8.1531 12.9362C9.02657 12.7617 9.8212 12.3365 10.4511 11.7065L14.5808 7.57685C15.1309 7.04907 15.1308 6.09933 14.5808 5.57159C14.5808 5.57154 14.5808 5.57154 14.5808 5.57154C14.313 5.30376 13.9569 5.15625 13.5781 5.15625ZM18.3906 17.7031C18.3906 17.2285 18.0059 16.8438 17.5312 16.8438H4.46875C3.32853 16.8891 3.32939 18.5175 4.46875 18.5625H17.5312C18.0059 18.5625 18.3906 18.1778 18.3906 17.7031Z" fill="#363636"/>
</svg>
