<svg width="22" height="22" viewBox="0 0 22 22" fill="none" xmlns="http://www.w3.org/2000/svg">
<g clip-path="url(#clip0_238_5375)">
<path d="M14.19 14.6087C13.8132 14.6087 13.4344 14.5183 13.0839 14.3354L11.2654 13.3859C11.0723 13.2851 10.8419 13.2851 10.6488 13.3859L8.83022 14.3353C8.0205 14.7581 7.05918 14.6864 6.3216 14.1483C5.58977 13.6143 5.23061 12.7295 5.38439 11.8391L5.73174 9.82808C5.76774 9.6196 5.69775 9.40657 5.54457 9.25829L4.07327 7.83404C3.42085 7.20254 3.18891 6.27466 3.46786 5.41243C3.74814 4.54607 4.4843 3.92678 5.38903 3.79624L7.42226 3.50281C7.6371 3.47179 7.82237 3.33872 7.91772 3.14674L8.82704 1.31705C9.23068 0.504874 10.0469 0.000305176 10.957 0.000305176C11.8672 0.000305176 12.6834 0.504874 13.087 1.31705L13.9964 3.1467C14.0917 3.33868 14.277 3.47179 14.4918 3.50281L16.525 3.79624C17.4298 3.92682 18.1659 4.54611 18.4462 5.41243C18.7252 6.27461 18.4932 7.20254 17.8408 7.83404L16.3695 9.25825C16.2163 9.40657 16.1463 9.6196 16.1823 9.82813L16.5297 11.8391C16.6835 12.7295 16.3243 13.6143 15.5925 14.1482C15.1742 14.4536 14.6838 14.6087 14.19 14.6087ZM10.9571 11.5917C11.3362 11.5917 11.7152 11.6819 12.0608 11.8623L13.8794 12.8118C14.2103 12.9845 14.4793 12.833 14.5796 12.7598C14.677 12.6887 14.8972 12.4851 14.8362 12.1316L14.4888 10.1206C14.356 9.35131 14.6123 8.56733 15.1743 8.02331L16.6455 6.59911C16.9055 6.3474 16.8479 6.05535 16.8111 5.94149C16.7736 5.82556 16.6467 5.55027 16.2797 5.49729L14.2465 5.20386C13.4728 5.09223 12.804 4.6091 12.4573 3.91157L11.548 2.08192C11.3852 1.75433 11.0806 1.71897 10.9571 1.71897C10.8337 1.71897 10.529 1.75433 10.3662 2.08192L9.4569 3.91161C9.11028 4.6091 8.44145 5.09223 7.66777 5.20386L5.63454 5.49729C5.26751 5.55027 5.14067 5.82556 5.10316 5.94149C5.06634 6.05535 5.00872 6.3474 5.26872 6.59911L6.73997 8.02331C7.30199 8.56728 7.55825 9.35131 7.42544 10.1205L7.07809 12.1316C7.01703 12.4851 7.2372 12.6887 7.33469 12.7598C7.43498 12.8329 7.70404 12.9845 8.03489 12.8117L9.85345 11.8623C10.1989 11.682 10.578 11.5917 10.9571 11.5917ZM9.59663 1.69955H9.59706H9.59663ZM7.53376 21.9997C7.23677 21.9997 6.93823 21.9285 6.66199 21.7843L5.4457 21.1492C5.39904 21.125 5.34348 21.125 5.29682 21.1492L4.08053 21.7843C3.44233 22.1175 2.68464 22.0609 2.10329 21.6368C1.52576 21.2154 1.24243 20.5169 1.36382 19.814L1.5961 18.4691C1.60414 18.4225 1.58815 18.3746 1.55343 18.3409L0.569474 17.3885C0.0545494 16.89 -0.128536 16.1575 0.0917164 15.4768C0.312828 14.7933 0.893364 14.3047 1.60676 14.2018L2.96655 14.0056C3.00067 14.0006 3.03259 13.9847 3.05636 13.9607C3.39004 13.6232 3.93406 13.62 4.27165 13.9536C4.60916 14.2873 4.61234 14.8314 4.27866 15.1689C3.99327 15.4576 3.61451 15.6486 3.21207 15.7067L1.85223 15.9029C1.82838 15.9063 1.75581 15.9168 1.72698 16.0058C1.69961 16.0904 1.74876 16.1379 1.76488 16.1536L2.74884 17.106C3.19239 17.5354 3.3946 18.1543 3.28976 18.7616L3.05747 20.1066C3.05374 20.1283 3.04231 20.1943 3.11634 20.2483C3.16962 20.2872 3.22642 20.2913 3.28516 20.2607L4.50144 19.6257C5.0461 19.3414 5.69646 19.3414 6.24112 19.6257L7.4574 20.2608C7.5161 20.2914 7.5729 20.2872 7.62622 20.2484C7.70026 20.1944 7.68883 20.1283 7.68509 20.1066L7.45281 18.7617C7.34797 18.1543 7.55017 17.5355 7.99373 17.1061L8.97769 16.1536C9.31863 15.8235 9.86278 15.8323 10.1928 16.1734C10.5229 16.5144 10.5141 17.0584 10.173 17.3885L9.18909 18.341C9.15433 18.3746 9.13839 18.4226 9.14642 18.4692L9.3787 19.8141C9.50009 20.517 9.21676 21.2154 8.63923 21.6368C8.30945 21.8773 7.92292 21.9997 7.53376 21.9997ZM19.8967 21.6367C20.4742 21.2153 20.7576 20.5169 20.6362 19.814L20.4039 18.4691C20.3959 18.4225 20.4119 18.3745 20.4466 18.3409L21.4305 17.3884C21.9455 16.89 22.1285 16.1575 21.9083 15.4767C21.6872 14.7932 21.1066 14.3047 20.3932 14.2018L19.0335 14.0055C18.9993 14.0006 18.9674 13.9846 18.9436 13.9606C18.61 13.6231 18.0659 13.6199 17.7283 13.9536C17.3908 14.2872 17.3877 14.8313 17.7213 15.1689C18.0067 15.4575 18.3855 15.6485 18.788 15.7066L20.1478 15.9029C20.1716 15.9063 20.2442 15.9168 20.273 16.0058C20.3004 16.0904 20.2512 16.1379 20.2351 16.1535L19.2512 17.106C18.8076 17.5354 18.6054 18.1542 18.7102 18.7616L18.9425 20.1065C18.9463 20.1282 18.9577 20.1943 18.8837 20.2483C18.8304 20.2871 18.7735 20.2913 18.7148 20.2607L17.4986 19.6257C16.9539 19.3413 16.3035 19.3413 15.7589 19.6257L14.5426 20.2606C14.4839 20.2913 14.4271 20.2872 14.3738 20.2483C14.2997 20.1942 14.3112 20.1282 14.3149 20.1065L14.5472 18.7615C14.652 18.1542 14.4498 17.5353 14.0063 17.1059L13.0223 16.1535C12.6813 15.8234 12.1372 15.8322 11.8072 16.1732C11.4771 16.5142 11.4859 17.0583 11.827 17.3884L12.8109 18.3408C12.8457 18.3745 12.8616 18.4224 12.8536 18.469L12.6213 19.8139C12.4999 20.5168 12.7832 21.2153 13.3608 21.6367C13.9421 22.0609 14.6998 22.1174 15.338 21.7842L16.5543 21.1492C16.601 21.1249 16.6565 21.1249 16.7032 21.1492L17.9195 21.7842C18.1957 21.9284 18.4942 21.9996 18.7912 21.9996C19.1804 21.9997 19.567 21.8773 19.8967 21.6367Z" fill="#363636"/>
</g>
<defs>
<clipPath id="clip0_238_5375">
<rect width="22" height="22" fill="white"/>
</clipPath>
</defs>
</svg>
