<svg width="20" height="20" viewBox="0 0 20 20" fill="none" xmlns="http://www.w3.org/2000/svg">
<path d="M15.8333 3.33332H13.3333V1.66666H11.6667V3.33332H8.33333V1.66666H6.66667V3.33332H4.16667C3.2475 3.33332 2.5 4.08082 2.5 4.99999V16.6667C2.5 17.5858 3.2475 18.3333 4.16667 18.3333H15.8333C16.7525 18.3333 17.5 17.5858 17.5 16.6667V4.99999C17.5 4.08082 16.7525 3.33332 15.8333 3.33332ZM4.16667 16.6667V5.83332H15.8333V4.99999L15.835 16.6667H4.16667Z" fill="#363636"/>
<path d="M5.83301 7.5H14.1663V9.16667H5.83301V7.5ZM5.83301 10.8333H9.99967V12.5H5.83301V10.8333Z" fill="#363636"/>
</svg>
