<svg width="32" height="32" viewBox="0 0 32 32" fill="none" xmlns="http://www.w3.org/2000/svg">
<path d="M16.0006 6.12666C14.5478 4.7908 12.6462 4.04939 10.6726 4.04933C9.62801 4.05042 8.59392 4.25808 7.62988 4.66036C6.66583 5.06263 5.79085 5.65159 5.05529 6.39333C1.91796 9.544 1.91929 14.472 5.05796 17.6093L14.834 27.3853C15.0606 27.784 15.498 28.0413 16.0006 28.0413C16.207 28.0393 16.4101 27.9889 16.5935 27.8942C16.7769 27.7995 16.9355 27.6631 17.0566 27.496L26.9433 17.6093C30.082 14.4707 30.082 9.544 26.9406 6.388C26.2054 5.64762 25.3312 5.05986 24.3681 4.65851C23.405 4.25716 22.372 4.05013 21.3286 4.04933C19.3551 4.04965 17.4536 4.79103 16.0006 6.12666Z" fill="#077734"/>
</svg>
