<svg width="32" height="32" viewBox="0 0 32 32" fill="none" xmlns="http://www.w3.org/2000/svg">
<path d="M16.0006 6.12666C14.5478 4.7908 12.6462 4.04939 10.6726 4.04933C9.62801 4.05042 8.59392 4.25808 7.62988 4.66036C6.66583 5.06263 5.79085 5.65159 5.05529 6.39333C1.91796 9.544 1.91929 14.472 5.05796 17.6093L14.834 27.3853C15.0606 27.784 15.498 28.0413 16.0006 28.0413C16.207 28.0393 16.4101 27.9889 16.5935 27.8942C16.7769 27.7995 16.9355 27.6631 17.0566 27.496L26.9433 17.6093C30.082 14.4707 30.082 9.544 26.9406 6.388C26.2054 5.64762 25.3312 5.05986 24.3681 4.65851C23.405 4.25716 22.372 4.05013 21.3286 4.04933C19.3551 4.04965 17.4536 4.79103 16.0006 6.12666ZM25.0553 8.27333C27.1393 10.368 27.1406 13.64 25.058 15.724L16.0006 24.7813L6.94329 15.724C4.86062 13.64 4.86196 10.368 6.94063 8.27867C7.95396 7.27067 9.27929 6.716 10.6726 6.716C12.066 6.716 13.386 7.27066 14.3913 8.276L15.058 8.94267C15.1817 9.06659 15.3286 9.16491 15.4904 9.23199C15.6521 9.29907 15.8255 9.3336 16.0006 9.3336C16.1757 9.3336 16.3491 9.29907 16.5109 9.23199C16.6726 9.16491 16.8196 9.06659 16.9433 8.94267L17.61 8.276C19.626 6.264 23.042 6.26933 25.0553 8.27333Z" fill="#077734"/>
</svg>
