<svg width="27" height="22" viewBox="0 0 27 22" fill="none" xmlns="http://www.w3.org/2000/svg">
<path d="M25.1562 9.84402H3.33648L11.6916 1.88589C12.1291 1.46917 12.1461 0.776829 11.7294 0.339329C11.3132 -0.0976239 10.6209 -0.115124 10.1828 0.301595L0.640937 9.39066C0.228047 9.8041 0 10.3532 0 10.9378C0 11.5218 0.228047 12.0714 0.660078 12.5029L10.1834 21.5734C10.395 21.7752 10.6663 21.8753 10.9375 21.8753C11.2262 21.8753 11.515 21.7615 11.7299 21.5357C12.1466 21.0982 12.1297 20.4064 11.6922 19.9896L3.30203 12.0315H25.1562C25.76 12.0315 26.25 11.5415 26.25 10.9378C26.25 10.334 25.76 9.84402 25.1562 9.84402Z" fill="white"/>
</svg>
