<svg width="18" height="20" viewBox="0 0 18 20" fill="none" xmlns="http://www.w3.org/2000/svg">
<path d="M17.2024 0.661108C17.0304 0.414194 16.7989 0.233626 16.5084 0.119082C16.3233 0.0398637 16.1294 0.000185197 15.9266 0.000185197V0H2.07321C1.87056 0 1.6768 0.0396785 1.49169 0.118897C1.20093 0.233348 0.969528 0.414147 0.797712 0.660922C0.625941 0.907698 0.539917 1.18077 0.539917 1.48047V18.5195C0.539917 18.8193 0.625941 19.0923 0.797712 19.3393C0.969528 19.586 1.20093 19.7667 1.49169 19.8811C1.67661 19.9604 1.87056 20 2.07321 20C2.48754 20 2.85308 19.8545 3.17041 19.5639L8.99996 13.9588L14.8295 19.564C15.138 19.8456 15.5037 19.9866 15.9266 19.9866C16.147 19.9866 16.3409 19.9516 16.5083 19.8811C16.7989 19.7667 17.0304 19.5859 17.2023 19.3389C17.3741 19.0922 17.4599 18.8192 17.4599 18.5194V1.48065C17.46 1.18096 17.3739 0.907883 17.2024 0.661108Z" fill="#FF6A6A"/>
</svg>
