<svg width="25" height="25" viewBox="0 0 25 25" fill="none" xmlns="http://www.w3.org/2000/svg">
<path d="M19.3535 15.5662C17.8958 15.5662 16.5907 16.2313 15.7248 17.2737L10.0921 14.0756C10.2672 13.5827 10.3635 13.0527 10.3635 12.5003C10.3635 11.9481 10.2672 11.4181 10.0921 10.9252L15.7244 7.72635C16.5902 8.76908 17.8954 9.43431 19.3533 9.43431C21.9537 9.43431 24.0693 7.31793 24.0693 4.71644C24.0695 2.11572 21.9539 0 19.3535 0C16.7528 0 14.637 2.11572 14.637 4.71633C14.637 5.26867 14.7331 5.79878 14.9084 6.29181L9.27578 9.49075C8.40997 8.44857 7.10505 7.78378 5.64762 7.78378C3.04658 7.78378 0.93042 9.8995 0.93042 12.5002C0.93042 15.1008 3.04658 17.2165 5.64762 17.2165C7.10505 17.2165 8.40986 16.5518 9.27567 15.5097L14.9084 18.7079C14.7331 19.2009 14.6369 19.7311 14.6369 20.2836C14.6369 22.8842 16.7527 24.9999 19.3534 24.9999C21.9538 24.9999 24.0694 22.8841 24.0694 20.2836C24.0695 17.6825 21.9539 15.5662 19.3535 15.5662ZM19.3535 1.65041C21.0439 1.65041 22.4191 3.02576 22.4191 4.71633C22.4191 6.40778 21.0439 7.78378 19.3535 7.78378C17.6628 7.78378 16.2874 6.40778 16.2874 4.71633C16.2874 3.02576 17.6628 1.65041 19.3535 1.65041ZM5.64774 15.5662C3.95672 15.5662 2.58094 14.1908 2.58094 12.5003C2.58094 10.8096 3.95672 9.43431 5.64774 9.43431C7.33809 9.43431 8.71321 10.8096 8.71321 12.5003C8.71321 14.1908 7.33798 15.5662 5.64774 15.5662ZM19.3535 23.3496C17.6628 23.3496 16.2874 21.9741 16.2874 20.2837C16.2874 18.5926 17.6628 17.2167 19.3535 17.2167C21.0439 17.2167 22.4191 18.5926 22.4191 20.2837C22.4191 21.9741 21.0439 23.3496 19.3535 23.3496Z" fill="white"/>
</svg>
