<svg width="96" height="86" viewBox="0 0 96 86" fill="none" xmlns="http://www.w3.org/2000/svg">
<g clip-path="url(#clip0)">
<mask id="mask0" mask-type="alpha" maskUnits="userSpaceOnUse" x="-14" y="-1" width="129" height="87">
<path d="M114.38 -0.859985H-13.7598V86H114.38V-0.859985Z" fill="white"/>
</mask>
<g mask="url(#mask0)">
<path fill-rule="evenodd" clip-rule="evenodd" d="M48.0498 60.7329L38.774 63.2184C39.8306 67.5742 41.0273 70.8657 42.3641 73.0927C44.3692 76.4332 47.9011 82.1669 49.6354 83.6543C51.3698 85.1417 55.1602 86.0782 57.292 83.5549C59.4238 81.0315 47.9368 70.2184 47.9015 67.7047C47.8779 66.0288 48.1155 64.4071 48.6143 62.8394L48.0498 60.7329Z" fill="#E9EAEC" stroke="#E9EAEC" stroke-width="1.1"/>
<path fill-rule="evenodd" clip-rule="evenodd" d="M23.7944 40.1582L18.7236 42.1008C18.0787 42.3479 17.621 42.9277 17.5318 43.6107C17.1841 46.272 17.3003 48.6853 17.8805 50.8506C18.4618 53.0201 19.5844 55.2225 21.2484 57.4577L21.2484 57.4577C21.6682 58.0217 22.3696 58.3034 23.065 58.1874L28.3873 57.2991L23.7944 40.1582Z" fill="#E9EAEC" stroke="#E9EAEC" stroke-width="1.1"/>
<path fill-rule="evenodd" clip-rule="evenodd" d="M37.4407 59.04L52.3423 56.4083C54.1192 56.0944 55.8141 57.2805 56.1279 59.0575C56.128 59.058 56.1281 59.0586 56.1282 59.0592C56.4413 60.8376 55.254 62.5332 53.4758 62.8473L38.5742 65.479C36.7973 65.7929 35.1024 64.6068 34.7886 62.8298C34.7885 62.8292 34.7884 62.8287 34.7883 62.8281C34.4752 61.0497 35.6625 59.3541 37.4407 59.04Z" fill="#E9EAEC"/>
<path fill-rule="evenodd" clip-rule="evenodd" d="M85.064 62.2376L61.9255 58.2777L31.0166 63.1995C30.6446 63.2588 30.2735 63.0908 30.0736 62.7728C27.4092 58.5335 25.4968 53.9776 24.3364 49.1053C23.1736 44.2232 22.7594 39.1728 23.094 33.9542C23.1179 33.5816 23.3612 33.2584 23.7135 33.1314L52.4154 22.7855L70.7653 7.73028C71.5513 6.59156 72.5735 5.81529 73.8574 5.47129C80.7443 3.62594 88.4808 16.0094 92.7529 31.9532C97.0251 47.8971 95.3477 61.3531 89.2674 62.9823C87.9004 63.3486 86.4851 63.0704 85.064 62.2376Z" fill="#E9EAEC"/>
<path fill-rule="evenodd" clip-rule="evenodd" d="M42.3887 56.0557L33.1129 58.5411C34.1695 62.897 35.3662 66.1884 36.703 68.4154C38.7081 71.756 42.2399 77.4897 43.9743 78.9771C45.7086 80.4645 49.4991 81.401 51.6309 78.8776C53.7627 76.3543 42.2757 65.5411 42.2404 63.0274C42.2168 61.3516 42.4544 59.7298 42.9531 58.1621L42.3887 56.0557Z" fill="var(--primary)" stroke="var(--primary)" stroke-width="1.1"/>
<path fill-rule="evenodd" clip-rule="evenodd" d="M18.1333 35.4809L13.0625 37.4236C12.4175 37.6707 11.9599 38.2504 11.8707 38.9334C11.5229 41.5948 11.6391 44.008 12.2193 46.1733C12.8006 48.3428 13.9233 50.5452 15.5873 52.7805L15.5873 52.7805C16.0071 53.3445 16.7085 53.6262 17.4039 53.5101L22.7262 52.6218L18.1333 35.4809Z" fill="#E9EAEC"/>
<path fill-rule="evenodd" clip-rule="evenodd" d="M18.1333 35.4809L13.0602 37.4213C12.4159 37.6678 11.9582 38.2463 11.8679 38.9284C11.5174 41.576 11.6306 43.9763 12.2076 46.1294C12.4781 47.139 12.7226 47.9629 12.9413 48.6012L12.9413 48.6012C13.2605 49.5334 14.2496 50.0585 15.2044 49.8027L20.9386 48.2662L18.1333 35.4809Z" fill="#E9EAEC"/>
<path d="M11.4561 41.1379L15.8245 39.9674" stroke="white" stroke-width="2.2" stroke-linecap="round"/>
<path fill-rule="evenodd" clip-rule="evenodd" d="M18.1333 35.4809L13.0625 37.4236C12.4175 37.6707 11.9599 38.2504 11.8707 38.9334C11.5229 41.5948 11.6391 44.008 12.2193 46.1733C12.8006 48.3428 13.9233 50.5452 15.5873 52.7805L15.5873 52.7805C16.0071 53.3445 16.7085 53.6262 17.4039 53.5101L22.7262 52.6218L18.1333 35.4809Z" stroke="var(--primary)" stroke-width="1.1"/>
<path d="M46.6818 51.7333L31.7788 54.3611C30.0009 54.6746 28.8137 56.37 29.1272 58.148C29.4407 59.9259 31.1362 61.1131 32.9141 60.7996L47.8171 58.1718C49.5951 57.8583 50.7822 56.1628 50.4687 54.3849C50.1552 52.6069 48.4598 51.4198 46.6818 51.7333Z" fill="#E9EAEC"/>
<path d="M46.7616 52.1948L31.8615 54.822C30.3383 55.0906 29.3212 56.5432 29.5898 58.0664C29.8584 59.5896 31.3109 60.6067 32.8342 60.3381L47.7342 57.7108C49.2574 57.4422 50.2745 55.9897 50.0059 54.4665C49.7373 52.9432 48.2848 51.9262 46.7616 52.1948Z" stroke="var(--primary)" stroke-width="1.1"/>
<path fill-rule="evenodd" clip-rule="evenodd" d="M79.4038 57.5604L56.2653 53.6005L25.3564 58.5223C24.9844 58.5815 24.6133 58.4136 24.4134 58.0956C21.7491 53.8562 19.8367 49.3004 18.6762 44.428C17.5134 39.5459 17.0993 34.4956 17.4338 29.277C17.4577 28.9044 17.7011 28.5812 18.0533 28.4542L46.7552 18.1082L65.1051 3.05304C65.8911 1.91432 66.9134 1.13804 68.1972 0.794042C75.0841 -1.0513 82.8206 11.3321 87.0927 27.276C91.3649 43.2199 89.6875 56.6759 83.6072 58.3051C82.2402 58.6714 80.825 58.3931 79.4038 57.5604Z" fill="#E9EAEC"/>
<path d="M74.4319 50.2941L51.6997 48.0829L25.4687 58.3373C25.0471 58.5021 24.568 58.3439 24.3291 57.9609L24.3291 57.9609C21.7087 53.7598 19.8244 49.2488 18.6762 44.428C17.5134 39.5459 17.0993 34.4956 17.4338 29.277C17.4577 28.9044 17.7011 28.5812 18.0533 28.4542L46.7552 18.1082L64.8669 3.24853C65.6285 2.02433 66.7203 1.18979 68.1972 0.794042C75.0841 -1.0513 82.8206 11.3321 87.0927 27.276C91.3649 43.2199 89.6875 56.6759 83.6072 58.3051C80.4851 59.1417 77.3357 55.8519 74.4319 50.2941ZM73.4198 48.2461C72.6465 47.6951 71.8877 45.885 71.1433 42.816C71.8773 44.7553 72.6381 46.5782 73.4198 48.2461Z" fill="#B8BBC1"/>
<mask id="mask1" mask-type="alpha" maskUnits="userSpaceOnUse" x="17" y="0" width="73" height="59">
<path d="M79.4038 57.5604L56.2653 53.6005L25.3564 58.5223C24.9844 58.5815 24.6133 58.4136 24.4134 58.0956C21.7491 53.8562 19.8367 49.3004 18.6762 44.428C17.5134 39.5459 17.0993 34.4956 17.4338 29.277C17.4577 28.9044 17.7011 28.5812 18.0533 28.4542L46.7552 18.1082L65.1051 3.05304C65.8911 1.91432 66.9134 1.13804 68.1972 0.794042C75.0841 -1.0513 82.8206 11.3321 87.0927 27.276C91.3649 43.2199 89.6875 56.6759 83.6072 58.3051C82.2402 58.6714 80.825 58.3931 79.4038 57.5604Z" fill="white"/>
</mask>
<g mask="url(#mask1)">
<path fill-rule="evenodd" clip-rule="evenodd" d="M46.5065 14.7793C44.9858 22.3136 45.1604 29.57 47.0302 36.5484C48.9001 43.5269 52.3839 49.9239 57.4818 55.7396L23.1657 61.6197L13.3346 46.8694L13.5744 25.8244L46.5065 14.7793Z" fill="#E9EAEC"/>
</g>
<mask id="mask2" mask-type="alpha" maskUnits="userSpaceOnUse" x="17" y="0" width="73" height="59">
<path d="M79.4038 57.5604L56.2653 53.6005L25.3564 58.5223C24.9844 58.5815 24.6133 58.4136 24.4134 58.0956C21.7491 53.8562 19.8367 49.3004 18.6762 44.428C17.5134 39.5459 17.0993 34.4956 17.4338 29.277C17.4577 28.9044 17.7011 28.5812 18.0533 28.4542L46.7552 18.1082L65.1051 3.05304C65.8911 1.91432 66.9134 1.13804 68.1972 0.794042C75.0841 -1.0513 82.8206 11.3321 87.0927 27.276C91.3649 43.2199 89.6875 56.6759 83.6072 58.3051C82.2402 58.6714 80.825 58.3931 79.4038 57.5604Z" fill="white"/>
</mask>
<g mask="url(#mask2)">
<path fill-rule="evenodd" clip-rule="evenodd" d="M46.506 14.7793C44.9853 22.3136 45.1599 29.57 47.0297 36.5484C48.8996 43.5268 50.5784 47.3333 52.0661 47.9679L19.3978 54.554L15.1872 46.0098L13.5739 25.8244L46.506 14.7793Z" fill="#E9EAEC"/>
</g>
<mask id="mask3" mask-type="alpha" maskUnits="userSpaceOnUse" x="17" y="0" width="73" height="59">
<path d="M79.4038 57.5604L56.2653 53.6005L25.3564 58.5223C24.9844 58.5815 24.6133 58.4136 24.4134 58.0956C21.7491 53.8562 19.8367 49.3004 18.6762 44.428C17.5134 39.5459 17.0993 34.4956 17.4338 29.277C17.4577 28.9044 17.7011 28.5812 18.0533 28.4542L46.7552 18.1082L65.1051 3.05304C65.8911 1.91432 66.9134 1.13804 68.1972 0.794042C75.0841 -1.0513 82.8206 11.3321 87.0927 27.276C91.3649 43.2199 89.6875 56.6759 83.6072 58.3051C82.2402 58.6714 80.825 58.3931 79.4038 57.5604Z" fill="white"/>
</mask>
<g mask="url(#mask3)">
<path fill-rule="evenodd" clip-rule="evenodd" d="M46.5065 14.7793C44.9858 22.3136 45.1604 29.57 47.0302 36.5484C48.9001 43.5269 52.3839 49.9239 57.4818 55.7396L23.1657 61.6197L13.3346 46.8694L13.5744 25.8244L46.5065 14.7793Z" stroke="var(--primary)" stroke-width="1.1"/>
</g>
<path fill-rule="evenodd" clip-rule="evenodd" d="M83.4401 57.6259C89.5382 55.9919 91.2683 42.6745 87.0463 26.9179C82.8243 11.1613 75.1182 -1.06054 68.211 0.79022C61.3039 2.64098 61.892 16.77 66.114 32.5267C70.3359 48.2833 77.342 59.2599 83.4401 57.6259Z" fill="#E9EAEC" stroke="var(--primary)" stroke-width="1.1"/>
<path d="M20.5738 31.4428L39.2419 25.4738" stroke="white" stroke-width="2.2" stroke-linecap="round"/>
<path fill-rule="evenodd" clip-rule="evenodd" d="M79.2489 56.8999L56.1045 53.061L25.1505 58.034C24.7794 58.0936 24.4087 57.927 24.2081 57.6104C21.5572 53.4272 19.6595 48.9286 18.5148 44.1146C17.3678 39.2907 16.9703 34.298 17.3222 29.1364C17.3475 28.7649 17.591 28.4433 17.9424 28.317L46.706 17.9855L65.122 3.03164C65.9125 1.90262 66.9382 1.13131 68.2243 0.786714C75.1232 -1.06184 82.8244 11.1613 87.0463 26.9179C91.2683 42.6746 89.5442 55.9904 83.4533 57.6224C82.0839 57.9893 80.6685 57.7189 79.2489 56.8999Z" stroke="var(--primary)" stroke-width="1.1"/>
<path d="M31.4697 42.8534C32.0037 44.8464 34.0665 46.0253 36.0771 45.4866C38.0876 44.9478 39.2846 42.8955 38.7505 40.9025" stroke="var(--primary)" stroke-width="2.2" stroke-linecap="round"/>
<path d="M9.10938 22.2845L12.6024 21.114L10.3817 24.9524L13.7463 23.8672" stroke="#E9EAEC" stroke-width="1.1" stroke-linecap="round" stroke-linejoin="round"/>
<path d="M14.7627 18.5485L18.2557 17.3781L16.035 21.2165L19.3996 20.1313" stroke="#E9EAEC" stroke-width="1.1" stroke-linecap="round" stroke-linejoin="round"/>
<path d="M30.6971 19.5899C31.1488 19.4431 31.396 18.958 31.2492 18.5062C31.1025 18.0545 30.6173 17.8073 30.1656 17.9541C29.7138 18.1009 29.4666 18.586 29.6134 19.0378C29.7602 19.4895 30.2454 19.7367 30.6971 19.5899Z" fill="#E9EAEC"/>
<path d="M33.3856 18.7164C33.8373 18.5696 34.0845 18.0844 33.9377 17.6327C33.7909 17.181 33.3058 16.9338 32.854 17.0806C32.4023 17.2273 32.1551 17.7125 32.3019 18.1642C32.4487 18.6159 32.9338 18.8631 33.3856 18.7164Z" fill="#E9EAEC"/>
<path d="M36.074 17.843C36.5257 17.6962 36.773 17.211 36.6262 16.7593C36.4794 16.3076 35.9942 16.0604 35.5425 16.2071C35.0908 16.3539 34.8436 16.8391 34.9904 17.2908C35.1371 17.7425 35.6223 17.9897 36.074 17.843Z" fill="#E9EAEC"/>
<path d="M22.3008 18.5485L25.7938 17.3781L23.5731 21.2165L26.9377 20.1313" stroke="#E9EAEC" stroke-width="1.1" stroke-linecap="round" stroke-linejoin="round"/>
<path d="M0.629883 19.4826L4.12292 18.3121L1.90218 22.1506L5.26677 21.0654" stroke="var(--primary)" stroke-width="1.1" stroke-linecap="round" stroke-linejoin="round"/>
<path d="M6.2832 15.7467L9.77624 14.5762L7.5555 18.4146L10.9201 17.3294" stroke="var(--primary)" stroke-width="1.1" stroke-linecap="round" stroke-linejoin="round"/>
<path d="M22.2176 16.788C22.6693 16.6413 22.9165 16.1561 22.7697 15.7044C22.623 15.2526 22.1378 15.0054 21.6861 15.1522C21.2344 15.299 20.9871 15.7842 21.1339 16.2359C21.2807 16.6876 21.7659 16.9348 22.2176 16.788Z" fill="var(--primary)"/>
<path d="M24.9061 15.9145C25.3578 15.7677 25.605 15.2826 25.4582 14.8308C25.3114 14.3791 24.8263 14.1319 24.3745 14.2787C23.9228 14.4255 23.6756 14.9106 23.8224 15.3623C23.9692 15.8141 24.4543 16.0613 24.9061 15.9145Z" fill="var(--primary)"/>
<path d="M27.5945 15.0411C28.0463 14.8943 28.2935 14.4091 28.1467 13.9574C27.9999 13.5057 27.5147 13.2585 27.063 13.4053C26.6113 13.552 26.3641 14.0372 26.5109 14.4889C26.6576 14.9406 27.1428 15.1879 27.5945 15.0411Z" fill="var(--primary)"/>
<path d="M13.8213 15.7467L17.3143 14.5762L15.0936 18.4146L18.4582 17.3294" stroke="var(--primary)" stroke-width="1.1" stroke-linecap="round" stroke-linejoin="round"/>
<path d="M53.3779 36.5498C53.9119 38.5428 55.9747 39.7217 57.9853 39.183C59.9958 38.6443 61.1928 36.5919 60.6587 34.5989" stroke="var(--primary)" stroke-width="2.2" stroke-linecap="round"/>
<path d="M83.0487 53.8632C86.3158 52.9878 86.0964 41.5746 82.5585 28.371C79.0206 15.1675 73.5041 5.17364 70.2369 6.04906C66.9698 6.92448 67.1893 18.3377 70.7272 31.5412C74.265 44.7448 79.7816 54.7386 83.0487 53.8632Z" fill="white" stroke="var(--primary)" stroke-width="1.1"/>
<mask id="mask4" mask-type="alpha" maskUnits="userSpaceOnUse" x="67" y="5" width="19" height="49">
<path d="M83.0487 53.8632C86.3158 52.9878 86.0964 41.5746 82.5585 28.371C79.0206 15.1675 73.5041 5.17364 70.2369 6.04906C66.9698 6.92448 67.1893 18.3377 70.7272 31.5412C74.265 44.7448 79.7816 54.7386 83.0487 53.8632Z" fill="white"/>
</mask>
<g mask="url(#mask4)">
<path fill-rule="evenodd" clip-rule="evenodd" d="M74.5277 22.0607L65.4148 22.4824L66.0398 31.2553L70.9401 39.6502L77.958 34.863L74.5277 22.0607Z" fill="#E9EAEC" stroke="var(--primary)" stroke-width="1.1"/>
</g>
<mask id="mask5" mask-type="alpha" maskUnits="userSpaceOnUse" x="67" y="5" width="19" height="49">
<path d="M83.0487 53.8632C86.3158 52.9878 86.0964 41.5746 82.5585 28.371C79.0206 15.1675 73.5041 5.17364 70.2369 6.04906C66.9698 6.92448 67.1893 18.3377 70.7272 31.5412C74.265 44.7448 79.7816 54.7386 83.0487 53.8632Z" fill="white"/>
</mask>
<g mask="url(#mask5)">
<path fill-rule="evenodd" clip-rule="evenodd" d="M78.7441 35.0275C80.2292 34.6296 80.6121 31.2523 79.6472 27.6514C78.6824 24.0504 76.3977 21.1606 74.9126 21.5585C73.4276 21.9564 73.3091 25.4902 74.274 29.0911C75.2388 32.6921 77.2591 35.4255 78.7441 35.0275Z" fill="var(--primary)"/>
</g>
<mask id="mask6" mask-type="alpha" maskUnits="userSpaceOnUse" x="67" y="5" width="19" height="49">
<path d="M83.0487 53.8632C86.3158 52.9878 86.0964 41.5746 82.5585 28.371C79.0206 15.1675 73.5041 5.17364 70.2369 6.04906C66.9698 6.92448 67.1893 18.3377 70.7272 31.5412C74.265 44.7448 79.7816 54.7386 83.0487 53.8632Z" fill="white"/>
</mask>
<g mask="url(#mask6)">
<path d="M83.0487 53.8632C86.3158 52.9878 86.0964 41.5746 82.5585 28.371C79.0206 15.1675 73.5041 5.17364 70.2369 6.04906C66.9698 6.92448 67.1893 18.3377 70.7272 31.5412C74.265 44.7448 79.7816 54.7386 83.0487 53.8632Z" stroke="var(--primary)" stroke-width="1.1"/>
</g>
</g>
</g>
<defs>
<clipPath id="clip0">
<rect width="95.46" height="86" fill="white"/>
</clipPath>
</defs>
</svg>
