<svg width="114" height="86" viewBox="0 0 114 86" fill="none" xmlns="http://www.w3.org/2000/svg">
<g clip-path="url(#clip0)">
<mask id="mask0" mask-type="alpha" maskUnits="userSpaceOnUse" x="-19" y="-8" width="150" height="102">
<path d="M131 -8H-19V94H131V-8Z" fill="white"/>
</mask>
<g mask="url(#mask0)">
<path fill-rule="evenodd" clip-rule="evenodd" d="M16.125 4.06451H66.0836C68.7986 4.06451 70.9996 6.02868 70.9996 8.45161V54.5161C70.9996 56.9391 68.7986 58.9032 66.0836 58.9032H25.5269C22.8119 58.9032 20.6109 56.9391 20.6109 54.5161V7.50641" fill="#E9EAEC"/>
<path d="M16.125 4.06451H66.0836C68.7986 4.06451 70.9996 6.02868 70.9996 8.45161V54.5161C70.9996 56.9391 68.7986 58.9032 66.0836 58.9032H25.5269C22.8119 58.9032 20.6109 56.9391 20.6109 54.5161V7.50641" stroke="#E9EAEC" stroke-width="1.1"/>
<path fill-rule="evenodd" clip-rule="evenodd" d="M16.125 4.06451H66.0836C68.7986 4.06451 70.9996 6.02868 70.9996 8.45161V54.5161C70.9996 56.9391 68.7986 58.9032 66.0836 58.9032H25.5269C22.8119 58.9032 20.6109 56.9391 20.6109 54.5161V7.50641" fill="#E9EAEC"/>
<path d="M16.125 4.06451H66.0836C68.7986 4.06451 70.9996 6.02868 70.9996 8.45161V54.5161C70.9996 56.9391 68.7986 58.9032 66.0836 58.9032H25.5269C22.8119 58.9032 20.6109 56.9391 20.6109 54.5161V7.50641" stroke="#E9EAEC" stroke-width="1.1"/>
<path fill-rule="evenodd" clip-rule="evenodd" d="M30.4433 36.6764V50.129V53.0538C30.4433 56.2843 28.2424 58.9032 25.5273 58.9032H40.248V33.9616C39.3039 31.5877 37.8412 30.3457 35.8598 30.2355C33.8784 30.1254 32.0729 31.3675 30.4433 33.9616V36.6764Z" fill="#E9EAEC" stroke="#E9EAEC" stroke-width="1.1" stroke-linecap="round"/>
<path fill-rule="evenodd" clip-rule="evenodd" d="M20.5479 15.4667H10.7796V9.91398C10.7796 6.68341 12.9805 4.06452 15.6955 4.06452C17.8263 4.28807 19.1677 4.86071 19.7198 5.78242C20.2718 6.70414 20.5479 7.38259 20.5479 7.81778L20.5479 15.4667Z" fill="#E9EAEC" stroke="#E9EAEC" stroke-width="1.1" stroke-linecap="round" stroke-linejoin="round"/>
<path fill-rule="evenodd" clip-rule="evenodd" d="M20.5479 15.4667H10.7796V9.91398C10.7796 6.68341 12.9805 4.06452 15.6955 4.06452" fill="#E9EAEC"/>
<path d="M20.5479 15.4667H10.7796V9.91398C10.7796 6.68341 12.9805 4.06452 15.6955 4.06452" stroke="#E9EAEC" stroke-width="1.1" stroke-linecap="round" stroke-linejoin="round"/>
<path fill-rule="evenodd" clip-rule="evenodd" d="M15.6953 4.06451C18.4103 4.06451 20.6113 6.02868 20.6113 8.45161V16.129" fill="#E9EAEC"/>
<path d="M15.6953 4.06451C18.4103 4.06451 20.6113 6.02868 20.6113 8.45161V16.129" stroke="#E9EAEC" stroke-width="1.1"/>
<path fill-rule="evenodd" clip-rule="evenodd" d="M40.5527 58.9032C37.5065 58.9032 32.9372 58.9032 26.8447 58.9032H40.5527Z" fill="#E9EAEC"/>
<path d="M40.5527 58.9032C37.5065 58.9032 32.9372 58.9032 26.8447 58.9032" stroke="#E9EAEC" stroke-width="1.1" stroke-linecap="round" stroke-linejoin="round"/>
<path fill-rule="evenodd" clip-rule="evenodd" d="M30.4433 36.6765V50.129V53.0538C30.4433 56.2843 28.2424 58.9032 25.5273 58.9032" fill="#E9EAEC"/>
<path d="M30.4433 36.6765V50.129V53.0538C30.4433 56.2843 28.2424 58.9032 25.5273 58.9032" stroke="#E9EAEC" stroke-width="1.1" stroke-linecap="round"/>
<path fill-rule="evenodd" clip-rule="evenodd" d="M35.7891 30.3871H85.7477C88.4627 30.3871 90.6636 32.3513 90.6636 34.7742V80.8387C90.6636 83.2616 88.4627 85.2258 85.7477 85.2258H45.1909C42.4759 85.2258 40.275 83.2616 40.275 80.8387V33.829C39.3682 31.8609 38.5794 30.8176 37.9086 30.6991C37.2378 30.5806 36.5313 30.4766 35.7891 30.3871Z" fill="#E9EAEC" stroke="#E9EAEC" stroke-width="1.1"/>
<path fill-rule="evenodd" clip-rule="evenodd" d="M35.7891 30.3871H85.7477C88.4627 30.3871 90.6636 32.3513 90.6636 34.7742V80.8387C90.6636 83.2616 88.4627 85.2258 85.7477 85.2258H45.1909C42.4759 85.2258 40.275 83.2616 40.275 80.8387V33.829" fill="#E9EAEC"/>
<path d="M35.7891 30.3871H85.7477C88.4627 30.3871 90.6636 32.3513 90.6636 34.7742V80.8387C90.6636 83.2616 88.4627 85.2258 85.7477 85.2258H45.1909C42.4759 85.2258 40.275 83.2616 40.275 80.8387V33.829" stroke="#E9EAEC" stroke-width="1.1"/>
<path fill-rule="evenodd" clip-rule="evenodd" d="M35.3594 30.3871C38.0744 30.3871 40.2753 32.3513 40.2753 34.7742V42.4516" fill="#E9EAEC"/>
<path d="M35.3594 30.3871C38.0744 30.3871 40.2753 32.3513 40.2753 34.7742V42.4516" stroke="#E9EAEC" stroke-width="1.1"/>
<path fill-rule="evenodd" clip-rule="evenodd" d="M50.1837 76.4516H96.8084V79.3763C96.8084 82.6069 94.6075 85.2258 91.8925 85.2258H46.5088C48.6877 83.984 49.9126 82.8373 50.1837 81.7856C50.4547 80.7339 50.4547 78.9559 50.1837 76.4516Z" fill="#E9EAEC" stroke="#E9EAEC" stroke-width="1.1" stroke-linecap="round" stroke-linejoin="round"/>
<path fill-rule="evenodd" clip-rule="evenodd" d="M50.1837 80.8387H96.3872L96.0229 81.8866C96.0229 83.5019 94.6075 85.2258 91.8925 85.2258H46.5088" fill="#E9EAEC"/>
<path d="M50.1837 80.8387H96.3872L96.0229 81.8866C96.0229 83.5019 94.6075 85.2258 91.8925 85.2258H46.5088" stroke="#E9EAEC" stroke-width="1.1" stroke-linecap="round" stroke-linejoin="round"/>
<path fill-rule="evenodd" clip-rule="evenodd" d="M50.1837 83.0322H96.3872L96.0229 83.5562C96.0229 84.3638 94.6075 85.2258 91.8925 85.2258H46.5088" fill="#E9EAEC"/>
<path d="M50.1837 83.0322H96.3872L96.0229 83.5562C96.0229 84.3638 94.6075 85.2258 91.8925 85.2258H46.5088" stroke="#E9EAEC" stroke-width="1.1" stroke-linecap="round" stroke-linejoin="round"/>
<path fill-rule="evenodd" clip-rule="evenodd" d="M50.1837 76.4516H96.8084V79.3763C96.8084 82.6069 94.6075 85.2258 91.8925 85.2258H46.5088" fill="#E9EAEC"/>
<path d="M50.1837 76.4516H96.8084V79.3763C96.8084 82.6069 94.6075 85.2258 91.8925 85.2258H46.5088" stroke="#E9EAEC" stroke-width="1.1" stroke-linecap="round" stroke-linejoin="round"/>
<path fill-rule="evenodd" clip-rule="evenodd" d="M50.1074 76.4516V79.3763C50.1074 82.6069 47.9064 85.2258 45.1914 85.2258" fill="#E9EAEC"/>
<path d="M50.1074 76.4516V79.3763C50.1074 82.6069 47.9064 85.2258 45.1914 85.2258" stroke="#E9EAEC" stroke-width="1.1" stroke-linecap="round"/>
<path fill-rule="evenodd" clip-rule="evenodd" d="M30.4434 39.1613V36.2365C30.4434 33.006 32.6444 30.3871 35.3594 30.3871" fill="#E9EAEC"/>
<path d="M30.4434 39.1613V36.2365C30.4434 33.006 32.6444 30.3871 35.3594 30.3871" stroke="#E9EAEC" stroke-width="1.1" stroke-linecap="round"/>
<path fill-rule="evenodd" clip-rule="evenodd" d="M6.19824 0.77417H56.1568C58.8718 0.77417 61.0728 2.73834 61.0728 5.16127V51.2258C61.0728 53.6487 58.8718 55.6129 56.1568 55.6129H15.6001C12.8851 55.6129 10.6841 53.6487 10.6841 51.2258V4.21607" fill="#B8BBC1"/>
<path fill-rule="evenodd" clip-rule="evenodd" d="M61.0732 5.16125V51.2258C61.0732 53.6487 58.8723 55.6129 56.1573 55.6129H15.6005C12.8855 55.6129 10.6846 53.6487 10.6846 51.2258" fill="#E9EAEC"/>
<path d="M6.19824 0.77417H56.1568C58.8718 0.77417 61.0728 2.73834 61.0728 5.16127V51.2258C61.0728 53.6487 58.8718 55.6129 56.1568 55.6129H15.6001C12.8851 55.6129 10.6841 53.6487 10.6841 51.2258V4.21607" stroke="var(--primary)" stroke-width="1.1"/>
<path fill-rule="evenodd" clip-rule="evenodd" d="M20.5166 33.3861V46.8387V49.7634C20.5166 52.994 18.3156 55.6129 15.6006 55.6129H30.3213V30.6713C29.3772 28.2973 27.9144 27.0553 25.933 26.9452C23.9516 26.8351 22.1461 28.0771 20.5166 30.6713V33.3861Z" fill="var(--primary)"/>
<path fill-rule="evenodd" clip-rule="evenodd" d="M10.6211 12.1764H0.852797V6.62364C0.852797 3.39307 3.05375 0.774176 5.76876 0.774176C7.89955 0.997728 9.24097 1.57036 9.79302 2.49208C10.3451 3.41379 10.6211 4.09225 10.6211 4.52744L10.6211 12.1764Z" fill="var(--primary)"/>
<path d="M10.6211 12.1764H0.852797V6.62364C0.852797 3.39307 3.05375 0.774176 5.76876 0.774176" stroke="var(--primary)" stroke-width="1.1" stroke-linecap="round" stroke-linejoin="round"/>
<path d="M5.76855 0.77417C8.48357 0.77417 10.6845 2.73834 10.6845 5.16127V12.8387" stroke="var(--primary)" stroke-width="1.1"/>
<path fill-rule="evenodd" clip-rule="evenodd" d="M30.6259 55.6129C27.5797 55.6129 23.0104 55.6129 16.918 55.6129H30.6259Z" fill="#D8D8D8"/>
<path d="M30.6259 55.6129C27.5797 55.6129 23.0104 55.6129 16.918 55.6129" stroke="var(--primary)" stroke-width="1.1" stroke-linecap="round" stroke-linejoin="round"/>
<path d="M20.5166 33.3861V46.8387V49.7634C20.5166 52.994 18.3156 55.6129 15.6006 55.6129" stroke="var(--primary)" stroke-width="1.1" stroke-linecap="round"/>
<path fill-rule="evenodd" clip-rule="evenodd" d="M25.8623 27.0967H75.8209C78.5359 27.0967 80.7369 29.0609 80.7369 31.4838V77.5484C80.7369 79.9713 78.5359 81.9355 75.8209 81.9355H35.2642C32.5492 81.9355 30.3482 79.9713 30.3482 77.5484V30.5386C29.4414 28.5705 28.6526 27.5272 27.9818 27.4087C27.311 27.2902 26.6045 27.1862 25.8623 27.0967Z" fill="#B8BBC1"/>
<path fill-rule="evenodd" clip-rule="evenodd" d="M80.7373 31.4838V77.5483C80.7373 79.9713 78.5363 81.9354 75.8213 81.9354H35.2646C32.5496 81.9354 30.3486 79.9713 30.3486 77.5483" fill="#E9EAEC"/>
<path d="M25.8623 27.0967H75.8209C78.5359 27.0967 80.7369 29.0609 80.7369 31.4838V77.5484C80.7369 79.9713 78.5359 81.9355 75.8209 81.9355H35.2642C32.5492 81.9355 30.3482 79.9713 30.3482 77.5484V30.5386" stroke="var(--primary)" stroke-width="1.1"/>
<path d="M25.4326 27.0967C28.1476 27.0967 30.3486 29.0609 30.3486 31.4838V39.1613" stroke="var(--primary)" stroke-width="1.1"/>
<path fill-rule="evenodd" clip-rule="evenodd" d="M40.2569 73.1613H86.8817V76.086C86.8817 79.3166 84.6807 81.9354 81.9657 81.9354H36.582C38.7609 80.6937 39.9859 79.547 40.2569 78.4952C40.528 77.4435 40.528 75.6655 40.2569 73.1613Z" fill="#B8BBC1"/>
<path fill-rule="evenodd" clip-rule="evenodd" d="M40.2569 77.5483H86.4605L86.0961 78.5963C86.0961 80.2116 84.6807 81.9354 81.9657 81.9354H36.582" fill="#E9EAEC"/>
<path fill-rule="evenodd" clip-rule="evenodd" d="M40.2569 79.7419H86.4605L86.0961 80.2659C86.0961 81.0735 84.6807 81.9354 81.9657 81.9354H36.582" fill="#E9EAEC"/>
<path d="M40.2569 73.1613H86.8817V76.086C86.8817 79.3166 84.6807 81.9354 81.9657 81.9354H36.582" stroke="var(--primary)" stroke-width="1.1" stroke-linecap="round" stroke-linejoin="round"/>
<path d="M40.1806 73.1613V76.086C40.1806 79.3166 37.9797 81.9354 35.2646 81.9354" stroke="var(--primary)" stroke-width="1.1" stroke-linecap="round"/>
<path d="M20.5167 35.8709V32.9462C20.5167 29.7156 22.7176 27.0967 25.4326 27.0967" stroke="var(--primary)" stroke-width="1.1" stroke-linecap="round"/>
<path d="M18.6729 11.1935H30.9628" stroke="var(--primary)" stroke-width="1.1" stroke-linecap="round"/>
<path d="M18.5762 14.4838H37.2338" stroke="var(--primary)" stroke-width="1.1" stroke-linecap="round"/>
<path d="M18.5762 17.7742H37.2338" stroke="var(--primary)" stroke-width="1.1" stroke-linecap="round"/>
<path d="M18.5762 21.0645H24.8182" stroke="var(--primary)" stroke-width="1.1" stroke-linecap="round"/>
<path d="M41.6611 47.9355C41.6611 50.3584 43.6363 52.3226 46.0729 52.3226C48.5094 52.3226 50.4847 50.3584 50.4847 47.9355" stroke="var(--primary)" stroke-width="2.2" stroke-linecap="round"/>
<path d="M65.9258 47.9355C65.9258 50.3584 67.901 52.3226 70.3375 52.3226C72.7741 52.3226 74.7493 50.3584 74.7493 47.9355" stroke="var(--primary)" stroke-width="2.2" stroke-linecap="round"/>
<path d="M81.3672 19.6971L85.4561 18.3226L82.8565 22.83L86.7951 21.5557" stroke="#E9EAEC" stroke-width="1.1" stroke-linecap="round" stroke-linejoin="round"/>
<path d="M87.9844 15.31L92.0733 13.9355L89.4737 18.443L93.4123 17.1686" stroke="#E9EAEC" stroke-width="1.1" stroke-linecap="round" stroke-linejoin="round"/>
<path d="M106.635 16.52C107.161 16.3494 107.448 15.7852 107.278 15.26C107.107 14.7347 106.543 14.4473 106.017 14.6179C105.492 14.7886 105.205 15.3527 105.375 15.878C105.546 16.4033 106.11 16.6907 106.635 16.52Z" fill="#E9EAEC"/>
<path d="M109.782 15.4976C110.307 15.3269 110.595 14.7628 110.424 14.2375C110.253 13.7122 109.689 13.4248 109.164 13.5955C108.639 13.7661 108.351 14.3303 108.522 14.8555C108.693 15.3808 109.257 15.6682 109.782 15.4976Z" fill="#E9EAEC"/>
<path d="M112.929 14.4751C113.455 14.3044 113.742 13.7402 113.571 13.215C113.401 12.6897 112.837 12.4023 112.311 12.5729C111.786 12.7436 111.499 13.3078 111.669 13.833C111.84 14.3583 112.404 14.6457 112.929 14.4751Z" fill="#E9EAEC"/>
<path d="M96.8086 15.31L100.898 13.9355L98.2979 18.443L102.237 17.1686" stroke="#E9EAEC" stroke-width="1.1" stroke-linecap="round" stroke-linejoin="round"/>
<path d="M71.4404 16.4067L75.5294 15.0322L72.9298 19.5397L76.8683 18.2653" stroke="var(--primary)" stroke-width="1.1" stroke-linecap="round" stroke-linejoin="round"/>
<path d="M78.0576 12.0197L82.1465 10.6451L79.547 15.1526L83.4855 13.8783" stroke="var(--primary)" stroke-width="1.1" stroke-linecap="round" stroke-linejoin="round"/>
<path d="M96.7087 13.2297C97.234 13.059 97.5214 12.4949 97.3508 11.9696C97.1801 11.4444 96.616 11.1569 96.0907 11.3276C95.5655 11.4982 95.278 12.0624 95.4487 12.5877C95.6193 13.1129 96.1835 13.4004 96.7087 13.2297Z" fill="var(--primary)"/>
<path d="M99.8552 12.2072C100.38 12.0366 100.668 11.4724 100.497 10.9472C100.327 10.4219 99.7624 10.1345 99.2372 10.3051C98.7119 10.4758 98.4245 11.0399 98.5951 11.5652C98.7658 12.0904 99.33 12.3779 99.8552 12.2072Z" fill="var(--primary)"/>
<path d="M103.003 11.1847C103.528 11.014 103.815 10.4499 103.645 9.92464C103.474 9.39938 102.91 9.11193 102.385 9.2826C101.859 9.45326 101.572 10.0174 101.743 10.5427C101.913 11.0679 102.477 11.3554 103.003 11.1847Z" fill="var(--primary)"/>
<path d="M86.8818 12.0197L90.9708 10.6451L88.3712 15.1526L92.3098 13.8783" stroke="var(--primary)" stroke-width="1.1" stroke-linecap="round" stroke-linejoin="round"/>
</g>
</g>
<defs>
<clipPath id="clip0">
<rect width="114" height="86" fill="white"/>
</clipPath>
</defs>
</svg>
