<svg width="100" height="83" viewBox="0 0 100 83" fill="none" xmlns="http://www.w3.org/2000/svg">
<g clip-path="url(#clip0)">
<mask id="mask0" mask-type="alpha" maskUnits="userSpaceOnUse" x="-34" y="-10" width="150" height="102">
<path d="M116 -10H-34V91.1379H116V-10Z" fill="white"/>
</mask>
<g mask="url(#mask0)">
<path fill-rule="evenodd" clip-rule="evenodd" d="M37.8761 48.9967L33.9071 39.7531L28.5439 31.6488L18.0687 24.1565L17.2054 22.5489L39.4517 7.52959L51.529 17.6525L57.0649 24.6702L60.3753 30.9361L62.0146 39.3693L61.4989 47.4811L37.8761 48.9967Z" fill="#E9EAEC" stroke="#E9EAEC" stroke-width="0.55"/>
<path fill-rule="evenodd" clip-rule="evenodd" d="M37.6187 49.3737C34.1199 35.727 30.7896 30.88 18.0022 24.1845C17.0962 23.3478 16.9576 22.6349 17.5864 22.0458C18.2153 21.4567 24.9088 16.871 37.6671 8.28873C38.6624 7.57056 39.4175 7.42379 39.9324 7.84841C40.4473 8.27303 41.1004 8.80916 41.8916 9.4568C56.0333 20.614 62.5552 30.8003 61.4573 40.0158" fill="#E9EAEC"/>
<path d="M37.6187 49.3737C34.1199 35.727 30.7896 30.88 18.0022 24.1845C17.0962 23.3478 16.9576 22.6349 17.5864 22.0458C18.2153 21.4567 24.9088 16.871 37.6671 8.28873C38.6624 7.57056 39.4175 7.42379 39.9324 7.84841C40.4473 8.27303 41.1004 8.80916 41.8916 9.4568C56.0333 20.614 62.5552 30.8003 61.4573 40.0158" stroke="#E9EAEC" stroke-width="1.1" stroke-linecap="round"/>
<mask id="mask1" mask-type="alpha" maskUnits="userSpaceOnUse" x="17" y="6" width="42" height="41">
<path d="M32.4208 46.9527C31.6012 33.0649 29.2878 27.739 18.1612 18.8392C17.4411 17.8574 17.4411 17.1402 18.1612 16.6877C18.8812 16.2352 26.2288 13.0512 40.204 7.13587C41.3033 6.62724 42.0625 6.62724 42.4813 7.13587C42.9001 7.64449 43.4318 8.28725 44.0763 9.06412C55.6746 22.5441 60.0744 33.6471 57.2756 42.3733" fill="white"/>
</mask>
<g mask="url(#mask1)">
<path d="M36.7188 47.6436C33.0296 34.2297 29.6594 29.5012 16.9256 23.1092C16.0171 22.2985 15.868 21.5971 16.4783 21.0047C17.0885 20.4124 23.6136 15.7703 36.0535 7.07865C37.0231 6.35256 37.7656 6.19473 38.281 6.60517C38.7964 7.0156 39.4501 7.53377 40.2421 8.15967C54.3896 18.9336 61.0017 28.8793 60.0783 37.9967" fill="#E9EAEC"/>
<path d="M36.7188 47.6436C33.0296 34.2297 29.6594 29.5012 16.9256 23.1092C16.0171 22.2985 15.868 21.5971 16.4783 21.0047C17.0885 20.4124 23.6136 15.7703 36.0535 7.07865C37.0231 6.35256 37.7656 6.19473 38.281 6.60517C38.7964 7.0156 39.4501 7.53377 40.2421 8.15967C54.3896 18.9336 61.0017 28.8793 60.0783 37.9967" stroke="#E9EAEC" stroke-width="1.1" stroke-linecap="round"/>
<path opacity="0.403193" fill-rule="evenodd" clip-rule="evenodd" d="M36.4398 48.3633C39.6567 34.6282 23.6334 21.0198 23.1623 20.5259C22.8482 20.1967 22.8482 19.5476 23.1623 18.5786L43.1276 7.48944C45.612 7.8696 47.0636 8.31399 47.4824 8.82262C47.9013 9.33125 48.4329 9.974 49.0774 10.7509C60.6758 24.2308 65.0755 35.3339 62.2767 44.0601C58.0785 57.1494 37.7183 50.3625 37.8933 50.8595C38.01 51.1908 37.5255 50.3587 36.4398 48.3633Z" fill="#E9EAEC" stroke="#E9EAEC" stroke-width="1.1" stroke-linecap="round"/>
</g>
<path fill-rule="evenodd" clip-rule="evenodd" d="M37.9067 47.8164L35.9979 34.9656L32.2796 25.9868L23.4264 16.6335L22.8857 14.8906L47.5891 4.39209L57.513 16.6335L61.6082 24.5785L63.6622 31.361V39.9521L61.6082 47.8164H37.9067Z" fill="#E9EAEC" stroke="#E9EAEC" stroke-width="0.55"/>
<path fill-rule="evenodd" clip-rule="evenodd" d="M37.6144 47.8689C36.7838 33.8052 34.6298 25.6606 23.3549 16.6481C22.6252 15.6539 22.6252 14.9276 23.3549 14.4694C24.0846 14.0111 31.5301 10.7869 45.6916 4.79664C46.8056 4.28157 47.5749 4.28157 47.9993 4.79664C48.4237 5.31171 48.9625 5.96259 49.6155 6.7493C61.3685 20.3999 65.827 31.6435 62.9908 40.4801" fill="#E9EAEC"/>
<path d="M37.6144 47.8689C36.7838 33.8052 34.6298 25.6606 23.3549 16.6481C22.6252 15.6539 22.6252 14.9276 23.3549 14.4694C24.0846 14.0111 31.5301 10.7869 45.6916 4.79664C46.8056 4.28157 47.5749 4.28157 47.9993 4.79664C48.4237 5.31171 48.9625 5.96259 49.6155 6.7493C61.3685 20.3999 65.827 31.6435 62.9908 40.4801" stroke="#E9EAEC" stroke-width="1.1" stroke-linecap="round"/>
<path fill-rule="evenodd" clip-rule="evenodd" d="M40.4492 26.7419L48.1698 23.4516L40.4492 26.7419Z" fill="#E9EAEC"/>
<path d="M40.4492 26.7419L48.1698 23.4516" stroke="#E9EAEC" stroke-width="1.1" stroke-linecap="round" stroke-linejoin="round"/>
<path fill-rule="evenodd" clip-rule="evenodd" d="M50.375 22.3548L52.5809 21.258L50.375 22.3548Z" fill="#E9EAEC"/>
<path d="M50.375 22.3548L52.5809 21.258" stroke="#E9EAEC" stroke-width="1.1" stroke-linecap="round" stroke-linejoin="round"/>
<path fill-rule="evenodd" clip-rule="evenodd" d="M42.6543 31.1289L50.3749 27.8386L42.6543 31.1289Z" fill="#E9EAEC"/>
<path d="M42.6543 31.1289L50.3749 27.8386" stroke="#E9EAEC" stroke-width="1.1" stroke-linecap="round" stroke-linejoin="round"/>
<path fill-rule="evenodd" clip-rule="evenodd" d="M52.5811 26.7419L54.7869 25.6451L52.5811 26.7419Z" fill="#E9EAEC"/>
<path d="M52.5811 26.7419L54.7869 25.6451" stroke="#E9EAEC" stroke-width="1.1" stroke-linecap="round" stroke-linejoin="round"/>
<path fill-rule="evenodd" clip-rule="evenodd" d="M41.5518 21.258L45.9635 19.0645L41.5518 21.258Z" fill="#E9EAEC"/>
<path d="M41.5518 21.258L45.9635 19.0645" stroke="#E9EAEC" stroke-width="1.1" stroke-linecap="round" stroke-linejoin="round"/>
<path d="M79.065 34.421H15.068C12.6379 34.421 10.668 36.3909 10.668 38.821V77.179C10.668 79.6091 12.6379 81.579 15.068 81.579H79.065C81.4951 81.579 83.465 79.6091 83.465 77.179V38.821C83.465 36.3909 81.4951 34.421 79.065 34.421Z" fill="#E9EAEC" stroke="#E9EAEC" stroke-width="1.1"/>
<path d="M74.6533 34.421H15.068C12.6379 34.421 10.668 36.3909 10.668 38.821V77.179C10.668 79.6091 12.6379 81.579 15.068 81.579H74.6533C77.0833 81.579 79.0533 79.6091 79.0533 77.179V38.821C79.0533 36.3909 77.0833 34.421 74.6533 34.421Z" fill="#E9EAEC" stroke="#E9EAEC" stroke-width="1.1"/>
<path d="M79.065 34.421H15.068C12.6379 34.421 10.668 36.3909 10.668 38.821V77.179C10.668 79.6091 12.6379 81.579 15.068 81.579H79.065C81.4951 81.579 83.465 79.6091 83.465 77.179V38.821C83.465 36.3909 81.4951 34.421 79.065 34.421Z" fill="#E9EAEC" stroke="#E9EAEC" stroke-width="1.1"/>
<path d="M72.4474 30.0339H15.068C12.6379 30.0339 10.668 32.0038 10.668 34.4339V77.179C10.668 79.6091 12.6379 81.579 15.068 81.579H72.4474C74.8774 81.579 76.8474 79.6091 76.8474 77.179V34.4339C76.8474 32.0038 74.8774 30.0339 72.4474 30.0339Z" fill="#E9EAEC" stroke="#E9EAEC" stroke-width="1.1"/>
<path fill-rule="evenodd" clip-rule="evenodd" d="M10.668 74.9984H65.2768C67.4031 74.9984 69.1268 73.2747 69.1268 71.1484V30.0339H14.518C12.3917 30.0339 10.668 31.7576 10.668 33.8839V74.9984Z" fill="#E9EAEC" stroke="#E9EAEC" stroke-width="1.1"/>
<path d="M72.4474 30.0339H15.068C12.6379 30.0339 10.668 32.0038 10.668 34.4339V77.179C10.668 79.6091 12.6379 81.579 15.068 81.579H72.4474C74.8774 81.579 76.8474 79.6091 76.8474 77.179V34.4339C76.8474 32.0038 74.8774 30.0339 72.4474 30.0339Z" fill="#E9EAEC" stroke="#E9EAEC" stroke-width="1.1"/>
<path fill-rule="evenodd" clip-rule="evenodd" d="M69.64 49.7758C66.3094 49.7758 63.6094 52.4758 63.6094 55.8065C63.6094 59.1371 66.3094 61.8371 69.64 61.8371H85.1241C86.0354 61.8371 86.7741 61.0984 86.7741 60.1871V51.4258C86.7741 50.5145 86.0354 49.7758 85.1241 49.7758H69.64Z" fill="#E9EAEC" stroke="#E9EAEC" stroke-width="1.1"/>
<path d="M69.6766 59.0968C70.8949 59.0968 71.8825 58.1147 71.8825 56.9033C71.8825 55.6918 70.8949 54.7097 69.6766 54.7097C68.4583 54.7097 67.4707 55.6918 67.4707 56.9033C67.4707 58.1147 68.4583 59.0968 69.6766 59.0968Z" fill="#E9EAEC" stroke="#E9EAEC" stroke-width="1.1"/>
<path d="M69.6766 58C70.8949 58 71.8825 57.0179 71.8825 55.8065C71.8825 54.595 70.8949 53.6129 69.6766 53.6129C68.4583 53.6129 67.4707 54.595 67.4707 55.8065C67.4707 57.0179 68.4583 58 69.6766 58Z" fill="#E9EAEC" stroke="#E9EAEC" stroke-width="1.1"/>
<path fill-rule="evenodd" clip-rule="evenodd" d="M69.64 49.7758C66.3094 49.7758 63.6094 52.4758 63.6094 55.8065C63.6094 59.1371 66.3094 61.8371 69.64 61.8371H85.1241C86.0354 61.8371 86.7741 61.0984 86.7741 60.1871V51.4258C86.7741 50.5145 86.0354 49.7758 85.1241 49.7758H69.64Z" fill="#E9EAEC" stroke="#E9EAEC" stroke-width="1.1"/>
<path d="M41.5523 18.5161C43.0751 18.5161 44.3096 17.2885 44.3096 15.7742C44.3096 14.2598 43.0751 13.0322 41.5523 13.0322C40.0294 13.0322 38.7949 14.2598 38.7949 15.7742C38.7949 17.2885 40.0294 18.5161 41.5523 18.5161Z" fill="#E9EAEC" stroke="#E9EAEC" stroke-width="1.1"/>
<path fill-rule="evenodd" clip-rule="evenodd" d="M20.0449 49.2258C20.0449 51.6487 22.0201 53.6129 24.4567 53.6129C26.8932 53.6129 28.8685 51.6487 28.8685 49.2258" fill="#E9EAEC"/>
<path d="M20.0449 49.2258C20.0449 51.6487 22.0201 53.6129 24.4567 53.6129C26.8932 53.6129 28.8685 51.6487 28.8685 49.2258" stroke="#E9EAEC" stroke-width="2.2" stroke-linecap="round"/>
<path fill-rule="evenodd" clip-rule="evenodd" d="M47.6182 49.2258C47.6182 51.6487 49.5934 53.6129 52.0299 53.6129C54.4665 53.6129 56.4417 51.6487 56.4417 49.2258" fill="#E9EAEC"/>
<path d="M47.6182 49.2258C47.6182 51.6487 49.5934 53.6129 52.0299 53.6129C54.4665 53.6129 56.4417 51.6487 56.4417 49.2258" stroke="#E9EAEC" stroke-width="2.2" stroke-linecap="round"/>
<path d="M67.4707 20.9874L71.5596 19.6129L68.96 24.1203L72.8986 22.846" stroke="#E9EAEC" stroke-width="1.1" stroke-linecap="round" stroke-linejoin="round"/>
<path d="M74.0879 16.6003L78.1768 15.2258L75.5772 19.7332L79.5158 18.4589" stroke="#E9EAEC" stroke-width="1.1" stroke-linecap="round" stroke-linejoin="round"/>
<path d="M92.739 17.8103C93.2643 17.6397 93.5517 17.0755 93.3811 16.5502C93.2104 16.025 92.6462 15.7375 92.121 15.9082C91.5957 16.0789 91.3083 16.643 91.4789 17.1683C91.6496 17.6935 92.2138 17.981 92.739 17.8103Z" fill="#E9EAEC"/>
<path d="M95.8855 16.7879C96.4108 16.6172 96.6982 16.053 96.5275 15.5278C96.3569 15.0025 95.7927 14.7151 95.2675 14.8857C94.7422 15.0564 94.4548 15.6206 94.6254 16.1458C94.7961 16.6711 95.3602 16.9585 95.8855 16.7879Z" fill="#E9EAEC"/>
<path d="M99.033 15.7653C99.5582 15.5947 99.8457 15.0305 99.675 14.5053C99.5043 13.98 98.9402 13.6926 98.4149 13.8632C97.8897 14.0339 97.6022 14.598 97.7729 15.1233C97.9436 15.6486 98.5077 15.936 99.033 15.7653Z" fill="#E9EAEC"/>
<path d="M82.9121 16.6003L87.001 15.2258L84.4015 19.7332L88.34 18.4589" stroke="#E9EAEC" stroke-width="1.1" stroke-linecap="round" stroke-linejoin="round"/>
<path fill-rule="evenodd" clip-rule="evenodd" d="M27.9494 45.7064L23.9804 36.4627L18.6171 28.3584L8.14191 20.8662L7.2786 19.2585L29.5249 4.23925L41.6022 14.3622L47.1382 21.3798L50.4486 27.6458L52.0878 36.079L51.5722 44.1907L27.9494 45.7064Z" fill="#E9EAEC"/>
<path d="M27.692 46.0833C24.1932 32.4366 20.8629 27.5896 8.0754 20.8941C7.16942 20.0574 7.03085 19.3445 7.65968 18.7554C8.28851 18.1663 14.9821 13.5806 27.7404 4.99833C28.7357 4.28016 29.4908 4.13338 30.0057 4.558C30.5206 4.98262 31.1736 5.51875 31.9648 6.16639C46.1065 17.3236 52.6284 27.5099 51.5305 36.7254" stroke="var(--primary)" stroke-width="1.1" stroke-linecap="round"/>
<mask id="mask2" mask-type="alpha" maskUnits="userSpaceOnUse" x="7" y="3" width="42" height="41">
<path d="M22.4941 43.6624C21.6744 29.7746 19.361 24.4487 8.23439 15.5488C7.51432 14.567 7.51432 13.8499 8.23439 13.3973C8.95447 12.9448 16.3021 9.76088 30.2772 3.84552C31.3766 3.33689 32.1357 3.33689 32.5545 3.84552C32.9734 4.35415 33.505 4.9969 34.1495 5.77378C45.7479 19.2537 50.1476 30.3568 47.3488 39.083" fill="white"/>
</mask>
<g mask="url(#mask2)">
<path opacity="0.403193" fill-rule="evenodd" clip-rule="evenodd" d="M26.5131 45.073C29.7299 31.3378 13.7067 17.7295 13.2356 17.2356C12.9215 16.9063 12.9215 16.2572 13.2356 15.2883L33.2008 4.1991C35.6852 4.57925 37.1369 5.02365 37.5557 5.53227C37.9745 6.0409 38.5062 6.68366 39.1507 7.46053C50.749 20.9405 55.1488 32.0435 52.35 40.7697C48.1518 53.859 27.7916 47.0721 27.9666 47.5691C28.0832 47.9004 27.5988 47.0684 26.5131 45.073Z" fill="#5D6EF9"/>
</g>
<path fill-rule="evenodd" clip-rule="evenodd" d="M27.9799 44.526L26.0712 31.6752L22.3528 22.6965L13.4997 13.3431L12.959 11.6003L37.6624 1.10175L47.5863 13.3431L51.6815 21.2882L53.7354 28.0707V36.6617L51.6815 44.526H27.9799Z" fill="#B8BBC1"/>
<path d="M27.6876 44.5785C26.8571 30.5149 24.7031 22.3703 13.4281 13.3577C12.6984 12.3635 12.6984 11.6373 13.4281 11.179C14.1578 10.7208 21.6034 7.49653 35.7648 1.5063C36.8789 0.991228 37.6481 0.991228 38.0725 1.5063C38.4969 2.02136 39.0357 2.67225 39.6888 3.45896C51.4418 17.1095 55.9002 28.3532 53.0641 37.1898" stroke="var(--primary)" stroke-width="1.1" stroke-linecap="round"/>
<path d="M30.5225 23.4516L38.2431 20.1613" stroke="#E9EAEC" stroke-width="1.1" stroke-linecap="round" stroke-linejoin="round"/>
<path d="M40.4492 19.0644L42.6551 17.9677" stroke="#E9EAEC" stroke-width="1.1" stroke-linecap="round" stroke-linejoin="round"/>
<path d="M32.7285 27.8387L40.4491 24.5483" stroke="#E9EAEC" stroke-width="1.1" stroke-linecap="round" stroke-linejoin="round"/>
<path d="M42.6543 23.4515L44.8602 22.3547" stroke="#E9EAEC" stroke-width="1.1" stroke-linecap="round" stroke-linejoin="round"/>
<path d="M31.625 17.9677L36.0368 15.7741" stroke="#E9EAEC" stroke-width="1.1" stroke-linecap="round" stroke-linejoin="round"/>
<path d="M69.6885 30.5806H4.59141C2.16135 30.5806 0.191406 32.5505 0.191406 34.9806V74.4386C0.191406 76.8687 2.16135 78.8386 4.59141 78.8386H69.6885C72.1185 78.8386 74.0885 76.8687 74.0885 74.4386V34.9806C74.0885 32.5505 72.1185 30.5806 69.6885 30.5806Z" fill="#E9EAEC"/>
<path d="M65.2767 30.5806H4.59141C2.16135 30.5806 0.191406 32.5505 0.191406 34.9806V74.4386C0.191406 76.8687 2.16135 78.8386 4.59141 78.8386H65.2767C67.7068 78.8386 69.6767 76.8687 69.6767 74.4386V34.9806C69.6767 32.5505 67.7068 30.5806 65.2767 30.5806Z" fill="#5D6EF9"/>
<path d="M69.1383 31.1306H5.14121C2.71116 31.1306 0.741211 33.1005 0.741211 35.5306V73.8886C0.741211 76.3187 2.71116 78.2886 5.14121 78.2886H69.1383C71.5683 78.2886 73.5383 76.3187 73.5383 73.8886V35.5306C73.5383 33.1005 71.5683 31.1306 69.1383 31.1306Z" stroke="var(--primary)" stroke-width="1.1"/>
<path d="M63.0708 26.1935H4.59141C2.16135 26.1935 0.191406 28.1634 0.191406 30.5935V74.4386C0.191406 76.8687 2.16135 78.8386 4.59141 78.8386H63.0708C65.5009 78.8386 67.4708 76.8687 67.4708 74.4386V30.5935C67.4708 28.1634 65.5009 26.1935 63.0708 26.1935Z" fill="#E9EAEC"/>
<path fill-rule="evenodd" clip-rule="evenodd" d="M4.59141 26.1935H59.7502V67.858C59.7502 70.2881 57.7803 72.258 55.3502 72.258H0.191406L0.191406 30.5935C0.191406 28.1634 2.16135 26.1935 4.59141 26.1935V26.1935Z" fill="#B8BBC1"/>
<path d="M62.5206 26.7435H5.14121C2.71116 26.7435 0.741211 28.7135 0.741211 31.1435V73.8887C0.741211 76.3187 2.71116 78.2887 5.14121 78.2887H62.5206C64.9507 78.2887 66.9206 76.3187 66.9206 73.8887V31.1435C66.9206 28.7135 64.9507 26.7435 62.5206 26.7435Z" stroke="var(--primary)" stroke-width="1.1"/>
<path fill-rule="evenodd" clip-rule="evenodd" d="M59.7135 45.9354H75.1975C76.4125 45.9354 77.3975 46.9204 77.3975 48.1354V56.8967C77.3975 58.1117 76.4125 59.0967 75.1975 59.0967H59.7135C56.0791 59.0967 53.1328 56.1505 53.1328 52.5161C53.1328 48.8817 56.0791 45.9354 59.7135 45.9354Z" fill="#E9EAEC"/>
<path d="M59.7498 55.8064C60.9681 55.8064 61.9557 54.8243 61.9557 53.6129C61.9557 52.4014 60.9681 51.4193 59.7498 51.4193C58.5316 51.4193 57.5439 52.4014 57.5439 53.6129C57.5439 54.8243 58.5316 55.8064 59.7498 55.8064Z" fill="#5D6EF9"/>
<path d="M59.7498 54.7097C60.9681 54.7097 61.9557 53.7276 61.9557 52.5161C61.9557 51.3047 60.9681 50.3226 59.7498 50.3226C58.5316 50.3226 57.5439 51.3047 57.5439 52.5161C57.5439 53.7276 58.5316 54.7097 59.7498 54.7097Z" fill="var(--primary)"/>
<path fill-rule="evenodd" clip-rule="evenodd" d="M59.7133 46.4854C56.3826 46.4854 53.6826 49.1854 53.6826 52.5161C53.6826 55.8467 56.3826 58.5467 59.7133 58.5467H75.1973C76.1086 58.5467 76.8473 57.808 76.8473 56.8967V48.1354C76.8473 47.2241 76.1086 46.4854 75.1973 46.4854H59.7133Z" stroke="var(--primary)" stroke-width="1.1"/>
<path d="M31.6255 15.2258C33.1484 15.2258 34.3829 13.9981 34.3829 12.4838C34.3829 10.9695 33.1484 9.74188 31.6255 9.74188C30.1027 9.74188 28.8682 10.9695 28.8682 12.4838C28.8682 13.9981 30.1027 15.2258 31.6255 15.2258Z" fill="#E9EAEC"/>
<path d="M10.1182 45.9354C10.1182 48.3583 12.0934 50.3225 14.5299 50.3225C16.9665 50.3225 18.9417 48.3583 18.9417 45.9354" stroke="var(--primary)" stroke-width="2.2" stroke-linecap="round"/>
<path d="M37.6914 45.9354C37.6914 48.3583 39.6666 50.3225 42.1032 50.3225C44.5397 50.3225 46.5149 48.3583 46.5149 45.9354" stroke="var(--primary)" stroke-width="2.2" stroke-linecap="round"/>
<path d="M57.5439 17.697L61.6329 16.3225L59.0333 20.83L62.9719 19.5556" stroke="var(--primary)" stroke-width="1.1" stroke-linecap="round" stroke-linejoin="round"/>
<path d="M64.1611 13.3099L68.2501 11.9354L65.6505 16.4429L69.5891 15.1685" stroke="var(--primary)" stroke-width="1.1" stroke-linecap="round" stroke-linejoin="round"/>
<path d="M82.8123 14.52C83.3375 14.3493 83.625 13.7852 83.4543 13.2599C83.2836 12.7346 82.7195 12.4472 82.1942 12.6179C81.669 12.7885 81.3815 13.3527 81.5522 13.8779C81.7228 14.4032 82.287 14.6906 82.8123 14.52Z" fill="var(--primary)"/>
<path d="M85.9587 13.4975C86.484 13.3269 86.7714 12.7627 86.6008 12.2374C86.4301 11.7122 85.866 11.4247 85.3407 11.5954C84.8154 11.7661 84.528 12.3302 84.6987 12.8555C84.8693 13.3807 85.4335 13.6682 85.9587 13.4975Z" fill="var(--primary)"/>
<path d="M89.1062 12.475C89.6314 12.3043 89.9189 11.7402 89.7482 11.2149C89.5776 10.6897 89.0134 10.4022 88.4882 10.5729C87.9629 10.7435 87.6755 11.3077 87.8461 11.833C88.0168 12.3582 88.5809 12.6457 89.1062 12.475Z" fill="var(--primary)"/>
<path d="M72.9854 13.3099L77.0743 11.9354L74.4747 16.4429L78.4133 15.1685" stroke="var(--primary)" stroke-width="1.1" stroke-linecap="round" stroke-linejoin="round"/>
</g>
</g>
<defs>
<clipPath id="clip0">
<rect width="100" height="83" fill="white"/>
</clipPath>
</defs>
</svg>
